<?xml version="1.0" standalone="no"?>
<!DOCTYPE svg PUBLIC "-//W3C//DTD SVG 1.1//EN" "http://www.w3.org/Graphics/SVG/1.1/DTD/svg11.dtd" >
<svg xmlns="http://www.w3.org/2000/svg" xmlns:xlink="http://www.w3.org/1999/xlink" version="1.1">
<metadata>
Created by FontForge 20170731 at Sat Apr  9 00:40:05 2011
 By Aleksey,,,
Copyright (c) 2010, Kimberly Geswein (kimberlygeswein.com)
</metadata>
<defs>
<font id="WaitingfortheSunrise" horiz-adv-x="435" >
  <font-face 
    font-family="Waiting for the Sunrise"
    font-weight="300"
    font-stretch="normal"
    units-per-em="1024"
    panose-1="2 0 0 0 0 0 0 0 0 0"
    ascent="819"
    descent="-205"
    x-height="489"
    cap-height="639"
    bbox="-132.9 -541.511 1119 1146"
    underline-thickness="51"
    underline-position="-152"
    unicode-range="U+0020-FB02"
  />
<missing-glyph horiz-adv-x="461" 
 />
    <glyph glyph-name=".notdef" horiz-adv-x="461" 
 />
    <glyph glyph-name=".null" horiz-adv-x="0" 
 />
    <glyph glyph-name="nonmarkingreturn" horiz-adv-x="461" 
 />
    <glyph glyph-name="space" unicode=" " horiz-adv-x="461" 
 />
    <glyph glyph-name="exclam" unicode="!" horiz-adv-x="121" 
d="M35 243q0 10 0.5 32t0.5 49v116q0 28 -0.5 49.5t-0.5 32.5q-1 8 -3 33t-6 58t-8 71t-8 71t-6.5 58t-3.5 33q0 1 -0.5 6t-0.5 7q0 9 4 16t14 7q12 0 18 -13q7 -73 15 -151.5t15 -159.5t11.5 -161.5t4.5 -155.5q0 -21 -24 -21q-10 0 -17 4t-5 19zM46 40q0 10 7.5 14.5
t15.5 4.5q16 0 20.5 -8t4.5 -22q0 -10 -3 -20t-15 -10q-7 0 -12.5 4.5t-9.5 11.5t-6 14t-2 11z" />
    <glyph glyph-name="quotedbl" unicode="&#x22;" horiz-adv-x="175" 
d="M77 715q5 10 16 10q15 0 25.5 -16t16 -36.5t8.5 -41t3 -28.5q0 -11 -8 -15t-17 -4q-14 0 -20 6zM30 725q2 3 8.5 -7.5t13 -27.5t12 -37t7 -37.5t-2.5 -30t-16 -12.5q-7 0 -13.5 1.5t-8.5 11.5l-13 115v7q0 7 1.5 10t11.5 7z" />
    <glyph glyph-name="numbersign" unicode="#" horiz-adv-x="770" 
d="M190 194q-26 0 -49.5 -4.5t-48.5 -4.5h-6l-11 11t-11 12q8 24 23 31t33.5 7t37 -1.5t34 5t25.5 27t10 65.5q0 2 -0.5 8.5t-0.5 8.5q-24 -3 -46 -10.5t-44.5 -16t-44.5 -15t-45 -6.5h-7q-5 0 -10 1t-8.5 4t-3.5 8q0 3 1.5 8t3.5 10l4 10t4 7q9 2 32 7t48.5 10.5t48.5 10
t33 7.5q2 1 7 2.5t10.5 3.5t10 3.5t6.5 2.5q3 2 7.5 6t4.5 6l23 185q0 1 2 2l2 1q9 0 13.5 -11t4.5 -15v-161q11 0 31.5 2t44 4.5t48.5 6.5t45 7.5t33.5 7t13.5 6.5v165l6 -1q7 0 14 -1t13.5 -4.5t6.5 -8.5v-150q9 0 32.5 1.5t49 3.5t48.5 3.5t32 1.5h14q13 0 25 -5.5
t20 -17.5q-16 -19 -31.5 -27t-39.5 -8q-11 0 -17.5 2t-12.5 4.5t-13 4.5t-19 2q-5 0 -19.5 -0.5t-30 -1.5t-27 -4t-11.5 -6v-95q5 0 20.5 1.5t35.5 3.5t41 2.5t38.5 -0.5t29 -5.5t11.5 -12.5q0 -5 -3 -11t-10 -7q-5 -1 -29 -4t-53 -5.5t-53 -5t-28 -1.5q-1 -10 -2.5 -36.5
t-3.5 -56t-3.5 -55.5t-2.5 -37q0 -8 0.5 -20t-1.5 -23t-9.5 -18.5t-23.5 -7.5q-13 11 -18.5 25.5t-4.5 30t7 30.5t16 29q0 8 -0.5 28t-1.5 41.5t-1.5 41t-0.5 27.5q-2 0 -4 1t-4 0q-14 -2 -42.5 -7t-58 -10.5t-54 -10.5t-30.5 -6q-34 -7 -50.5 -33t-22.5 -59.5t-6 -68
t-2 -59.5q-10 -8 -18.5 -11t-19.5 -3q0 51 6.5 99t6.5 97zM283 372q-10 -5 -15 -19t-7.5 -30.5t-2.5 -32.5v-25q6 0 25.5 3.5t45.5 8t55 10t53.5 10.5t40 9.5t15.5 6.5v85q-51 0 -106.5 -8t-103.5 -18z" />
    <glyph glyph-name="dollar" unicode="$" horiz-adv-x="394" 
d="M35 58q0 2 -0.5 8t-1 12.5t-0.5 11.5v9q0 8 0.5 21.5t4 26t11.5 21.5t22 9q0 -18 -7 -34t-7 -33q0 -16 8 -28t20 -19.5t27 -10.5t27 -3v264q-15 15 -35 32.5t-38 37.5t-31 43t-13 49q0 11 2.5 18t10.5 16q5 7 19.5 22t31.5 32t32 31.5t21 20.5q22 5 41.5 12.5t38.5 15.5
t39 13t44 5q15 0 27 -0.5t20.5 -5t13.5 -14.5t5 -28q-19 0 -33 6.5t-33 6.5q-35 0 -67 -14.5t-60 -31.5v-10q0 -7 -0.5 -14t-0.5 -13v-9q0 -26 0.5 -47t1.5 -41t3.5 -43.5t5.5 -55.5q12 -18 32 -28.5t39 -17.5v267q0 7 5.5 9.5t10.5 2.5q11 0 18 -12q0 -11 -0.5 -37
t-0.5 -56t0.5 -56t0.5 -37q2 -39 8.5 -64.5t15.5 -42.5t19.5 -29t19 -24.5t14.5 -29.5t6 -43q0 -37 -19.5 -64.5t-49 -46.5t-64.5 -29t-66 -10q-17 0 -37 3.5t-39 11t-35.5 18.5t-27.5 26zM184 197q0 -4 -0.5 -16.5t-1 -29.5t0.5 -35.5t5 -33.5t11.5 -25.5t20.5 -10.5
q10 0 20.5 1.5t18.5 6t13.5 12t5.5 18.5q0 37 -1.5 68.5t-10 57.5t-27.5 45.5t-54 34.5q0 -6 -0.5 -19t-0.5 -28v-46zM69 469q0 -16 7 -29.5t17 -26t22.5 -22.5t23.5 -19v78q0 15 -1 29t-4 30t-7 35q0 1 -3 1h-3q-11 0 -20.5 -8t-16.5 -19.5t-11 -25t-4 -23.5zM312 185
q0 -8 -1 -18t-1 -21.5t1 -22.5t4 -20l1.5 8t3.5 16t3.5 15t1.5 9q0 13 -0.5 24t-12.5 22v-12z" />
    <glyph glyph-name="percent" unicode="%" horiz-adv-x="568" 
d="M260 35q0 3 0.5 11.5t0.5 11.5q4 12 10 37.5t14 57.5t17 67.5t17 67t14 57t9 37.5q7 32 9.5 49t2.5 31.5t-1.5 31.5t-1.5 49q-30 0 -49 -13.5t-33.5 -34.5t-26 -44.5t-25 -44.5t-32 -34.5t-46.5 -13.5q-19 0 -29.5 10t-16.5 25t-9.5 31t-7.5 29q-6 13 -16 20.5t-19.5 14
t-17 16.5t-7.5 31q0 17 17 33.5t40.5 29.5t48.5 20.5t40 7.5q23 0 40.5 -11t30 -24t20.5 -24.5t13 -11.5q2 0 4 0.5t3 0.5l116 59h32l-125 -603q-2 -8 -7.5 -10.5t-10.5 -2.5q-7 0 -11 3.5t-5.5 9t-1.5 11.5v12zM399 86q0 59 22.5 104.5t59.5 87.5q1 0 3 0.5t3 0.5
q21 0 32 -13.5t16 -32t5.5 -38.5t0.5 -33q0 -19 -3.5 -45t-13.5 -50t-27 -40.5t-44 -16.5q-15 0 -25 7t-16.5 18.5t-9.5 25t-3 25.5zM446 91q0 -7 -0.5 -18.5t12.5 -14.5q18 12 27.5 25.5t14 29t5.5 33t1 37.5q0 7 -0.5 21.5t-1.5 15.5l-11 12q-21 -33 -34 -67.5t-13 -73.5z
M202 475q-36 0 -57 -16.5t-21 -54.5q15 0 29 6t27 15.5t22 22.5t13 27h-13zM197 580q-10 0 -18 -8.5t-13.5 -19.5t-8.5 -23.5t-3 -20.5q10 0 21 2t20.5 7t15.5 12.5t6 18.5q0 10 -3 21t-17 11zM64 527q0 -10 7.5 -14.5t16.5 -4.5q3 0 6.5 0.5t4.5 0.5l34 59q-1 0 -2.5 0.5
t-3.5 0.5q-6 0 -16 -3.5t-20.5 -9t-18.5 -13.5t-8 -16z" />
    <glyph glyph-name="ampersand" unicode="&#x26;" horiz-adv-x="469" 
d="M133 35q6 25 14.5 56.5t15.5 66.5t12.5 70.5t5.5 67.5q0 23 -12 38t-30.5 27t-40 22.5t-40 22t-30.5 25t-12 32.5q0 2 0.5 6t0.5 6q17 18 42.5 46t55 54t61.5 44.5t62 18.5q2 0 7 -5t5 -8v-51q0 -55 -6.5 -109t-6.5 -109v-19q0 -12 1 -13l93 -92q0 -1 3.5 -1.5t5.5 -0.5
q13 0 23 6t19.5 13t19 13t21.5 6q25 0 25 -25q0 -14 -8.5 -20t-20 -11t-24 -10.5t-18.5 -16.5l81 -81q2 -1 -2.5 -10t-9.5 -13q0 -1 -6 -1h-4q-1 0 -1 1q-5 4 -16 14t-24 21.5t-24.5 21.5t-16.5 13q-2 2 -11 6t-12 5q-9 -6 -24 -21t-32.5 -33t-36 -37.5t-35.5 -35t-31 -26
t-22 -10.5h-3q-1 0 -2 1q-1 2 -3 7l-4 10t-3.5 10t-1.5 8zM86 463q24 -26 50.5 -49t55.5 -42q1 9 4 33.5t6.5 52.5t7 52.5t5.5 33.5v7q0 10 -3.5 19.5t-13.5 9.5q-16 0 -35.5 -12.5t-36 -30.5t-28.5 -38t-12 -36zM226 278q-14 -16 -21 -37t-10 -43t-3.5 -45t-0.5 -43
q0 -2 0.5 -9t0.5 -8l115 104z" />
    <glyph glyph-name="quotesingle" unicode="'" horiz-adv-x="99" 
d="M35 371q-1 11 -2.5 41t-3.5 63t-3.5 63t-2.5 42l-0.5 6t-0.5 8q9 0 20.5 -2.5t15.5 -11.5q4 -27 6.5 -46.5t3.5 -38t1.5 -37t0.5 -41.5v-11q0 -8 -0.5 -17.5t-0.5 -17.5v-12q-6 -13 -18 -13q-9 0 -12 7t-4 18z" />
    <glyph glyph-name="parenleft" unicode="(" horiz-adv-x="192" 
d="M152 -15q-35 23 -60 61.5t-41 86t-23 101.5t-6.5 108.5t8.5 106t22.5 95t36 75.5t48.5 46v-22q-11 -43 -24.5 -82.5t-25.5 -78.5t-20.5 -79t-8.5 -84q0 -58 3.5 -95t15.5 -66.5t35.5 -60.5t62.5 -77q0 -2 0.5 -4t0.5 -3t-0.5 -3t-0.5 -3q-3 -4 -12 -12.5t-11 -9.5z" />
    <glyph glyph-name="parenright" unicode=")" horiz-adv-x="215" 
d="M85 -10q0 16 11.5 34.5t24.5 40t24.5 46t11.5 52.5q0 32 -8 79.5t-21 96.5t-30.5 92.5t-36.5 68.5q-9 11 -25 27t-31.5 34t-27 36.5t-11.5 37.5q31 1 61.5 -27t57 -72t47.5 -98.5t36 -107t21 -98t3 -70.5q0 -56 -23.5 -109.5t-70.5 -86.5q-10 2 -11.5 9t-1.5 15z" />
    <glyph glyph-name="asterisk" unicode="*" horiz-adv-x="400" 
d="M30 336q-10 0 -12 9.5t-2 14.5q0 18 15 20t32.5 0.5t32.5 -1.5t15 14q0 16 -9.5 30t-21.5 27.5t-21.5 28.5t-9.5 34q18 0 30.5 -15t22.5 -33.5t21.5 -33t27.5 -14.5h6q2 7 10 25.5t17 38.5t18 38t13 25q2 3 10 12t13 12h1q1 0 2 0.5t2 0.5q8 0 13.5 -5.5t5.5 -13.5
q0 -17 -9 -34t-20 -34.5t-20 -36t-9 -37.5q41 0 78.5 4.5t77.5 4.5q7 0 12.5 -5t5.5 -13q0 -5 -11 -9t-27.5 -7.5t-36.5 -6.5l-40 -6t-36 -5.5t-25 -5.5q24 -29 55.5 -51t70.5 -22q0 -14 -7 -28.5t-25 -14.5q-21 0 -36.5 11t-29.5 24.5t-28.5 27t-33.5 18.5
q-2 -6 -6.5 -25.5t-13.5 -40.5t-22.5 -37.5t-31.5 -16.5q0 18 4 34.5t9 32.5t8.5 32t3.5 33h-89z" />
    <glyph glyph-name="plus" unicode="+" horiz-adv-x="423" 
d="M136 273q-25 0 -48.5 -6.5t-47.5 -6.5t-24 23q0 3 0.5 8.5t2 10t4 8t7.5 3.5h103q2 0 6 6.5t6 10.5v5q0 46 -6.5 91.5t-6.5 92.5q18 0 28 -23.5t15.5 -54.5t8 -63t8.5 -48h10q52 0 100.5 8t101.5 8q0 -19 -11.5 -28.5t-30.5 -14t-42.5 -5t-47 -1.5t-45 -3.5t-35.5 -10.5
q6 -36 9.5 -74t3.5 -76h-37l-2 10q-1 11 -3 26t-4 30.5t-2 26.5q-1 6 -1 14.5t-1.5 15.5t-5.5 12t-13 5z" />
    <glyph glyph-name="comma" unicode="," horiz-adv-x="167" 
d="M100 -34q0 40 -6.5 64t-15.5 37.5t-20 19t-20 9t-15.5 8.5t-6.5 17q0 23 10.5 27t31.5 4q27 0 44.5 -19t27 -46t13 -56.5t3.5 -52.5q0 -21 -3 -52t-12 -60t-25.5 -49.5t-44.5 -20.5q0 22 6 42t13.5 40t13.5 41.5t6 46.5z" />
    <glyph glyph-name="hyphen" unicode="-" horiz-adv-x="507" 
d="M50 447q23 4 53.5 6t62.5 4t62 3.5t53 2.5q2 0 14.5 0.5t28 1t31.5 0.5h45q14 0 29.5 -0.5t29 -1t19.5 -0.5q4 -1 8.5 -9.5t3.5 -13.5q0 -4 -9 -13t-14 -9q-12 0 -36 0.5t-56 0.5h-130q-31 0 -55 -0.5t-36 -0.5q-20 -2 -40 -3t-40 -3q-2 0 -7.5 -0.5t-11.5 -1t-11.5 -1
t-7.5 -0.5q0 9 2 22t12 16z" />
    <glyph glyph-name="period" unicode="." horiz-adv-x="121" 
d="M22 41q0 17 9 29t26 12q16 0 26.5 -6t10.5 -24q0 -20 -13.5 -37t-34.5 -17q-8 0 -13 4.5t-7.5 11t-3 14t-0.5 13.5z" />
    <glyph glyph-name="slash" unicode="/" horiz-adv-x="248" 
d="M11 29q0 8 3.5 14.5t9.5 14.5l162 533q1 7 13 16.5t21 9.5v-37q-6 -19 -17.5 -58t-27.5 -88l-62 -207q-14 -50 -25.5 -88.5t-17.5 -57.5q-3 -11 -4 -22.5t-4 -23t-8.5 -21t-18.5 -14.5q-2 1 -5 4l-15 14q-2 4 -3 5q-1 2 -1 3v3z" />
    <glyph glyph-name="zero" unicode="0" horiz-adv-x="406" 
d="M28 242q0 66 3 120t21 92t57 59t111 21q79 0 123.5 -39.5t44.5 -122.5q0 -35 -5.5 -75.5t-17.5 -82t-31 -80.5t-46 -69t-62.5 -48t-80.5 -18q-30 0 -50 12.5t-33 33.5t-20 47t-10 53t-3.5 52t-0.5 45zM63 231q0 -22 2 -54t10 -61.5t25 -50t48 -20.5q54 0 93.5 29.5
t64 74.5t36.5 97t12 97q0 35 -5 64t-19 49.5t-39.5 31.5t-64.5 11q-60 0 -92.5 -23t-48.5 -61.5t-19 -86.5t-3 -97z" />
    <glyph glyph-name="one" unicode="1" horiz-adv-x="116" 
d="M52 12q-1 14 -2.5 44t-4 67.5t-5 79.5t-5 79t-3.5 67.5t-2 44.5q-3 41 -8.5 79.5t-5.5 78.5q13 0 25 -7.5t11 -22.5q2 -18 5.5 -55t8 -84t10 -99t10 -98.5t8 -84t5.5 -55.5v-6q0 -5 -2.5 -11.5t-6.5 -13.5t-9 -11.5t-11 -4.5q-12 0 -18 13z" />
    <glyph glyph-name="two" unicode="2" horiz-adv-x="475" 
d="M229 463q0 4 -0.5 12t-1 17.5t-1 17.5t-0.5 12q-3 10 -9 11t-14 1q-20 0 -35.5 -9.5t-27.5 -24t-22.5 -31t-21.5 -31t-23 -24t-28 -9.5q-5 0 -10.5 0.5t-10 2t-7 6.5t-0.5 14q19 30 37.5 55.5t40.5 44.5t50 30.5t65 11.5t50 -24t13 -59q0 -50 -14.5 -104.5t-36 -108
t-46 -103.5t-43.5 -90v-12l290 93q1 0 5.5 0.5t6.5 0.5q7 0 14 -1.5t9 -10.5q1 -4 2 -11l2 -14q1 -8 1 -16h-109l-269 -107q0 60 22.5 116t49.5 112.5t49.5 113t22.5 118.5z" />
    <glyph glyph-name="three" unicode="3" horiz-adv-x="388" 
d="M157 0q-18 0 -21 13t-4 27q0 9 0.5 19t3.5 19t9 16t17 10v-55l12 -2q4 -1 9 -1.5t9 0.5q30 5 54 22.5t40.5 42t25 53t8.5 56.5v9q0 8 -0.5 15t-0.5 13.5v8.5q-10 16 -25.5 20.5t-31.5 4.5q-33 0 -62.5 -13.5t-56 -30.5t-49 -30.5t-42.5 -13.5v53q6 9 18 27.5t27 42.5
t31 50.5t31 50.5t26.5 43.5t16.5 28.5q3 3 8 13l20 41q6 10 8 15q-3 1 -11.5 1.5t-11.5 0.5q-24 0 -45.5 -11.5t-42 -25t-40.5 -24.5t-41 -11q-12 0 -21 5t-9 18q0 14 16.5 26.5t41 22.5t55 19t59 14.5t51.5 9t34 3.5q7 0 20 -0.5t14 -0.5q3 -1 7.5 -5.5t4.5 -6.5
q0 -1 -4.5 -10t-7.5 -13q-4 -7 -16.5 -26.5t-29 -46t-35.5 -56t-35.5 -55.5t-29.5 -46t-16 -26q-2 -3 -6 -11.5t-6 -11.5q20 9 35 13.5t29 7t28.5 3t33.5 0.5q49 0 78.5 -20t29.5 -72q0 -42 -15.5 -84t-44 -75.5t-67 -53.5t-83.5 -20z" />
    <glyph glyph-name="four" unicode="4" horiz-adv-x="458" 
d="M256 12q0 6 -2 21t-4 31.5t-3.5 31.5t-2.5 20q-3 16 -3.5 25t-1.5 14t-5.5 6.5t-15.5 1.5q-24 0 -46.5 -7.5t-44.5 -16.5t-43.5 -16.5t-43.5 -7.5q-10 0 -19.5 9.5t-9.5 20.5q0 1 0.5 3t0.5 3q57 78 104 162t81 174q-4 18 0.5 33t24.5 15q10 0 15 -4.5t7 -21.5l23 -253
q2 -26 4.5 -31t15.5 -5q16 0 33 3.5t32.5 8.5t31 8.5t29.5 3.5q13 0 21.5 -11.5t8.5 -23.5q0 -7 -2.5 -13.5t-11.5 -10.5q-35 3 -75.5 1.5t-75.5 -11.5v-8q0 -31 7 -61t7 -62v-13t-1 -15t-5 -12t-13 -5q-11 0 -17 13zM93 183q11 0 35 2.5t47.5 8t40.5 12t16 14.5l-23 186
l-116 -209v-14z" />
    <glyph glyph-name="five" unicode="5" horiz-adv-x="400" 
d="M121 40q0 15 5 29.5t19 23.5q3 -16 6.5 -25.5t9 -14t14.5 -6.5t23 -2q24 0 50 11t47 30t34.5 43.5t13.5 50.5q0 35 -16 60t-41 42t-56 24.5t-62 7.5q-16 0 -30.5 -3.5t-29 -8.5t-28 -8.5t-29.5 -3.5q-7 0 -13 1t-8 10q-1 9 -2.5 32t-3.5 49t-4 49t-3 32v14q0 7 1 12.5
t12 9.5q23 2 49.5 5.5t54 8.5t54 13t50.5 18q0 1 5.5 4.5t11.5 7.5t11 7.5t7 4.5q4 3 13 7.5t10 4.5q18 0 20.5 -8t2.5 -20q0 -8 -0.5 -17.5t-11.5 -12.5l-231 -61v-121q27 0 60 0.5t67 -2t65.5 -11t55.5 -25t39 -44.5t15 -70q0 -39 -16 -73t-43 -59.5t-61.5 -41
t-72.5 -15.5q-10 0 -22 1.5t-21 6t-15 12t-6 21.5z" />
    <glyph glyph-name="six" unicode="6" horiz-adv-x="393" 
d="M28 277q0 67 7.5 130t28.5 127h3l2 1q10 0 17 -8.5t12 -17.5q-20 -56 -27.5 -117t-7.5 -120q0 -16 1.5 -38.5t6 -48t11.5 -50t19.5 -45t30 -33t42.5 -12.5q1 0 8 0.5t9 0.5q11 36 22.5 72t26.5 69t35.5 60.5t52.5 48.5q27 -1 39.5 -22.5t12.5 -54.5t-13 -71t-37.5 -71
t-59.5 -55t-79 -22q-34 0 -60 13.5t-44 35.5t-29.5 51t-18.5 60t-9 61t-2 56zM260 104q0 -10 3.5 -17t13.5 -7q2 0 4 0.5l2 0.5q18 22 33 45t23 45t8 38.5t-11 23.5q-14 0 -27.5 -16t-24 -37.5t-17.5 -43t-7 -32.5z" />
    <glyph glyph-name="seven" unicode="7" horiz-adv-x="446" 
d="M289 242q-17 0 -34 -3.5t-33.5 -7.5t-33 -7.5t-33.5 -3.5q-19 0 -24.5 14t-5.5 31h23.5t36 2t41 5.5t39 9t27.5 13t9 18.5q1 12 2.5 41.5t4 63t3.5 63t2 41.5q0 2 -0.5 5t-0.5 5q-32 0 -63.5 -5.5t-63.5 -12t-64.5 -11.5t-64.5 -5h-15q-6 0 -12 2t-10.5 7t-6.5 15
q-1 4 4 12.5t8 9.5q42 -4 82.5 1t80.5 13t80 15t82 7q24 0 24 -24q-20 -60 -23.5 -126t2.5 -133q3 0 11 1t16.5 2t16 1.5t11.5 -0.5q2 0 6.5 -4.5t4.5 -6.5q-1 -2 -5 -6.5t-6 -5.5q-5 -2 -15 -5t-20.5 -6.5l-21 -7t-13.5 -3.5l-36 -244q0 -6 -5 -9t-12 -4.5t-13 -2t-7 -0.5
q0 31 4 62t8.5 61t8.5 61t4 62z" />
    <glyph glyph-name="eight" unicode="8" horiz-adv-x="365" 
d="M80 101q0 50 13 96.5t34 92.5q-30 -7 -49.5 -4t-32 15t-18 31.5t-5.5 44.5q0 9 1 33t7 53t18 59t34.5 52t56 31.5t81.5 -2.5q20 0 32 -12.5t17.5 -30.5t7.5 -37.5t2 -32.5q0 -15 -3.5 -28.5t-8.5 -26t-8.5 -25.5t-3.5 -28q0 -1 0.5 -5t0.5 -5q45 -36 63 -77.5t18 -98.5
q0 -35 -18 -69.5t-46 -63t-63 -46t-71 -17.5q-22 0 -34 10t-17.5 24.5t-6.5 32.5t-1 34zM114 100q0 -24 4 -39.5t30 -15.5q28 0 56 14.5t49.5 37t35 50.5t13.5 56q0 11 -3.5 32t-11.5 40.5t-20 34.5t-29 15h-5q-2 0 -2 -1l-44.5 -44.5t-38.5 -47t-26.5 -57.5t-7.5 -75z
M57 388q0 -11 1 -22t6 -20.5t13 -15.5t22 -6q27 0 53 17t47 42.5t33.5 55t12.5 54.5v8q0 6 -0.5 12.5t-1 12t-0.5 8.5q-18 23 -36.5 29.5t-47.5 6.5t-48.5 -19.5t-31.5 -48t-17 -60t-5 -54.5z" />
    <glyph glyph-name="nine" unicode="9" 
d="M312 39q0 33 4 66t8.5 65t8.5 65t4 66v18v18q-7 -6 -20.5 -16.5t-30.5 -23.5t-36 -26.5t-36 -26t-31 -22.5t-20 -14q-24 -15 -41 -19.5t-40 -4.5q-37 0 -54 20.5t-17 55.5q0 26 13.5 56.5t35.5 61.5t50.5 59t59 50t60 35t54.5 13q17 0 38 -6t40 -18t32 -28.5t13 -36.5v-6
q-2 -4 -6.5 -17t-6.5 -17l-46 -383l-23 -23q-6 1 -9 6.5t-4 11.5t-0.5 12t0.5 9zM47 256q0 -4 4.5 -13t6.5 -11q4 -1 15 -1.5t14 -0.5q23 0 50.5 8.5t55 24t54 36t47 43.5t32.5 48t12 50v7q0 6 -0.5 11t-0.5 10v7q-12 12 -25 13t-28 1q-37 0 -78.5 -22t-76.5 -56
t-58.5 -75.5t-23.5 -79.5z" />
    <glyph glyph-name="colon" unicode=":" horiz-adv-x="180" 
d="M39 147q0 10 3 24.5t9.5 27.5t16.5 22t24 9q11 0 20.5 -5t17.5 -13t12.5 -18t4.5 -19q1 -10 -6.5 -23.5t-19 -25.5t-24 -19t-21.5 -6q-20 0 -28.5 14t-8.5 32zM26 376q0 16 5.5 31.5t16 28t24 20t31.5 7.5q9 0 15 -4.5t9 -11.5t4 -15.5t1 -14.5q0 -14 -5.5 -26.5
t-16 -22.5t-23 -16t-26.5 -6q-12 0 -23.5 8t-11.5 22z" />
    <glyph glyph-name="semicolon" unicode=";" horiz-adv-x="181" 
d="M104 -217q9 11 13.5 19.5t7 16.5t3 17t0.5 21q0 18 -3.5 36t-20.5 30q-10 -22 -22 -29.5t-31 -7.5q-17 0 -23 9.5t-6 26.5q0 12 3 28.5t9.5 30.5t18 24t28.5 10q20 0 37 -17t29.5 -41t20 -49.5t7.5 -43.5q0 -10 -2.5 -26t-8 -31t-15 -26t-22.5 -11q-7 0 -13.5 1.5
t-9.5 11.5zM22 247q0 9 4.5 21t12.5 22.5t17 18.5t19 8q19 0 30 -12t11 -29q0 -12 -2 -25.5t-8.5 -25.5t-16.5 -19t-24 -7q-21 0 -32 13.5t-11 34.5z" />
    <glyph glyph-name="less" unicode="&#x3c;" horiz-adv-x="388" 
d="M34 122q-10 2 -11 10t-1 14q0 17 10 36.5t25.5 42t33.5 47.5t33.5 51.5t26 54.5t10.5 58h3h2q16 0 17.5 -12t1.5 -23q0 -18 -1 -28.5t-10 -29.5q-6 -10 -19.5 -35t-28 -52.5t-28 -52.5t-18.5 -34q3 -1 9 -2.5l14 -3.5t14 -4t9 -2q13 -1 46 -6.5t70 -11t70 -10.5t46 -7
q10 -2 12 -8.5t2 -13.5q0 -24 -25 -24q-10 0 -18 2t-18 10z" />
    <glyph glyph-name="equal" unicode="=" horiz-adv-x="388" 
d="M28 163q0 11 4 16.5t19 5.5h302q7 0 9.5 -6t2.5 -12q0 -10 -9 -19t-20 -9q-12 0 -18 12h-52q-55 0 -108.5 -6t-108.5 -6q-21 0 -21 24zM51 301q-11 6 -11 18v2v3q56 6 102 9.5t98 3.5h24q15 0 30 -2.5t26 -9t11 -18.5q0 -10 -7 -13.5t-16 -3.5q-36 0 -66 2.5t-58.5 5.5
t-60.5 4t-72 -1z" />
    <glyph glyph-name="greater" unicode="&#x3e;" horiz-adv-x="307" 
d="M100 63q0 3 0.5 9t1.5 8l51 51q17 17 32 32.5t20 21.5q4 4 8 9.5t7.5 11t5.5 9.5l3 5l-221 208h35l90 -67q25 -19 51 -38.5t49.5 -37.5t40.5 -30q8 -7 10.5 -9t2.5 -9l-1 -3v-3q-2 -3 -6 -12t-6 -11l-150 -174q-2 -1 -3 -1h-2q-13 0 -16 10t-3 20z" />
    <glyph glyph-name="question" unicode="?" horiz-adv-x="365" 
d="M308 469q0 18 -7.5 32.5t-19.5 24t-27.5 14.5t-32.5 5q-31 0 -54.5 -7.5t-43 -21t-36 -33t-35.5 -43.5q-2 0 -6 -0.5t-6 -0.5q-8 0 -16 4.5t-8 14.5q0 31 23.5 54t56 38t67 22.5t56.5 7.5q63 0 93.5 -29.5t30.5 -92.5q0 -41 -14.5 -78.5t-34.5 -73t-39 -71t-29 -73.5
q-2 -7 -9 -10.5t-15.5 -4t-15.5 -0.5h-10q0 30 10 57t24.5 52.5t31.5 50t31.5 50t24.5 53t10 59.5zM215 23q-3 9 -0.5 14t7 7.5t10.5 3t10 0.5q10 0 20.5 -3t10.5 -16q0 -5 -4 -10.5t-10 -10t-12 -7t-9 -1.5q-5 1 -13.5 10t-9.5 13z" />
    <glyph glyph-name="at" unicode="@" horiz-adv-x="493" 
d="M22 156q0 37 11.5 79.5t31.5 85.5t47.5 83.5t61.5 72t71.5 49.5t78.5 18q35 0 59.5 -22t40 -56t24.5 -77t13 -83.5t5 -76t1 -54.5h-39q-1 9 -1.5 21.5t-2 25t-5 24t-11.5 19.5q-7 -12 -19 -30t-27.5 -38.5t-33.5 -41t-35.5 -37t-33.5 -27t-28 -10.5q-18 0 -31 10
t-21.5 24.5t-12.5 32t-4 32.5q2 27 11.5 57.5t24 60.5t35 56.5t44.5 45t50.5 27t54.5 1.5q3 0 7.5 4.5t4.5 7.5q0 13 -7 23.5t-18 18.5t-23.5 12.5t-23.5 4.5q-55 0 -103 -34t-84 -85t-57 -110t-21 -108q-3 -41 13.5 -68t44.5 -40.5t62 -12.5t66 17q3 0 8 -4.5t5 -7.5
q-18 -23 -45 -34.5t-54 -11.5q-33 0 -58 13.5t-42 35t-26 49.5t-9 58zM208 139q7 -12 18 -12q17 0 35.5 13.5t36 34.5t33 47.5t27.5 52.5t18.5 48.5t6.5 36.5q0 15 -10 25t-26 10q-31 0 -56.5 -24.5t-44 -59t-29 -71t-10.5 -60.5v-9q0 -5 0.5 -11.5t0.5 -12.5v-8z" />
    <glyph glyph-name="A" unicode="A" horiz-adv-x="539" 
d="M24 -47q-9 0 -13 5t-5.5 12.5t-0.5 16t1 13.5l175 742q2 9 8.5 19.5t13.5 15.5q3 -9 9 -18.5t15 -16.5l278 -637q1 -1 1 -5v-6q0 -10 -4 -17.5t-14 -7.5q-13 0 -18 12l-70 162q0 1 -12.5 2.5t-19.5 1.5q-4 0 -11.5 -0.5t-15.5 -1t-14.5 -1.5t-7.5 -1q-23 -4 -59.5 -10.5
t-71.5 -14t-60.5 -13.5t-27.5 -8l-59 -231q-1 -7 -6 -10t-11 -3zM203 673l-2.5 -7.5t-3.5 -10t-3 -10.5t-2 -7q-7 -26 -15 -63l-35 -157q-9 -41 -15.5 -75t-11 -59t-4.5 -32q14 0 39 2t53.5 6.5t58 9.5t53 12t38.5 14.5t15 15.5q0 2 -0.5 6.5t-1.5 6.5z" />
    <glyph glyph-name="B" unicode="B" horiz-adv-x="534" 
d="M195 50q0 9 1.5 18.5t11.5 12.5q4 -9 9.5 -19.5t13.5 -15.5h8q7 0 13 -0.5t12 -0.5h8q34 0 68.5 11.5t62 33.5t44.5 52t17 68t-19.5 66.5t-50 47t-66.5 27.5t-68 9q-4 0 -19.5 -1t-33 -3.5t-31.5 -7t-14 -11.5v-198q0 -7 -6.5 -9.5t-10.5 -2.5q-7 0 -13 13.5t-10 34
t-7 45.5t-5.5 48.5t-3.5 41.5t-2 27v103q-1 12 -4 41.5t-6.5 63t-7 63t-5.5 41.5q3 18 -5.5 21t-20.5 2.5t-22.5 1t-10.5 16.5v3q0 1 1 3l58 58h6q7 0 16 0.5t18 0.5h16q30 0 71 -2t77 -12.5t61.5 -34.5t25.5 -68q0 -34 -14.5 -66t-35.5 -61.5t-45.5 -56.5t-45.5 -48
q46 -5 94 -14.5t87 -32t63.5 -58.5t24.5 -93q0 -45 -22.5 -83.5t-57.5 -66t-78.5 -43.5t-86.5 -16q-11 0 -21.5 4t-19 11.5t-14 16.5t-5.5 19zM150 406q30 10 62.5 35t60.5 57.5t46 69.5t18 70q0 28 -19.5 42.5t-45 20.5t-52.5 6.5t-42 0.5h-14q-8 0 -16.5 -0.5t-14 -1
t-6.5 -0.5l-11 -22z" />
    <glyph glyph-name="C" unicode="C" 
d="M16 250q0 19 3 55t10 78.5t18.5 86t29 79t42 58.5t56.5 23q0 -15 -5.5 -25t-13.5 -19t-17 -18.5t-18 -23.5q-18 -32 -31.5 -69.5t-22.5 -76t-12.5 -78t-3.5 -77.5q0 -26 2.5 -55.5t10.5 -57t24 -50t45 -34.5h13q9 0 19 -0.5t19 -0.5h13q12 0 40 2t56.5 8.5t50.5 19
t22 35.5q0 12 -7 22.5t-7 24.5q10 0 21 -4.5t20 -11.5t15 -16.5t6 -20.5q0 -18 -13.5 -33t-35 -27t-48 -20.5t-53 -14t-49 -8t-36.5 -2.5q-51 0 -83 24t-49.5 61t-24 81t-6.5 85z" />
    <glyph glyph-name="D" unicode="D" horiz-adv-x="499" 
d="M184 29q0 3 19.5 10t48 18.5t62 28.5t62 41t48 56t19.5 73q0 28 -17 62.5t-44 68.5t-62.5 66.5t-71.5 57.5t-70.5 40t-60.5 15q0 -59 5.5 -117.5t11.5 -117.5t11.5 -117.5t5.5 -118.5q0 -13 -2.5 -21t-21.5 -16l-11 11l-47 511q-2 0 -9.5 4.5t-15.5 10t-15 12.5t-7 13
t9.5 15t21.5 17.5t23 15t16 6.5q15 0 18.5 -7t3.5 -16.5t1 -20t12 -15.5q35 -20 74 -41.5t78.5 -47t75 -54.5t62.5 -63.5t43 -74t16 -86.5q0 -44 -24 -88.5t-61 -80t-82.5 -58t-88.5 -22.5q-13 0 -24.5 8t-11.5 22z" />
    <glyph glyph-name="E" unicode="E" horiz-adv-x="469" 
d="M40 499v126q2 1 9 1.5t9 0.5q10 0 14 -4t6 -8.5t4.5 -8.5t9.5 -4q16 0 40.5 6.5t51.5 14.5t53.5 15.5t45.5 10.5h8q12 0 20.5 -5.5t8.5 -18.5q0 -1 -0.5 -5t-0.5 -5q-26 -2 -59 -6t-66.5 -12.5t-62 -23.5t-45.5 -39v-66q0 -23 0.5 -50t2 -52t4 -45.5t6.5 -30.5l255 104
q21 -2 28.5 -5t6.5 -8t-8.5 -10.5t-15.5 -11.5q-14 -6 -50 -22.5t-77 -35t-77 -35t-50 -23.5q-8 -1 -10.5 -6t-3 -11t0 -12.5t0.5 -9.5q0 -29 7 -57t7 -58q0 -13 -9 -24.5t-30 -11.5zM446 104q-9 -2 -27.5 -7.5t-43 -12.5t-51 -14.5t-50.5 -14t-43.5 -12t-28.5 -8.5
q-23 -7 -33.5 -12.5t-18 -9t-17 -5t-30.5 -1.5q0 24 4.5 34.5t25.5 16.5l299 83z" />
    <glyph glyph-name="F" unicode="F" horiz-adv-x="359" 
d="M35 544q-10 4 -11.5 10.5t-1.5 13.5q0 12 3 22.5t10 24.5q30 -2 59 -0.5t58 4.5t58 5.5t59 2.5q8 0 18.5 0.5t21 0t21 -3.5t17.5 -9q1 0 1 -3v-6q0 -2 -1 -3q-7 0 -25 -2t-38 -3.5t-38 -3.5t-26 -3q-11 -2 -32.5 -4.5t-43.5 -8t-40 -13.5t-23 -21v-10q0 -8 -0.5 -17.5
t-0.5 -17.5v-12q0 -32 0.5 -55.5t2 -48t3.5 -52t6 -65.5h12l220 79v-32l-232 -105q-1 -8 -1 -15v-21q0 -37 6.5 -72t6.5 -72v-5q-1 -1 -4 -5l-7 -7q-4 -4 -7.5 -7t-4.5 -4q-11 5 -17 21.5t-6 24.5z" />
    <glyph glyph-name="G" unicode="G" horiz-adv-x="516" 
d="M438 86q-27 -20 -53 -36t-53.5 -26.5t-57 -15t-63.5 -4.5q-50 0 -86 17t-59.5 47t-34.5 70.5t-11 88.5q0 53 9 117.5t29.5 128t54 118.5t82.5 88h5.5h5.5q10 0 17 -4t7 -14q0 -2 -0.5 -4t-0.5 -3q-45 -39 -77.5 -88t-54 -103.5t-32 -113t-10.5 -118.5q0 -41 10.5 -76
t32.5 -61t54 -40t74 -14q10 0 29.5 4t43.5 11t49 17.5t44.5 23.5t32.5 28t13 33v190q-3 0 -13 1t-21 2.5t-21 2.5t-14 0q-5 -1 -32 -6.5t-60 -13l-66 -15t-51 -11.5q-2 0 -7 -2t-10.5 -3.5t-11 -3.5t-6.5 -2q-2 -1 -3 -1h-3q-10 0 -13.5 10.5t-3.5 18.5q0 6 2.5 11t9.5 7
l302 58h14h19q5 0 13 1t15.5 0t13.5 -5.5t6 -13.5v-5l-12 -58v-402q-30 0 -35 31q-1 8 -3 27.5t-4 42t-3.5 41.5t-1.5 27z" />
    <glyph glyph-name="H" unicode="H" horiz-adv-x="418" 
d="M36 213q-14 7 -19 14.5t-5 19.5q0 15 7 22t22 13v348h35v-345q3 0 9 -1t12 -1t12 -0.5t8 -0.5q9 1 32.5 6t49 10.5t48.5 10.5t32 8q0 2 0.5 9t0.5 9q0 41 -3.5 83t-8.5 83.5t-8.5 82.5t-3.5 84q7 0 19 -2.5t17 -12.5q0 -78 7 -162.5t27 -161.5q17 1 20.5 -5.5t3.5 -16.5
q0 -11 -2 -19t-11 -17l10 -30t14.5 -45.5t14 -45.5t8.5 -30v-11q0 -9 -3.5 -16.5t-13.5 -7.5q-7 0 -10.5 2.5t-7.5 9.5q-2 6 -7 23t-10 35.5t-10.5 34.5t-7.5 23l-5 15l-8 19q-3 9 -6 16t-3 8q-1 0 -9 1t-11 1q-49 0 -100 -10t-90 -39v-13q0 -9 -0.5 -18.5t-0.5 -19.5v-13
q0 -33 1 -61.5t12 -59.5q0 2 2.5 11.5t6.5 20t9 19t10 8.5h4q2 0 3 -1q0 -6 -2 -21t-4 -31.5t-3.5 -31.5t-2.5 -20t-3 -10.5t-6.5 -11.5t-9 -10t-10.5 -4q-12 0 -20 13t-12.5 29.5t-6 32t-1.5 18.5q-1 9 -3 32t-3.5 49t-3.5 49t-2 33z" />
    <glyph glyph-name="I" unicode="I" horiz-adv-x="121" 
d="M58 12q-1 19 -5 60.5t-8.5 94.5t-10 111t-10 110.5t-8 94.5t-4.5 61v7q0 5 -0.5 11.5t-0.5 12.5v18q0 6 0.5 12.5t0.5 11.5v8q2 10 9 12t14 2q2 0 6 -0.5t6 -0.5l46 -557q1 -3 2.5 -9t4 -14t3.5 -14t2 -9v-6q0 -6 -4 -11t-10 -9t-11.5 -6.5t-9.5 -2.5q-3 0 -7.5 4.5
t-4.5 7.5z" />
    <glyph glyph-name="J" unicode="J" horiz-adv-x="406" 
d="M5 127q0 19 8.5 40t26.5 30q-4 -31 3.5 -61t24.5 -53t44 -36.5t62 -13.5q43 0 74.5 21.5t52.5 54t31 72t10 76.5v21l-59 325q-1 4 -1.5 12t3 15.5t11 10.5t23.5 -3q0 -2 4.5 -19.5t10 -45t12 -61.5t12.5 -68.5t11 -66t8 -53.5q5 -53 -3 -110t-32 -105t-67.5 -79
t-108.5 -31q-24 0 -52.5 10t-52 27t-40 40.5t-16.5 50.5z" />
    <glyph glyph-name="K" unicode="K" horiz-adv-x="468" 
d="M47 12q-1 13 -3.5 42.5t-4.5 66t-4.5 77t-4.5 76.5t-4 65.5t-2 42.5q0 3 -0.5 18t-1 34.5t-0.5 37.5v56q0 18 0.5 37.5t1 36.5t0.5 23q4 8 7.5 10.5t8.5 2.5h7l35 -448l162 273q5 9 12 17t17 8q7 0 13 -6t6 -13q0 -1 -0.5 -3t-0.5 -3l-175 -301q4 0 15 -0.5t15 -0.5
q43 0 86.5 4t87 9.5t86.5 9.5t86 4q0 -15 -6 -28t-22 -21q-5 1 -20 1h-64q-15 0 -21 -1q-20 -1 -47.5 -4.5t-57 -7.5t-58.5 -7.5t-52 -6.5t-37 -5.5t-14 -3.5v-81q0 -1 -3 -4l-6 -6l-8 -8q-3 -3 -6 -5q-2 -1 -3 -1h-2q-12 0 -18 13z" />
    <glyph glyph-name="L" unicode="L" horiz-adv-x="487" 
d="M29 23q1 8 2.5 26t3.5 38t3.5 38.5t1.5 25.5q0 16 0.5 49.5t0.5 75.5v178q0 42 -0.5 75.5t-0.5 50.5q4 7 7 9t10 2h7q3 -2 10 -6.5l7 -4.5v-519q3 0 10 -1t15.5 -1.5t16 -0.5h9.5q11 1 32.5 4t49.5 6t58 6.5t57.5 7t49 6.5t32.5 5q14 7 24 9.5t24 2.5q13 0 17.5 -9
t4.5 -20q0 -9 -3.5 -15.5t-8.5 -14.5q-51 5 -102.5 -1t-102.5 -16.5t-101 -19.5t-99 -9q-7 0 -19 8t-16 15z" />
    <glyph glyph-name="M" unicode="M" horiz-adv-x="649" 
d="M13 604v3q2 2 5.5 8t7.5 11.5t7 10t4 4.5q6 3 18 7q5 2 12 2v-56l167 -324l12 12q2 10 10.5 34.5t17.5 52.5t17.5 52t11.5 34q2 5 8.5 18t15 31t18 38t18 38t14.5 31.5t8 17.5q3 6 4.5 18t5 23.5t10.5 20t20 8.5q2 0 3.5 -0.5t2.5 -0.5q5 -1 14 -5.5l9 -4.5l139 -580
q2 -3 5.5 -9t7 -13.5t7 -14t3.5 -9.5q0 -1 0.5 -3t0.5 -4q0 -12 -5.5 -21t-18.5 -9q-10 0 -16.5 4.5t-5.5 19.5l-12 54t-18.5 82t-21.5 96.5t-21.5 96.5t-18.5 82t-13 53q-2 6 -7 21.5t-10 32t-10 31t-8 19.5q-65 -95 -106.5 -206t-67.5 -222q-1 -1 -8.5 -1.5t-9.5 -0.5
q-15 0 -26 16.5t-18.5 38t-12 40.5t-6.5 23q-3 8 -11 24l-62 124q-10 20 -18.5 36.5t-12.5 23.5v-23q2 -18 5.5 -57t8 -88.5t9.5 -103.5t9.5 -103.5l8 -88t5.5 -57.5q5 -17 8.5 -30t3.5 -29q0 -9 -4 -16t-14 -7t-16 10.5t-8.5 23t-3.5 23t-1 12.5q-15 138 -22.5 274
t-23.5 273q-1 6 -4.5 16t-8 20.5t-8 20.5t-3.5 17v4z" />
    <glyph glyph-name="N" unicode="N" horiz-adv-x="574" 
d="M40 461q0 17 -4.5 32.5t-10.5 30t-10.5 29t-4.5 30.5q0 6 3.5 17.5t9 23t11.5 21.5t12 13q3 -1 9.5 -19t13.5 -40.5t13.5 -43t9.5 -24.5q6 -10 20.5 -29.5t32.5 -43.5t38 -50t38.5 -50t33.5 -43t22 -28q3 -4 20 -20t40 -37l45 -40q22 -20 35 -31q1 -2 10 -9.5t18.5 -16.5
t18.5 -16.5t11 -8.5q6 24 3 56t-3 58q0 47 -6 93.5t-12.5 92.5t-12.5 92.5t-6 93.5v11q0 8 0.5 16.5t0.5 15.5v10q7 12 18 12q12 0 16.5 -10.5t5 -23t-2 -24t-2.5 -12.5l59 -499q0 -14 -7 -22t-16 -13.5t-19 -7.5t-17 -3q-1 -1 -2 -1h-4q-6 0 -12.5 5.5t-12 12.5t-9.5 15.5
t-6 13.5q-10 11 -32.5 33.5t-49.5 50.5t-57.5 59.5t-58 60.5t-49 52t-31.5 34q-5 5 -17 19.5t-24.5 31.5t-24 32t-15.5 22v-35q0 -25 -0.5 -52.5t-0.5 -52.5v-35q0 -84 6 -166t6 -166v-4q-2 -3 -10.5 -12t-12.5 -11l-17 12v498z" />
    <glyph glyph-name="O" unicode="O" horiz-adv-x="458" 
d="M17 278q5 41 9.5 83.5t11.5 84t19.5 79t35 65t56.5 44.5t84 17q41 0 72.5 -17.5t54 -46.5t36.5 -66.5t22.5 -76.5t12.5 -78t4 -71q0 -53 -17 -105.5t-48.5 -95t-77 -69t-103.5 -26.5q-50 0 -83 27t-53 67.5t-28 87.5t-8 86v11zM50 269q0 -35 7 -76.5t24 -76.5t46.5 -58.5
t74.5 -23.5q53 0 90.5 27t62 67.5t35.5 88.5t11 90q0 39 -6 92.5t-24.5 101.5t-53 81.5t-88.5 33.5q-38 0 -66 -18t-48 -47.5t-32.5 -67t-19.5 -76t-10 -75t-3 -63.5z" />
    <glyph glyph-name="P" unicode="P" horiz-adv-x="458" 
d="M58 615q-9 -7 -16.5 -4.5t-11.5 9t-6 15t-2 15.5q0 5 6 18.5t14 27.5t15.5 25t9.5 11q41 0 84.5 -7.5t85.5 -22t79 -37.5t65 -54.5t44 -72t16 -90.5q0 -47 -21.5 -94.5t-57.5 -86t-82 -63t-95 -24.5v46q41 0 81 20.5t71 53t50.5 73t19.5 80.5q0 42 -21.5 81.5t-55 70.5
t-74.5 50t-81 19q-21 0 -37 -1.5t-34 -11.5v-16q0 -10 -0.5 -22t-0.5 -23v-15q0 -55 1.5 -105.5t4.5 -101t7.5 -103.5t10.5 -113q0 -5 3.5 -23.5t7.5 -40t7.5 -40t4.5 -23.5q0 -1 0.5 -3t0.5 -3t-0.5 -2t-0.5 -2v-2q-1 -1 -4 -4.5t-6.5 -7.5t-7 -7t-5.5 -4l-11 12
q-2 1 -5 16t-7 35.5t-7.5 41.5t-4.5 34q-2 18 -4.5 55t-6.5 84t-7.5 98.5t-6.5 98.5t-5.5 84.5t-3.5 55.5z" />
    <glyph glyph-name="Q" unicode="Q" horiz-adv-x="544" 
d="M17 232q0 11 1.5 38.5t3.5 58.5t4 59.5t4 39.5q0 5 2.5 20.5t6 34t7 36t6.5 25.5q4 14 10 36t16.5 43t25.5 36t35 15q6 0 12 -0.5t10.5 -2.5t6.5 -7.5t0 -14.5q-41 -33 -64.5 -75.5t-35 -90.5t-14.5 -99.5t-3 -100.5q0 -41 5 -83.5t21 -77t45 -56t78 -21.5q9 0 31 5
t44 13t39 19t17 22v12q-5 3 -18.5 11t-28.5 17t-28 17.5t-18 13.5q-3 1 -10 7.5t-14 13.5t-13.5 14.5t-8.5 9.5q-1 1 -1 2v4q0 10 7.5 14t16.5 4q17 0 32.5 -13t31.5 -29t34 -29t42 -13q18 0 28 23.5t13.5 53.5t3.5 58v40q0 40 -9 85.5t-30 84t-54.5 63t-82.5 24.5
q-14 0 -22.5 -4t-15.5 -9.5t-14 -9.5t-19 -4q0 34 12 53.5t49 19.5q62 0 105 -30.5t68.5 -77.5t37 -103t11.5 -107q0 -48 -9 -91.5t-27 -89.5q6 -2 21 -8.5t32 -14t31.5 -14.5t19.5 -9q10 -5 11.5 -10t1.5 -14q0 -24 -24 -24q-16 0 -29.5 7.5t-26.5 16t-26 16.5t-29 8
q-8 0 -28 -14.5t-46.5 -32t-55.5 -32t-55 -14.5q-48 0 -82 20t-55.5 53t-32 74.5t-10.5 84.5z" />
    <glyph glyph-name="R" unicode="R" horiz-adv-x="520" 
d="M46 568q-7 11 -10 25t-3.5 28t0 27.5t0.5 24.5v14q0 10 0.5 20.5t1 20.5t0.5 14q1 3 10 8t13 4q17 -4 20 -17t2 -27.5t-0.5 -25.5t12.5 -11h139q22 0 36 -13t22 -32t10.5 -39t2.5 -35q0 -45 -14 -89.5t-36 -87.5t-46 -82.5t-44 -74.5v-18q46 0 77.5 4t60 8.5t60 8.5
t78.5 4h20q14 0 30 -0.5t29 -0.5h20q9 -4 11 -10.5t2 -13.5q0 -12 -4.5 -21.5t-19.5 -13.5q-37 16 -73 19t-71.5 0t-69 -11t-67.5 -13.5t-68.5 -8.5t-69.5 4q0 -32 4.5 -62t4.5 -62q0 -10 -1.5 -22t-15.5 -12q-6 0 -11 2.5t-7 10.5q-1 3 -3 15t-3.5 24.5t-3 24t-2.5 17.5
q-1 18 -3 54.5t-4.5 84t-5 99t-5 98.5t-3.5 84t-2 55zM81 580q1 -15 2.5 -44.5t4 -67.5t5 -79.5t5 -79t4 -68t2.5 -44.5q24 37 52 80.5t53 90t41.5 94.5t16.5 94q0 19 -7.5 34.5t-20 26t-29.5 16t-35 5.5q-9 0 -25 -2t-31.5 -7t-26.5 -14t-11 -23v-12z" />
    <glyph glyph-name="S" unicode="S" horiz-adv-x="469" 
d="M132 64q0 12 8 22.5t17 17.5q2 -28 18 -43.5t44 -15.5q25 0 57 9t59.5 26t46 41.5t18.5 54.5q0 36 -28 58t-71 37.5t-93 29.5t-92.5 34t-71 50t-28.5 78q-10 28 6.5 56.5t47 53.5t70.5 47t77.5 36t67.5 21t41 3t-2.5 -20t-62.5 -46q-7 0 -14 1t-9 10q-22 -8 -52 -25
t-57.5 -39.5t-46.5 -49t-19 -52.5q0 -41 28.5 -64.5t71 -40t92.5 -30t93 -32t71 -48t28 -77.5q0 -27 -13 -49.5t-34 -41t-48 -32.5t-55.5 -24t-56 -15t-48.5 -5q-10 0 -20.5 6.5t-19 16.5t-14.5 21t-6 20z" />
    <glyph glyph-name="T" unicode="T" horiz-adv-x="501" 
d="M290 9q-3 70 -5 145t-6.5 151.5t-13 152t-21.5 145.5q-4 16 -7 20t-15 4q-24 0 -46 -7.5t-44.5 -16.5t-44.5 -16.5t-47 -7.5q-13 0 -21 4.5t-8 19.5q0 7 1.5 14t11.5 8l196 48q-2 22 3.5 28.5t18.5 6.5q17 0 29 -6.5t30 -6.5q45 0 89 7.5t88 17t87.5 17t87.5 7.5v-10
q0 -7 -0.5 -15t-4.5 -15t-10 -8q-11 -1 -32.5 -3.5t-49 -6t-57.5 -7t-58 -7t-49.5 -7t-32.5 -4.5q-9 -2 -22.5 -5.5t-26.5 -7t-22.5 -6.5t-9.5 -4v-13l58 -603v-13q-1 -2 -4.5 -4.5t-9.5 -4t-14 0t-18 8.5z" />
    <glyph glyph-name="U" unicode="U" 
d="M58 185q-1 16 -4 47.5t-6.5 71.5t-7 84t-7 84t-6.5 72t-4 47q0 2 -0.5 11.5t-0.5 12.5h36q1 -13 2.5 -40.5t4 -61.5t4.5 -72.5t4.5 -72.5t4.5 -61.5t3 -40.5q3 -30 9.5 -69t22.5 -72.5t41 -56.5t64 -23q33 0 57.5 21t41.5 54.5t27.5 74.5t17 80.5t9 73t2.5 52.5
q0 50 -7.5 94.5t-7.5 90.5q0 11 7.5 14.5t16.5 3.5q2 0 6 -0.5t6 -0.5q6 -22 8 -39.5t3.5 -33.5t1.5 -33v-37q0 -29 -1.5 -74.5t-7.5 -96.5t-18.5 -102.5t-34 -93.5t-55 -68t-80.5 -26q-35 0 -62 17.5t-45.5 44.5t-30 60t-14.5 64z" />
    <glyph glyph-name="V" unicode="V" horiz-adv-x="605" 
d="M12 561q19 0 30.5 -5t19.5 -14.5t14.5 -23.5t16.5 -31l314 -383q5 -7 7.5 -9.5t9.5 -2.5q1 0 2.5 0.5t2.5 0.5q3 12 9.5 38.5t14 60t16.5 70t17 69.5t14.5 59l9.5 38q7 25 17 61.5t26 70t38.5 58t53.5 24.5q0 -21 -2.5 -29.5t-8 -14.5t-13 -14.5t-17.5 -27.5
q-5 -7 -13.5 -24.5t-17.5 -38t-17 -39t-11 -26.5q-2 -11 -8 -35.5t-13 -55.5t-14.5 -65t-14 -65t-12 -55t-8.5 -36q-1 -5 -2.5 -18t-3.5 -28t-3.5 -28t-1.5 -19q-6 -9 -12.5 -16.5t-16.5 -7.5q-8 0 -10 2.5t-7 10.5l-406 510v39z" />
    <glyph glyph-name="W" unicode="W" horiz-adv-x="912" 
d="M24 499l277 -406h12l3 20q3 22 7 51.5t7.5 61t6.5 52.5v12q1 11 6 41t11 63t11 63l7 42q2 10 11 11t17 1q10 0 16 -2t9.5 -7t6.5 -12t8 -15q27 -40 55.5 -86.5t59 -93.5t63 -92.5t67.5 -86.5q1 -2 4 -5t6.5 -7t7 -7t4.5 -4l12 23q3 14 10.5 42t18 63.5t21.5 75t21.5 74.5
t19.5 63t13 41q4 10 15.5 33.5t24 49t24.5 48.5t18 32q2 3 10.5 7t12.5 4q18 0 21.5 -7.5t3.5 -20.5q0 -19 -16 -43.5t-36.5 -51t-40 -54t-25.5 -54.5l-93 -383q-2 -10 -9 -11t-14 -1q-10 0 -13.5 1t-9.5 11l-287 408l-15 -15q-2 -1 -5 -14.5t-6 -31.5t-6.5 -37.5
t-4.5 -31.5q-2 -11 -4 -34t-4.5 -51t-5 -59.5t-4.5 -60.5t-4 -51.5t-2 -33.5q-6 -9 -12.5 -16.5t-16.5 -7.5q-7 0 -10 2.5t-8 10.5l-254 382q-14 21 -26 49.5t-12 55.5h15z" />
    <glyph glyph-name="X" unicode="X" horiz-adv-x="580" 
d="M179 22v17q0 6 1 7l99 236l-215 252q-2 1 -8 11t-13 22.5t-14.5 26t-11.5 21.5q-1 1 -1 2v3q0 7 6 12.5t13 5.5q9 0 20 -12t20.5 -27t15.5 -28t8 -15q7 -8 22.5 -25.5t34.5 -39t40.5 -45.5t41 -45.5t35 -38.5t23.5 -25l11 10l16 35q11 24 24.5 54t28.5 63t29 62.5t25 53
t16 34.5q6 11 11 19.5t11 14t14.5 8.5t21.5 3v-21q-23 -40 -46.5 -84.5t-46.5 -90.5t-43.5 -93t-36.5 -92q0 -1 -0.5 -2.5t-0.5 -3.5q0 -1 0.5 -3t0.5 -3q2 -3 8.5 -11t14 -17.5t14 -17.5t9.5 -12q8 -8 29 -29.5t45 -46.5l46 -45q21 -21 30 -29q4 7 8 9.5t9 2.5q2 0 4 -0.5
t3 -0.5q1 -2 2.5 -8.5t3.5 -14t3.5 -14t1.5 -9.5q0 -1 0.5 -3.5t0.5 -3.5q0 -11 -9.5 -20t-20.5 -9q-1 0 -3 0.5t-3 0.5l-220 233l-92 -244q-1 -3 -10 -7.5t-13 -4.5q-6 0 -8.5 4t-3.5 9t-1 9z" />
    <glyph glyph-name="Y" unicode="Y" horiz-adv-x="588" 
d="M537 752q-11 22 2 33t31 11v-55l-72 -843l-37 19zM-4 674q-1 0 -1 2v3q0 7 4.5 12.5t12.5 5.5l1 -1h4l439 -238q20 -4 31.5 -10.5t11.5 -28.5q0 -8 -2 -17.5t-15 -9.5h-5q-3 2 -9 6.5t-13 10t-13 10t-7 7.5z" />
    <glyph glyph-name="Z" unicode="Z" horiz-adv-x="649" 
d="M202 -5q0 17 4 37t8 35q3 10 10 32t16 49t19.5 57.5t19.5 58t16 48.5l11 33v10q-19 0 -38 -5.5t-37.5 -12t-37 -12t-38.5 -5.5q-8 0 -16 4t-8 14v4q0 1 1 3q2 1 5.5 5.5t7.5 7.5l6 6q4 4 5 4l174 46l58 251q-27 0 -45 2t-34 2.5t-32.5 -2t-39.5 -10.5q-11 -4 -37.5 -13.5
t-56.5 -20.5t-56 -21t-36 -14q-2 -1 -6 -1.5t-5 -0.5q-13 0 -19 9.5t-6 21.5q0 9 6.5 11t18.5 6l106 36q47 16 92 26.5t91 16.5t105 6l-58 -283v-15q9 0 19.5 2.5t19 2t14.5 -5.5t6 -19q0 -12 -6 -16.5t-14.5 -5t-18.5 1t-19 2t-15.5 -2.5t-8.5 -12q-6 -15 -19 -53
t-27.5 -80.5t-28 -80.5t-18.5 -53q-2 -19 -7 -35t-3 -35q18 0 58.5 9.5t87.5 22.5t92 26.5t74 22.5q3 1 8.5 5t11 8.5t11 8t9.5 3.5q14 0 22 -11.5t8 -23.5q0 -8 -2 -14.5t-11 -10.5q-96 -15 -193.5 -43.5t-188.5 -60.5q-25 -4 -30 2t-5 20z" />
    <glyph glyph-name="bracketleft" unicode="[" horiz-adv-x="347" 
d="M35 -64q0 1 2 4.5t3.5 7.5t3.5 7.5l2 3.5v7q0 5 0.5 12.5t0.5 16.5v11q0 98 -3.5 196t-8.5 196t-9 195.5t-4 195.5v26q0 19 0.5 40.5t0.5 39.5v27q2 1 16.5 4.5t36.5 7.5t48 8t50 7.5t43 6t27 2.5q15 0 25 -3.5t10 -21.5q0 -6 -1.5 -13t-11.5 -9l-185 -24l-12 -22v-168
q0 -57 0.5 -125t1.5 -139t3 -140.5t4 -129.5t5.5 -107t8.5 -72q2 -7 6.5 -16t5.5 -9h224v-8q0 -7 -1 -15t-4.5 -15t-10.5 -7q-28 -6 -60 -10t-64 -7.5t-64 -5.5t-61 -2q-7 0 -12.5 6t-8.5 14t-5 15.5t-2 11.5z" />
    <glyph glyph-name="backslash" unicode="\" horiz-adv-x="550" 
d="M12 696l32 25l431 -594q5 -4 17 -14.5t24 -24.5t21 -28.5t8 -24.5q-1 -4 -5 -9.5t-9 -11t-11 -10t-10 -4.5q-6 4 -12 12.5t-10.5 18t-8 17.5t-4.5 10z" />
    <glyph glyph-name="bracketright" unicode="]" horiz-adv-x="504" 
d="M131 -69q-1 4 4 13t9 10l192 49l-76 902h-6q-78 0 -153.5 -8t-153.5 -8v27q9 1 32 2.5t48.5 3.5t49 3.5t32.5 2.5h12q3 0 15.5 1.5t29.5 4.5t35.5 5.5t35.5 5.5t29 4t17 2l5.5 0.5t7.5 0.5q10 0 16.5 -3t5.5 -21q-2 -43 -0.5 -89.5t6.5 -102t13.5 -123.5t17.5 -154
t20.5 -193.5t23.5 -241.5q14 -7 19 -14.5t5 -20.5q0 -12 -5 -21t-19 -14q-3 -1 -11.5 -1t-18 0.5t-18.5 0.5h-10q-22 -2 -44.5 -9.5t-45 -15.5t-44 -15t-41.5 -7q-11 0 -20.5 4t-14.5 20z" />
    <glyph glyph-name="asciicircum" unicode="^" horiz-adv-x="440" 
d="M58 720q7 13 17.5 38.5t22 53t22 52.5t16.5 40q3 9 4.5 19t4.5 18.5t8 14.5t18 6h6q4 0 5 -1l128 -157q24 6 30.5 -4t6.5 -24q0 -13 -7 -28t-24 -15q-22 14 -38.5 32.5t-30 38.5t-24 40t-19.5 36q-2 3 -11 7.5t-11 4.5t-6.5 -4.5t-5.5 -7.5l-89 -173q0 -1 -2 -1h-3
q-12 0 -18 14z" />
    <glyph glyph-name="underscore" unicode="_" horiz-adv-x="684" 
d="M11 29q0 11 13 17q70 -5 139.5 0t138.5 13t138 15.5t140 7.5h35q11 0 21 -0.5t14 -0.5q2 -2 6.5 -10.5t4.5 -12.5t-3 -10t-7 -11.5t-9 -9.5t-9 -4q-30 0 -59 6t-58 6q-52 0 -102 -6t-101 -12.5t-101.5 -12t-101.5 -5.5q-8 0 -25 -0.5t-33 2t-28.5 8.5t-12.5 20z" />
    <glyph glyph-name="grave" unicode="`" horiz-adv-x="175" 
d="M12 791q1 1 5.5 2.5t5.5 2.5q8 1 16.5 -2t16 -8.5t14 -11.5t11.5 -12q6 -7 15 -18t19 -23.5t19 -23.5t15 -18q2 -3 4.5 -11.5t3.5 -11.5q1 -7 4.5 -19t-7.5 -18l-15 8z" />
    <glyph glyph-name="a" unicode="a" horiz-adv-x="408" 
d="M16 104q0 29 6.5 72t19 89.5t32 93.5t44.5 84.5t57 60.5t70 23q0 -14 -11.5 -27.5t-26 -26t-29.5 -24t-21 -21.5q-24 -31 -43 -68.5t-33 -77t-22 -81t-8 -80.5q0 -6 2 -18.5t5.5 -25.5t9.5 -22.5t13 -9.5h3q1 0 2 1q27 30 45 65t31 72.5t22 76.5t18 77q3 11 2.5 33t2 43
t10.5 36.5t29 15.5q4 0 9.5 -0.5t5.5 -1.5q37 -77 63 -130.5t44 -88.5t29 -55t16.5 -30.5t7.5 -14t2 -5.5q1 -4 2 -14.5t1.5 -22t1 -22t0.5 -13.5q-10 0 -22 1t-17 13l-128 266l-11 12q-3 -11 -11.5 -39t-18 -59.5t-17.5 -59.5t-11 -39q-6 -15 -15.5 -42t-23.5 -54t-32 -47
t-40 -20q-18 0 -30 11.5t-20 28.5t-11.5 35t-3.5 30z" />
    <glyph glyph-name="b" unicode="b" horiz-adv-x="377" 
d="M23 715q0 9 7.5 13t15.5 4q2 0 6.5 -1t5.5 -1l34 -440q6 24 16 45.5t24.5 38t34.5 25.5t48 9q34 0 61 -16.5t45.5 -41.5t28.5 -57t10 -63q0 -45 -22.5 -86.5t-58.5 -73.5t-80.5 -51.5t-88.5 -19.5q-17 0 -25.5 13t-11.5 30.5t-3 35t-1 26.5q-6 81 -12 154.5t-11.5 145.5
t-11 146t-11.5 156v9zM208 372q-24 0 -42 -21.5t-28.5 -49.5t-15.5 -57.5t-6 -46.5q-1 -8 -2 -30.5t-1.5 -47.5t-0.5 -47.5v-31.5q33 0 70.5 15t69 41t52.5 59.5t21 70.5q0 22 -9 48t-24.5 47.5t-37 36t-46.5 14.5z" />
    <glyph glyph-name="c" unicode="c" horiz-adv-x="347" 
d="M16 145q0 10 3 37.5t8.5 63.5t15.5 75t23.5 72t31 54t40.5 21q-9 -28 -23.5 -66t-27.5 -79.5t-21.5 -84.5t-5 -80.5t22.5 -67.5t60 -46q38 0 66 17t48.5 38t36 38t28.5 17q0 -38 -18.5 -67t-47 -48.5t-64 -29.5t-71.5 -10q-28 0 -48.5 14t-33 35.5t-18 47t-5.5 49.5z" />
    <glyph glyph-name="d" unicode="d" horiz-adv-x="382" 
d="M11 85q0 54 21.5 109.5t57.5 103.5t82.5 85.5t94.5 56.5q0 30 -3 59t-7 58.5t-8 59.5t-5 62q0 10 7.5 14t15.5 4q6 0 14.5 -1.5t9.5 -11.5l68 -626l-2 -3.5t-6 -7l-8 -7t-6 -5.5q0 -1 -2.5 -1.5t-3.5 -0.5q-12 8 -18.5 32.5t-10 54t-6 57.5t-5.5 43q-2 -8 -8.5 -27
t-18.5 -44t-29 -51t-40 -48t-53 -36.5t-66 -14.5q-18 0 -30.5 7t-20 19.5t-11 28t-3.5 31.5zM57 104q0 -4 1 -13.5t4.5 -19.5t8 -17.5t10.5 -7.5q22 2 47.5 19.5t49.5 44.5t45.5 60.5t36 67.5t19.5 66t-1 55q-4 8 -7 10.5t-9 2.5q-44 0 -82 -27t-65.5 -67.5t-42.5 -87.5
t-15 -86z" />
    <glyph glyph-name="e" unicode="e" horiz-adv-x="337" 
d="M58 232q-23 -14 -47 -21.5t-39 9.5q0 19 13 25.5t29.5 10.5t33 10t22.5 24q6 20 11 48t14 54t26 43.5t47 17.5q17 0 42.5 -11.5t48.5 -27.5t39 -34t16 -33q0 -7 -1.5 -13t-10.5 -10l-197 -68l-1 -5q0 -4 -1 -11v-12v-10q0 -20 3 -49.5t12.5 -57t26.5 -47.5t46 -20
q11 0 18.5 4.5t15 10t15 10t17.5 4.5q0 -15 -6.5 -28.5t-17.5 -23.5t-25 -16t-28 -6q-38 0 -61 26.5t-35.5 64t-17.5 77t-8 65.5zM180 409q-18 0 -30.5 -10t-20.5 -25t-11.5 -32.5t-3.5 -31.5q16 0 35.5 2t38.5 8t34.5 15.5t21.5 23.5q-15 24 -28 37t-36 13z" />
    <glyph glyph-name="f" unicode="f" horiz-adv-x="414" 
d="M157 313q-16 0 -30.5 -6t-28 -12.5t-28 -12t-30.5 -5.5q-29 0 -29 32v2q0 1 1 2l151 46q3 44 1.5 87.5t-2.5 84t1.5 76.5t11.5 67t27.5 54t51.5 38q11 0 24.5 -3t24.5 -9.5t19 -17t8 -23.5q-44 0 -69.5 -15.5t-38.5 -40.5t-16 -58.5t-1.5 -70t5 -73.5t3.5 -70
q34 0 66.5 7t65 15.5t65.5 15t66 6.5q24 0 24 -23q0 -9 -17 -16t-44 -12.5t-60 -11t-65.5 -12t-60.5 -13.5t-44 -17q-5 -38 -0.5 -75.5t12 -74l15 -73t8.5 -72.5q0 -9 -3.5 -19.5t-13.5 -10.5q-8 0 -13 6t-8.5 13.5t-5.5 15t-3 12.5q-7 37 -13 69.5t-10.5 64t-7 63.5
t-3.5 70h-6z" />
    <glyph glyph-name="g" unicode="g" horiz-adv-x="412" 
d="M130 -383q0 9 1.5 18.5t6 12t11 -5.5t16.5 -33q32 0 58.5 13.5t47.5 36.5t35.5 53t24.5 62t14.5 63.5t4.5 58.5q0 104 -20 212.5t-61 204.5q-20 -44 -35 -91t-36 -90.5t-51.5 -78t-81.5 -54.5q-18 0 -28.5 9.5t-16 23.5t-6.5 29.5t-1 29.5q0 22 5.5 58.5t17.5 78.5
t28.5 84t38.5 76t49 55t59 21q10 0 20 -5t20 -11l20 -12q10 -5 21 -8q3 -13 10 -43t15 -67.5t16.5 -79.5t16.5 -79.5t14.5 -68t8.5 -44.5q1 -7 3.5 -23.5t4 -35t3 -34.5t1.5 -22q0 -29 -4 -68t-14 -80t-26 -81t-40 -72t-56.5 -51.5t-74.5 -19.5q-24 0 -32 18t-8 40zM47 100
v-17q0 -9 2 -17.5t7 -15t16 -6.5q18 1 36.5 20t34 44t28 50.5t17.5 38.5q4 9 12.5 34t17.5 52.5t17 53t11 35.5v5q0 8 -6.5 14t-15 9t-17.5 5t-15 2q-22 0 -41.5 -21t-35.5 -53t-28.5 -69.5t-21.5 -72t-13.5 -60t-4.5 -31.5z" />
    <glyph glyph-name="h" unicode="h" horiz-adv-x="458" 
d="M15 770l43 7l46 -545q7 34 21 74t37.5 73t58 51.5t80.5 9.5q32 -5 55.5 -24.5t40.5 -47.5t27.5 -61.5t16.5 -68t8.5 -66.5t2.5 -56q0 -21 -3.5 -28.5t-18.5 -7.5q-7 0 -14 1.5t-10 11.5q2 19 2 50t-3.5 64t-11.5 66.5t-22.5 60.5t-37.5 43.5t-55 16.5q-33 0 -57.5 -14.5
t-41 -37.5t-26.5 -51.5t-14 -58.5q0 -8 -1.5 -25.5t-3.5 -39t-3 -46t-2 -46t-1.5 -38.5t-0.5 -25q-3 -10 -9 -11.5t-14 -1.5q-1 0 -5.5 0.5t-6.5 0.5z" />
    <glyph glyph-name="i" unicode="i" horiz-adv-x="145" 
d="M12 455q6 0 13.5 -4t9.5 -11l70 -347q12 -18 17.5 -29t5.5 -29q0 -9 -3 -22.5t-14 -13.5h-4q-2 0 -2 1q-2 1 -6 4l-15 15q-3 3 -3 4l-69 395v37zM-5 679q22 0 32.5 -5.5t10.5 -26.5q0 -7 -1 -17t-12 -13q-20 8 -25 26t-5 36z" />
    <glyph glyph-name="j" unicode="j" horiz-adv-x="279" 
d="M-79 -425q12 0 20 -11.5t15.5 -26t17.5 -26t28 -11.5q29 9 50 49.5t32.5 100.5t15 134.5t-1.5 152t-17.5 154t-31.5 140.5v11q0 10 8.5 18.5t18.5 8.5q20 -71 36 -154.5t23.5 -169t6 -166.5t-13.5 -146.5t-37 -110t-65 -56.5q-21 -13 -39.5 -3.5t-32.5 29t-23 44
t-10 39.5zM0 508v23q0 6 1.5 11t5.5 8.5t11 3.5q9 0 13 -4.5t5.5 -10.5t1 -13t-0.5 -12q0 -6 0.5 -13t-1 -13.5t-5.5 -11t-13 -4.5q-7 0 -11 6t-5.5 13.5t-1.5 16.5z" />
    <glyph glyph-name="k" unicode="k" horiz-adv-x="461" 
d="M17 719q23 14 34 8t13 -21l93 -450q11 8 23.5 26.5t25.5 41.5t26.5 48t27 45.5t28 33.5t30.5 13q5 0 14.5 -1t9.5 -10q0 -8 -4 -14.5t-10 -12.5t-12 -11.5t-9 -8.5q-6 -7 -16.5 -21t-22 -29t-20.5 -27t-10 -16q-7 -10 -17 -27t-19 -33.5t-15.5 -29.5t-6.5 -15v-19
q47 0 84 3.5t72 8.5t72 8.5t83 3.5q8 0 15 -4t7 -14q0 -8 -3 -14t-9 -15q-28 3 -73 1.5t-92.5 -6.5t-91.5 -14t-69 -20v-104l-18 -23q-19 38 -26.5 82.5t-10 91.5t-6 94.5t-15.5 90.5q0 1 -0.5 4.5t-3 15l-7.5 34.5t-14 62.5t-23 99z" />
    <glyph glyph-name="l" unicode="l" horiz-adv-x="121" 
d="M58 23q-1 26 -5 80.5t-8.5 123t-9 144t-9 144.5t-9 123.5t-5.5 80.5v13q0 23 23 23q2 0 6 -0.5t6 -0.5q6 -87 11 -167t10 -159t11 -158.5t14 -165.5q11 -11 12 -25.5t1 -29.5q0 -7 -0.5 -15.5t-3.5 -16t-9.5 -13t-16.5 -5.5q-9 0 -12.5 7t-5.5 17z" />
    <glyph glyph-name="m" unicode="m" horiz-adv-x="638" 
d="M52 440q2 -12 5 -22q1 -10 3 -19.5t4 -16.5v-10q1 -6 2 -17.5t3.5 -24t4 -24.5t2.5 -16q3 19 10.5 41.5t19 41t28 32t41.5 13.5h5q25 -21 43.5 -44t32.5 -49t26 -55t25 -62h12q4 28 14 66.5t27.5 73t43 58.5t61.5 24q19 0 37 -19.5t34.5 -51t30 -69t22.5 -74t14.5 -66.5
t5.5 -46q0 -10 -3.5 -17t-14.5 -7t-17 13q-2 8 -6.5 24t-9.5 37t-11.5 43.5t-12.5 43t-11 36.5t-7 24q-3 10 -9.5 24t-15.5 27t-20 22t-25 9q-23 0 -40 -23t-28.5 -54t-17 -62t-6.5 -47q0 -7 -0.5 -25t-0.5 -39t0.5 -39t0.5 -25q-7 -8 -13 -15.5t-17 -7.5q-5 0 -9.5 2.5
t-7.5 9.5q-1 8 -5.5 26t-10.5 38t-11 38t-7 25q-2 5 -9.5 22t-16.5 37.5t-18 39.5t-14 29q-11 20 -21.5 33.5t-33.5 13.5q-12 0 -21.5 -9t-16 -22t-9 -27t-2.5 -24v-255q0 -10 -4.5 -17t-13.5 -7q-5 0 -11 2.5t-6 10.5l-59 428h35z" />
    <glyph glyph-name="n" unicode="n" horiz-adv-x="509" 
d="M28 372q0 6 0.5 14t2 15.5t6.5 12.5t14 5q2 0 6.5 -0.5t6.5 -0.5q1 -71 7.5 -146t26.5 -145q1 11 5.5 37.5t10 56t11 55.5t7.5 37q7 21 19 43.5t29.5 41.5t39 31t45.5 12q40 0 71 -18t55.5 -47.5t41.5 -67t28 -76.5t16 -75t5 -64v-12q0 -6 -1.5 -11.5t-5 -9t-12.5 -3.5
q-10 0 -17 12q-1 25 -5.5 58t-12 69.5t-20 72t-31 63.5t-43.5 45.5t-60 17.5q-28 0 -48.5 -10t-34.5 -27.5t-22.5 -41t-12.5 -50.5q-3 -14 -8 -50t-11 -77t-10.5 -77t-5.5 -50q-3 -10 -10.5 -12t-15.5 -2q-1 0 -5 0.5t-4 1.5l-57 347q0 2 -0.5 11t-0.5 14z" />
    <glyph glyph-name="o" unicode="o" horiz-adv-x="324" 
d="M22 151q0 20 0.5 53.5t4.5 72t12 78.5t23 72t38 52t57 20q47 0 75.5 -26t44 -64.5t21 -82t5.5 -78.5q0 -38 -11 -82t-34 -81t-57.5 -61.5t-82.5 -24.5q-31 0 -50 14.5t-28.5 36.5t-13.5 49t-4 52zM56 163q0 -19 1 -39.5t6 -38.5t18 -29t38 -11q44 0 72.5 20t45.5 51.5
t23.5 69.5t6.5 73q0 22 -3.5 57t-14.5 68t-32 56.5t-55 23.5q-24 0 -41.5 -19t-29.5 -49t-18.5 -66t-10.5 -69t-5 -60t-1 -38z" />
    <glyph glyph-name="p" unicode="p" horiz-adv-x="400" 
d="M20 539q8 0 18 -2t18 -7.5t12.5 -14.5t0.5 -23q4 1 12 2.5t17.5 3.5t17.5 3.5t11 2.5h5q42 0 85 -13.5t77 -38.5t56.5 -61t22.5 -81q0 -50 -23 -91.5t-59.5 -71.5t-82 -47t-90.5 -17q0 -29 5.5 -57.5t11 -56l11 -55t5.5 -54.5q0 -8 -5.5 -13t-13.5 -5q-9 0 -14.5 8t-8 18
t-4 19.5t-1.5 13.5q-2 14 -6.5 44.5t-10.5 68t-12.5 79t-12 79.5t-10 67.5t-6.5 43.5zM68 405v-10q0 -5 0.5 -11.5t0.5 -11.5v-7q2 -17 5 -41t7 -50.5t8 -53.5t7 -48.5t5 -35.5t3 -15q40 -9 81 4.5t74 43t55 68.5t23 80q0 37 -17.5 63.5t-44.5 44t-60.5 26t-66.5 8.5
q-16 0 -30.5 -2t-25.5 -7t-17.5 -16t-6.5 -29z" />
    <glyph glyph-name="q" unicode="q" horiz-adv-x="372" 
d="M292 208v11q0 8 -0.5 16.5t-0.5 15.5v10q-26 -36 -48.5 -78.5t-49.5 -79t-61 -61.5t-81 -26q-7 0 -16 1t-11 12q-8 20 0 57t26.5 81t44 89t52.5 83t52.5 63.5t44.5 29.5q1 0 5 -2.5t8 -6.5l7 -7t3 -4q-35 -34 -71 -74t-65 -84.5t-47.5 -92t-18.5 -95.5q27 0 53 21
t50 54.5t45.5 74.5t39 82t30 77t18.5 60q2 1 6 6t6 5q4 0 9.5 -2.5t11.5 -6.5t10 -9.5t4 -9.5v-6q-6 -30 -11 -85.5t-9.5 -124t-8 -144t-6.5 -145.5t-6 -128t-6 -92q0 -12 2 -29t0 -33t-10.5 -27.5t-27.5 -11.5q0 78 4 155t9 153.5t9.5 153t4.5 154.5z" />
    <glyph glyph-name="r" unicode="r" horiz-adv-x="365" 
d="M40 382l59 -243h12q3 32 11.5 68t23.5 71.5t35.5 68.5t46.5 58t58.5 40t71.5 15q0 -24 -19.5 -42t-46.5 -35t-55.5 -36t-44.5 -46q-17 -27 -27.5 -62.5t-17 -73t-9.5 -75t-5 -67.5q-6 -9 -12.5 -16.5t-16.5 -7.5q-4 0 -10 2.5t-8 10.5l-72 370h26z" />
    <glyph glyph-name="s" unicode="s" horiz-adv-x="406" 
d="M69 34q0 12 2 20.5t6.5 12t11 0t16.5 -16.5q18 0 42 2t50 7t51.5 13t45 21.5t31.5 32t12 43.5t-23 37t-58.5 18.5t-76 13t-75.5 20t-58.5 39t-23.5 71.5q0 32 11 54t37 41q11 9 39 28.5t59.5 42t59.5 42t39 27.5q2 0 5.5 0.5t5.5 0.5q25 0 25 -24q0 -11 -18 -23.5
t-45.5 -27.5t-59 -32t-59 -37.5t-45.5 -44t-18 -50.5q0 -29 14.5 -42t43.5 -22q12 -3 41.5 -11.5t63 -18t63 -17.5t41.5 -11q26 -14 42.5 -30.5t16.5 -45.5q0 -28 -14.5 -51t-38 -41.5t-54 -33t-61.5 -24t-60.5 -14t-52.5 -4.5q-22 0 -28 6.5t-6 28.5z" />
    <glyph glyph-name="t" unicode="t" horiz-adv-x="486" 
d="M215 313q-22 0 -44 -6t-43.5 -12.5t-43 -12t-44.5 -5.5q-13 0 -21 5t-8 20q0 12 6.5 16.5t16 5t20 -0.5t16.5 1q8 2 29.5 7t45.5 10t45.5 10t29.5 8q0 3 0.5 10.5t1 16t0.5 15.5v11q0 30 -4 58.5t-8.5 57.5t-8.5 58t-4 58q0 10 2.5 19.5t15.5 9.5q5 0 10.5 -2.5t6.5 -9.5
l35 -289q1 -1 2 -1h3q10 0 31 5t47 12t55.5 15t56.5 14.5t49 10t34 0.5q4 -1 13 -9.5t11 -12.5q2 -10 -17 -19.5t-49.5 -18t-67.5 -15.5t-70.5 -12.5t-57.5 -10t-29 -6.5v-20q0 -13 -0.5 -28.5t-0.5 -29.5v-20q0 -51 7 -99.5t7 -97.5q0 -7 -4 -11.5t-10 -8t-12 -6t-9 -3.5
q-8 43 -11.5 78.5t-5 70.5t-3 74.5t-4.5 89.5h-17z" />
    <glyph glyph-name="u" unicode="u" horiz-adv-x="448" 
d="M132 0q-19 -7 -34.5 3.5t-27.5 32t-21 49t-14 54.5t-6.5 49t0.5 32q0 10 1 31t2 47.5t2.5 55t2.5 55.5t2 47.5t1 30.5q2 0 3 1l3 1q10 0 17 -9t12 -17q0 -14 -0.5 -50t-0.5 -77t0.5 -77.5t0.5 -50.5q1 -12 4.5 -37.5t9.5 -52t16.5 -48t26.5 -24.5q42 0 70.5 31t47.5 78
t30.5 101.5t19.5 102.5t14.5 80.5t15.5 35.5l24 -5l56 -387q6 -3 10 -9t7.5 -13t5 -14t1.5 -10q-2 -7 -12 -15t-17 -9h-4h-2q-2 3 -5.5 9.5t-7.5 13.5t-6.5 14.5t-3.5 9.5q-3 10 -6.5 31t-6.5 46.5t-5.5 54t-5 55t-5 47t-5.5 30.5q-5 -23 -14 -54.5t-22.5 -66.5t-30.5 -68.5
t-38.5 -62t-47.5 -48t-57 -24.5z" />
    <glyph glyph-name="v" unicode="v" horiz-adv-x="446" 
d="M17 418q15 21 27.5 16.5t19.5 -16.5q5 -11 17 -32.5t26.5 -49t31 -58t31 -58t27 -49.5t18.5 -32q3 -4 9 -13.5t14 -20t16 -18t14 -7.5h3q2 0 2 1l104 418l46 -24q-24 -48 -43 -104t-33 -114.5t-24 -115t-16 -106.5q-1 -4 -3.5 -10t-6.5 -12t-9 -10t-10 -4q-10 0 -16 7.5
t-12 16.5q-33 40 -67.5 93.5t-66 109t-57.5 106.5t-42 86z" />
    <glyph glyph-name="w" unicode="w" horiz-adv-x="736" 
d="M250 12q-7 15 -21.5 47t-32.5 71l-39 84q-19 45 -37.5 84.5t-33.5 71.5t-22 48q-6 10 -14 22t-15.5 24.5t-13 25t-5.5 26.5q0 5 2.5 11.5t11.5 6.5q1 0 6.5 -2.5t11 -6t10 -8t6.5 -8.5l195 -415l60 359q-3 7 -1 15.5t7.5 15t13 11t15.5 4.5q7 0 13.5 -1t9.5 -11
q4 -9 13 -28.5t20 -43.5t23.5 -50.5t24.5 -50.5t21 -43l14 -28q6 -14 15 -30t19.5 -31.5t22.5 -30t24 -24.5l92 417q3 11 5.5 18.5t12.5 7.5q13 0 15.5 -10.5t2.5 -19.5q-21 -60 -30 -124l-18 -127q-9 -63 -23.5 -124.5t-45.5 -118.5h-5q-10 0 -18 12l-208 370
q-8 -22 -14.5 -62.5t-12.5 -88.5t-12 -97.5t-13 -89.5t-16 -65.5t-20 -25.5q-10 0 -16 13z" />
    <glyph glyph-name="x" unicode="x" horiz-adv-x="487" 
d="M171 -16q0 2 0.5 8.5t2.5 7.5l57 175q0 1 0.5 8t0.5 10q0 21 -17.5 40t-43.5 37t-56 36t-56.5 37t-44 40t-17.5 46h14q8 -6 25 -18.5t38.5 -29t45.5 -34t46 -33.5t39 -28.5t26 -18.5q2 -2 11.5 -6.5t12.5 -4.5q3 10 12.5 38t20.5 59.5t21 60t14 39.5q3 7 6.5 17t9 18.5
t13 14t19.5 5.5v-33q-8 -23 -21 -55.5t-26.5 -67t-23.5 -66.5t-11 -54v-12q11 -7 29 -19.5t41 -28t49.5 -33t54.5 -34.5q0 -4 -2.5 -10t-7 -12t-10 -10t-9.5 -4q-2 0 -4 0.5t-3 0.5q-5 6 -25 23t-42.5 35.5t-44.5 32.5t-32 14q-6 0 -11 -3t-7 -10l-58 -185l-23 -23
q-10 3 -11.5 12.5t-1.5 17.5z" />
    <glyph glyph-name="y" unicode="y" horiz-adv-x="504" 
d="M423 -164q0 57 6 112.5t6 111.5q0 24 -13.5 41.5t-32.5 30.5q-52 38 -100.5 71t-94.5 66.5t-90.5 70.5t-86.5 83l23 23q10 -8 31 -24.5t47 -37t55 -43.5t55.5 -43.5t47.5 -37t31 -23.5q11 -8 29.5 -19.5t37 -22.5t33 -19.5t16.5 -8.5h12v13q1 13 1.5 39t1.5 58.5
t2.5 69.5t3 70t2 59t0.5 39q4 11 15.5 13.5t20.5 2.5q0 -87 -2 -175l-6 -174q-2 -88 -4 -175.5t0 -174.5q-5 -8 -12 -16.5t-18 -8.5q-10 0 -13.5 10t-3.5 19z" />
    <glyph glyph-name="z" unicode="z" horiz-adv-x="527" 
d="M64 35l246 456l-258 -85h-6q-11 0 -20.5 9t-9.5 20q0 10 7.5 12t16.5 6l302 91q1 0 5.5 0.5t6.5 0.5q24 0 24 -24q0 -19 -10 -30.5t-26 -27.5l-221 -394h36l313 93q11 -15 15.5 -28t1.5 -21t-13 -10.5t-28 1.5l-335 -92q-2 -1 -8.5 -1.5t-9.5 -0.5q-10 0 -19.5 3t-9.5 16
v6z" />
    <glyph glyph-name="braceleft" unicode="{" horiz-adv-x="319" 
d="M70 91q0 39 12 76t30.5 71.5t40.5 66t41 60.5q-12 1 -26 2.5t-26 6.5t-20.5 14.5t-8.5 27.5q0 23 5 39.5t21 38.5q-18 -2 -40 -3t-41 5t-32.5 20.5t-13.5 42.5q0 27 9.5 54.5t25.5 54.5t36 52.5t40.5 48.5t39 42.5t31.5 33.5q1 0 3 0.5t4 0.5q10 0 17 -14
q-28 -37 -55.5 -68t-49.5 -63.5t-35.5 -68.5t-13.5 -83q33 0 63 6t62 6q4 0 15 -1t14 -1q3 -2 7 -12t4 -14q-3 -14 -12 -25t-19.5 -22.5t-18.5 -23t-8 -26.5q0 -2 0.5 -4.5t0.5 -3.5q14 -1 28.5 -1t26 -4t19 -13t7.5 -27v-9q0 -7 -1 -9q-24 -29 -49 -59t-44.5 -62.5t-32 -68
t-12.5 -76.5v-13q0 -8 0.5 -17.5t0.5 -18.5v-10q5 -17 12 -25t15.5 -12t19 -4.5t21.5 -0.5q16 0 28.5 1.5t24 6t23.5 12.5t26 22q1 -2 1 -8v-6q0 -18 -12 -32.5t-29.5 -24.5t-36 -15.5t-30.5 -5.5q-29 0 -49 11t-33 31t-19.5 46t-6.5 55z" />
    <glyph glyph-name="bar" unicode="|" horiz-adv-x="151" 
d="M11 591v13q0 8 1 15.5t5.5 13.5t11.5 6q5 0 10.5 -3t7.5 -11q12 -85 17.5 -173t16.5 -174q3 -15 6.5 -41.5t7.5 -52.5t6.5 -45.5t3.5 -22.5q0 -3 3.5 -13t8 -22t7.5 -22t4 -13q0 -1 0.5 -5.5t0.5 -6.5q0 -12 -4 -19.5t-20 -14.5q-12 5 -17 21.5t-7 24.5l-69 522
q0 2 -0.5 10.5t-0.5 12.5z" />
    <glyph glyph-name="braceright" unicode="}" horiz-adv-x="319" 
d="M122 -40q0 13 10.5 24t26.5 23l34 25.5t33.5 30.5t26 39t10.5 51q0 30 -20 50t-46.5 32.5t-54 19t-42.5 10.5q-1 3 -1.5 12.5t-0.5 14.5q0 17 7.5 28.5t16.5 22t17 21t8 26.5q0 14 -7.5 18.5t-17.5 5t-22.5 -1.5t-22.5 -0.5t-17.5 8.5t-7.5 24q0 1 0.5 3t0.5 3q5 5 17 20
t24.5 32t24 32.5t16.5 21.5q1 2 7 12.5t13.5 23t14 24.5t11.5 19q6 11 9 17.5t3 16.5q0 14 -5.5 33t-18.5 26h-8q-5 0 -12 0.5t-13 0.5h-8q-25 0 -47 -7t-46 -7q-10 0 -14 8.5t-4 18.5q0 12 6.5 22t16 17t20.5 11t21 4q30 0 57 -6.5t47 -21.5t32 -39t12 -60q0 -8 -0.5 -20.5
t-1.5 -13.5l-92 -159v-15h21q12 0 23 -3.5t18.5 -11.5t7.5 -22q0 -15 -6 -28.5t-13 -25.5t-13 -25t-6 -28q0 -2 0.5 -6t1.5 -6q28 -11 52 -26t41 -35.5t26.5 -47t9.5 -59.5q0 -29 -13.5 -62.5t-35 -61.5t-48.5 -47.5t-54 -19.5q-6 0 -15.5 2t-9.5 12z" />
    <glyph glyph-name="asciitilde" unicode="~" horiz-adv-x="504" 
d="M66 546q-3 27 4 53t22 46.5t38 32t53 9.5q26 0 46 -16.5t39.5 -35.5t40.5 -35t50 -16q24 0 39 11.5t26 25t19.5 25t19.5 11.5q0 -58 -31 -82t-78 -24q-34 0 -56.5 14.5t-41 32t-36.5 32t-42 14.5q-20 0 -33 -11.5t-21 -28.5t-12 -37.5t-6 -36.5q-5 -4 -11.5 -8.5
t-13.5 -4.5q-9 0 -12 10.5t-3 18.5z" />
    <glyph glyph-name="nonbreakingspace" unicode="&#xa0;" horiz-adv-x="461" 
 />
    <glyph glyph-name="exclamdown" unicode="&#xa1;" horiz-adv-x="144" 
d="M61.0586 542.145q0 -8.22363 0.543945 -26.3184q0.543945 -18.0938 0.543945 -40.2998v-95.4033q0 -23.0293 -0.543945 -40.7119t-0.543945 -26.7295q-1.08691 -6.5791 -3.26172 -27.1406t-6.52441 -47.7021t-8.69922 -58.3936t-8.69922 -58.3945
q-4.34961 -27.1406 -7.06836 -47.7012q-2.71777 -20.5615 -3.80566 -27.1416q0 -0.822266 -0.543945 -4.93457t-0.543945 -5.75684q0 -7.40234 4.34961 -13.1592t15.2246 -5.75684q13.0488 0 19.5723 10.6914q7.6123 60.0391 16.3115 124.601
q8.69922 64.5625 16.3115 131.181q7.61133 66.6191 12.5049 132.826t4.89355 127.891q0 17.2715 -26.0977 17.2715q-10.875 0 -18.4863 -3.29004t-5.4375 -15.627zM73.0205 709.102q0 -8.22363 8.15527 -11.9248q8.15625 -3.70117 16.8555 -3.70117q17.3984 0 22.291 6.5791
q4.89355 6.58008 4.89355 18.0947q0 8.22363 -3.2627 16.4482q-3.26172 8.22461 -16.3105 8.22461q-7.61133 0 -13.5928 -3.70117q-5.98047 -3.70117 -10.3301 -9.45801t-6.52441 -11.5137q-2.1748 -5.75781 -2.1748 -9.04785z" />
    <glyph glyph-name="cent" unicode="&#xa2;" horiz-adv-x="347" 
d="M127 541v12q0 8 1.5 15.5t5.5 13.5t11 6q5 0 10.5 -3t7.5 -10q5 -40 7.5 -74t4.5 -66q18 21 36.5 34.5t35.5 13.5q9 -6 6.5 -19.5t-13.5 -32.5t-27 -43t-34 -50q1 -14 3 -29t3 -31q8 -58 20 -110.5t21 -95.5q17 12 31 26t25.5 27t21 21t18.5 8q0 -46 -25 -78t-63 -50
q6 -40 2 -63t-26 -26q-8 4 -12.5 26.5t-7.5 44.5q-33 -9 -69 -9q-28 0 -46.5 15.5t-28.5 38.5t-13.5 50t-3.5 51q0 9 9 35.5t24.5 60.5t36.5 72.5t44 71.5l-15 123q0 1 -0.5 10t-0.5 14zM143 44q23 0 41 6l-30 252q-26 -39 -48 -79t-29 -75.5t6.5 -62.5t59.5 -41z" />
    <glyph glyph-name="sterling" unicode="&#xa3;" horiz-adv-x="638" 
d="M21 57q0 11 1 24.5t6 25.5t15 21t27 11l150 23q1 0 5.5 9.5t6.5 13.5q2 5 6 18t6 17q0 14 1 47t3 69.5t4 69.5t4 47q1 13 6.5 36.5t16.5 46t26.5 39t37.5 16.5q11 0 20.5 -10.5t16.5 -25t11 -29t4 -22.5q0 -11 -9.5 -21t-20.5 -10q-6 0 -6 2l-22 59q-18 -11 -27.5 -30.5
t-13.5 -42.5t-5 -46t-1 -40q0 -1 -0.5 -7t0 -13t3 -12.5t8.5 -5.5h93l13 -13q-6 -14 -24 -18.5t-37.5 -6.5t-36 -5.5t-18.5 -15.5l-24 -116l11 -11q1 -2 30.5 -7.5t70.5 -13t84 -15t71 -11.5q1 0 12.5 -0.5t16.5 -0.5q12 0 19 2.5t12 5.5t11 5.5t17 2.5q0 -24 -10.5 -43
t-35.5 -19q-38 0 -74 7.5t-72 17t-72 17.5t-74 8q-20 0 -36 -8t-29 -20t-25 -26t-25.5 -26t-30.5 -20t-40 -8q-17 0 -31 2.5t-24.5 8.5t-16 17.5t-5.5 29.5zM56 58q0 -9 4 -13.5t10.5 -7t14 -3t14.5 -0.5q16 0 32 7.5t29.5 18.5t23 26t13.5 30h-22q-15 0 -35 -1.5t-39 -6.5
t-32 -17t-13 -33z" />
    <glyph glyph-name="currency" unicode="&#xa4;" horiz-adv-x="493" 
d="M147 76q0 3 1.5 9.5t2.5 6.5l20 38q-16 9 -26 25t-16 35.5t-7.5 40.5t-1.5 41q0 28 1.5 67.5t11.5 77.5q-17 16 -32.5 31.5t-27 32t-17 32.5t-2.5 33l14 -2q9 -10 31.5 -34t48.5 -53q16 29 41 48.5t67 19.5q41 0 68 -9t43 -26q5 8 8 13t5 8q3 7 8.5 16t12.5 17t15.5 12.5
t19.5 2.5l-7 -33q-7 -15 -17.5 -32t-22.5 -37q7 -18 9 -40.5t2 -46.5q0 -34 -8 -72t-25 -72q19 -19 41.5 -39.5t45.5 -41.5q0 -4 -3.5 -9.5t-9 -10t-11 -8.5t-10.5 -3q-2 0 -3.5 1t-2.5 1l-9 12t-15 18.5t-20 23.5t-22 24q-23 -32 -55.5 -53t-76.5 -21h-6l-29 -56l-27 -19
q-10 4 -9.5 14t2.5 17zM272 477q-35 0 -59 -17.5t-38 -45.5t-18 -62.5t-1 -68t13.5 -62t26 -45.5t35.5 -17.5t43 22.5t48 72.5t51 134.5q-6 8 -16.5 23t-23.5 29.5t-28.5 25.5t-32.5 11z" />
    <glyph glyph-name="yen" unicode="&#xa5;" horiz-adv-x="451" 
d="M7 855q15 22 27.5 17.5t18.5 -17.5q5 -11 17 -32.5t27 -49t31.5 -57.5t31.5 -57.5t26.5 -49.5t17.5 -32q3 -5 9.5 -14.5t14 -19t15.5 -17.5t15 -9h3q2 0 2 2l104 417l46 -23q-29 -51 -47 -111.5t-32 -123t-25.5 -122t-25.5 -110.5q0 -1 2 -19h37q15 0 30 -2t26.5 -8.5
t11.5 -18.5q0 -10 -7 -13.5t-16 -3.5q-22 0 -41.5 0.5t-38.5 2.5q2 -10 2 -21v-24l143 -2q7 0 10 -6.5t3 -11.5q0 -10 -9 -19t-21 -9t-18 12h-51q-14 0 -28 -0.5t-29 -0.5q0 -51 -3 -122.5t-7 -167.5q-1 -8 -7.5 -10t-10.5 -1q-12 1 -20.5 10t-7.5 21q1 10 14 17
q0 2 0.5 9.5t1 15.5t1 15.5t0.5 11.5q0 9 1 29t2 47.5t1.5 59.5t0.5 64q-39 -2 -77 -3.5t-71 -1.5q-22 0 -22 23q0 11 4 17t20 6l145 -2q0 13 -0.5 25t-1.5 23q-32 3 -65 4.5t-76 -0.5q-12 6 -12 18v3q0 1 1 3q40 4 75.5 6.5t71.5 4.5q-2 27 -8 34q-33 39 -67.5 93
t-65.5 109.5t-57.5 106.5t-41.5 85z" />
    <glyph glyph-name="brokenbar" unicode="&#xa6;" horiz-adv-x="151" 
d="M76 309q4 -48 12 -96t17 -97q0 -3 3.5 -13t8 -22t7.5 -22t4 -13q0 -1 0.5 -5.5t0.5 -6.5q0 -12 -4 -19.5t-20 -14.5q-12 5 -17 21.5t-7 24.5l-37 259zM12 568q0 2 -0.5 10.5t-0.5 12.5v13q0 8 1 15.5t5.5 13.5t11.5 6q5 0 10.5 -3t7.5 -11q3 -24 6.5 -57.5t7 -70t6 -71.5
t4.5 -59z" />
    <glyph glyph-name="section" unicode="&#xa7;" horiz-adv-x="447" 
d="M105 -18q0 11 2 20t6.5 12t11 0t16.5 -16q18 0 42 2t50 6.5t51.5 13t45 21.5t31.5 32t12 44t-23 37t-58.5 18.5t-76 12.5t-75.5 19.5t-58.5 39t-23.5 71.5q0 31 11 53.5t37 42.5q7 6 23.5 17.5t37 26t43 30.5t43.5 30q-34 5 -69.5 12.5t-64.5 21t-47.5 38.5t-18.5 65
q0 32 11.5 54.5t37.5 41.5q10 8 37.5 28t59 42.5t60 42t40.5 26.5q2 0 5.5 0.5t5.5 0.5q25 0 25 -23q0 -11 -18 -23.5t-45.5 -27.5t-59.5 -32.5t-59.5 -37.5t-45.5 -43.5t-18 -50.5q0 -29 15 -41.5t44 -22.5q1 -2 17 -7t38.5 -11t48.5 -12.5t48.5 -12.5t38.5 -10t17 -5
q26 -15 43 -31t17 -44t-14.5 -51.5t-38.5 -42.5t-54 -33t-61 -23.5t-61 -14.5t-52 -5q-11 0 -20.5 0.5t-16.5 3.5q5 -15 18.5 -23t35.5 -16q12 -3 41.5 -11.5t63 -17.5t63 -17.5t41.5 -10.5q26 -16 42.5 -31.5t16.5 -44.5q0 -28 -14.5 -51.5t-38 -41.5t-54 -32.5t-61.5 -24
t-60.5 -14t-52.5 -4.5q-22 0 -28 6t-6 29zM319 502q-18 -13 -49 -29t-62.5 -34.5t-59.5 -40t-43 -46.5q16 -9 42 -12t55 -1t59 10.5t53.5 23t39 34.5t15.5 47q0 18 -14 29.5t-36 18.5z" />
    <glyph glyph-name="dieresis" unicode="&#xa8;" horiz-adv-x="313" 
d="M52 655q0 16 9 28.5t26 12.5q16 0 26.5 -6t10.5 -24q0 -20 -13.5 -37t-34.5 -17q-9 0 -13.5 4.5t-7 11t-3 14t-0.5 13.5zM175 655q0 16 8.5 28.5t25.5 12.5q16 0 26.5 -6t10.5 -24q0 -20 -13.5 -37t-34.5 -17q-8 0 -13 4.5t-7.5 11t-2.5 14v13.5z" />
    <glyph glyph-name="copyright" unicode="&#xa9;" horiz-adv-x="544" 
d="M45 331q8 60 17.5 117.5t33 102t66.5 71.5t119 27q62 0 105 -33t70 -82.5t39 -106t12 -105.5q0 -53 -23.5 -101.5t-63 -86.5t-92.5 -60.5t-111 -22.5q-51 0 -83.5 27t-52.5 67.5t-28 87.5t-8 86v12zM78 321q0 -35 7 -76.5t24 -76.5t46.5 -58.5t74.5 -23.5t84.5 17.5
t70.5 45.5t52 64t30 73q-15 -26 -40.5 -48.5t-55 -39t-60 -26t-57.5 -9.5q-29 0 -49.5 18t-33 44t-18 56t-5.5 54q0 10 6 29t16.5 43t25.5 49t33 45t38.5 33t42.5 13q-11 -21 -32.5 -48t-42 -58t-36 -63t-16.5 -63t16.5 -60t63.5 -53q34 0 65.5 18.5t58.5 43.5t49 48.5
t37 32.5q-1 39 -12 86.5t-34.5 88t-60.5 67.5t-90 27q-38 0 -67 -14t-51 -37.5t-37.5 -53.5t-25 -63t-13.5 -65.5t-4 -59.5z" />
    <glyph glyph-name="ordfeminine" unicode="&#xaa;" horiz-adv-x="254" 
d="M16.1973 363.111q0 11.1846 3.33008 27.7686t9.73438 34.5186q6.4043 17.9336 16.3945 36.0615q9.99023 18.127 22.7988 32.5898q12.8076 14.4629 29.2021 23.333q16.3945 8.87109 35.8633 8.87109q0 -5.39941 -5.8916 -10.6064q-5.8916 -5.20605 -13.3203 -10.0273
t-15.1143 -9.25684q-7.68457 -4.43457 -10.7588 -8.29199q-12.2959 -11.9561 -22.0303 -26.4189t-16.9062 -29.6973q-7.17285 -15.2344 -11.2715 -31.2402t-4.09863 -31.0479q0 -2.31348 1.02441 -7.13477t2.81836 -9.83496q1.79297 -5.01367 4.86621 -8.67773
q3.07422 -3.66406 6.66113 -3.66406h1.53613q0.512695 0 1.02539 0.385742q13.833 11.5703 23.0547 25.0693t15.8818 27.9619t11.2715 29.5049q4.61133 15.041 9.22168 29.6973q1.53711 4.24219 1.28125 12.7275t1.02441 16.584q1.28125 8.09961 5.37988 14.0771
q4.09863 5.97852 14.8574 5.97852q2.04883 0 4.86719 -0.193359q2.81738 -0.192383 2.81738 -0.578125q18.9561 -29.6973 32.2764 -50.3311q13.3213 -20.6338 22.543 -34.1328t14.8574 -21.2129t8.45312 -11.7627q2.81836 -4.0498 3.84277 -5.40039
q1.02441 -1.34961 1.02441 -2.12109q0.512695 -1.54199 1.02539 -5.5918q0.511719 -4.0498 0.768555 -8.48535q0.255859 -4.43555 0.511719 -8.48535q0.256836 -4.04883 0.256836 -5.20605q-5.12402 0 -11.2715 0.385742q-6.14844 0.385742 -8.70996 5.01367
l-65.5781 102.591l-5.63574 4.62891q-1.53711 -4.24316 -5.8916 -15.042t-9.22168 -22.9482q-4.86719 -12.1484 -8.96582 -22.9482q-4.09863 -10.7988 -5.63574 -15.041q-3.07422 -5.78516 -7.94141 -16.1992q-4.86719 -10.4131 -12.0391 -20.8262
q-7.17285 -10.4131 -16.3945 -18.127q-9.22266 -7.71387 -20.4932 -7.71387q-9.22266 0 -15.3701 4.43555q-6.14844 4.43555 -10.2471 10.9922q-4.09863 6.55566 -5.8916 13.498t-1.79297 11.5713z" />
    <glyph glyph-name="guillemotleft" unicode="&#xab;" horiz-adv-x="590" 
d="M212 304q-10 4 -9.5 12t2.5 14q5 16 20 32.5t36 34t45 37t45.5 41t39.5 46t26 52.5q1 0 2.5 -0.5t2.5 -0.5q7 -1 10 -5.5t3 -10t-2 -11.5t-3 -11q-4 -18 -8.5 -28t-17.5 -25q-8 -9 -27 -29.5t-40.5 -43.5t-41 -43t-27.5 -28q2 -1 8 -5t12.5 -8t12.5 -7l9 -4
q8 -3 24.5 -10.5t38 -17t44.5 -19.5t44.5 -19t38.5 -17t25 -10q9 -6 8.5 -12.5t-2.5 -14.5q-5 -24 -30 -16q-10 3 -16 7t-15 14zM60 274q-10 3 -9.5 11.5t2.5 14.5q5 16 20 32t36 33.5t45 37t45.5 41t39 46.5t26.5 53l2 -0.5t3 -0.5q7 -2 10 -6.5t3 -10t-2 -11.5t-3 -11
q-4 -18 -8.5 -28t-17.5 -25q-8 -8 -27 -29t-40.5 -43.5t-41 -42.5t-27.5 -28q2 -2 8 -5.5t12.5 -7.5t12.5 -8l8 -3q9 -4 25.5 -11t38 -16.5t44.5 -20t44.5 -19.5t38 -16.5t25.5 -10.5q9 -5 8.5 -11.5t-2.5 -14.5q-6 -24 -30 -16q-10 2 -16 6t-15 14z" />
    <glyph glyph-name="logicalnot" unicode="&#xac;" horiz-adv-x="571" 
d="M451 175q0 3 -0.5 19.5t-1.5 38.5t-2.5 47t-2 46t-1.5 35t-2 14l-370 -4l-1 48l23 1q22 1 57.5 2t79.5 2.5t87 2.5t79.5 2t57.5 2q16 2 23 -9t7 -26l9 -217q-5 -4 -12 -7q-5 -2 -12.5 -2t-17.5 5z" />
    <glyph glyph-name="uni00AD" unicode="&#xad;" horiz-adv-x="507" 
d="M50 447q23 4 53.5 6t62.5 4t62 3.5t53 2.5q2 0 14.5 0.5t28 1t31.5 0.5h45q14 0 29.5 -0.5t29 -1t19.5 -0.5q4 -1 8.5 -9.5t3.5 -13.5q0 -4 -9 -13t-14 -9q-12 0 -36 0.5t-56 0.5h-130q-31 0 -55 -0.5t-36 -0.5q-20 -2 -40 -3t-40 -3q-2 0 -7.5 -0.5t-11.5 -1t-11.5 -1
t-7.5 -0.5q0 9 2 22t12 16z" />
    <glyph glyph-name="registered" unicode="&#xae;" horiz-adv-x="477" 
d="M17 278q5 41 9.5 83.5t11.5 84t19.5 79t35 65t56.5 44.5t84 17q41 0 72.5 -17.5t54 -46.5t36.5 -66.5t22.5 -77.5t12.5 -79.5t4 -71.5q1 -50 -16 -101.5t-48.5 -94.5t-77.5 -70t-104 -27q-50 0 -83 27t-53 67.5t-28 87.5t-8 86v11zM50 269q0 -35 7 -76.5t24 -76.5
t46.5 -58.5t74.5 -23.5t79 20.5t58 52t38.5 71t20.5 78.5q-31 4 -60 5t-58 1t-57.5 0.5t-56.5 2.5q0 -11 2.5 -23t2.5 -24q0 -2 -2 -6.5t-4.5 -9.5t-6 -9t-8.5 -4q-9 0 -11 4l-4 16l-4 16q-1 7 -2 23t-3.5 35.5t-4.5 41.5t-4 42t-3.5 35.5t-1.5 23.5q-9 8 -8.5 20t0.5 20v14
q0 10 1 13q1 2 6.5 3.5t8.5 1.5q10 -2 14.5 -7.5t6.5 -11t5 -10t11 -4.5q45 17 75.5 16.5t49.5 -11t27 -27t10 -31.5q1 -17 -10.5 -32.5t-28.5 -30.5t-35.5 -30.5t-30.5 -31.5q29 0 46.5 1t33 2.5t33 2t46.5 0.5q3 0 10.5 -0.5t16.5 -0.5q0 5 0.5 8t0.5 7q0 39 -6 92.5
t-24.5 101.5t-53 81.5t-88.5 33.5q-38 0 -66 -18t-48 -47.5t-32.5 -67t-19.5 -76t-10 -75t-3 -63.5zM149 429q1 -8 3.5 -29t4 -44.5t4 -45t3.5 -29.5q14 14 32 31t33.5 35t25.5 36.5t10 36.5q0 15 -17.5 23.5t-40.5 8.5q-5 0 -15 -1t-19.5 -3t-16.5 -5.5t-7 -8.5v-5z" />
    <glyph glyph-name="macron" unicode="&#xaf;" horiz-adv-x="410" 
d="M63 666q22 4 35 4.5t23.5 0t23 -0.5t36.5 1q2 1 14.5 1.5t27.5 1t31 0.5h45q14 0 30 -0.5t30 -1t19 -1.5q4 -1 8.5 -9.5t3.5 -12.5q-1 -5 -9.5 -14t-13.5 -10q-18 1 -45 3.5t-55.5 4.5t-55.5 3.5t-45 0.5q-19 -2 -40 -2.5t-41 -3.5q-1 0 -6.5 -0.5t-12 -1t-12 -1
t-6.5 -0.5q0 9 1.5 21.5t13.5 16.5z" />
    <glyph glyph-name="degree" unicode="&#xb0;" horiz-adv-x="313" 
d="M46 472q0 14 1.5 39t10.5 51t28.5 44.5t56.5 18.5q33 0 53.5 -11.5t31 -28t14.5 -36t4 -34.5q0 -17 -5.5 -37.5t-18.5 -38t-35 -29t-57 -11.5q-21 0 -37 7.5t-26.5 18.5t-15.5 24t-5 23zM70 477q17 -38 43 -46t50.5 2.5t42.5 34.5t20.5 50t-15.5 49.5t-67 32.5
q-26 0 -41 -16t-22 -37t-9 -41.5t-2 -28.5z" />
    <glyph glyph-name="plusminus" unicode="&#xb1;" horiz-adv-x="423" 
d="M58 82q-12 6 -11 18v3l1 2q31 3 62 11t59 10q-1 8 -2.5 22.5t-3.5 29.5t-4 28.5t-2 19.5q-1 6 -1 14.5t-1.5 15.5t-5.5 12t-13 5q-25 0 -48.5 -6.5t-47.5 -6.5t-24 23q0 3 0.5 8.5t2 10t4 8t7.5 3.5h103q2 0 6 6.5t6 10.5v5q0 46 -6.5 91.5t-6.5 92.5q18 0 28 -23.5
t15.5 -54.5t8 -63t8.5 -48h10q26 0 46.5 4t39.5 8t36.5 4.5t36.5 -4.5q18 -5 16 -9.5t-16 -9t-36.5 -8t-47 -8.5t-48 -10.5t-37.5 -13.5q2 -15 5.5 -35t6 -42t4.5 -42.5t2 -35.5q11 1 21 1h46q15 0 30 -2.5t26.5 -8.5t10.5 -18q0 -10 -7.5 -14t-17.5 -4q-36 0 -66 1t-60 1.5
t-62.5 0t-72.5 -2.5z" />
    <glyph glyph-name="twosuperior" unicode="&#xb2;" horiz-adv-x="307" 
d="M136.859 515.394q0 2.0166 -0.288086 6.04883q-0.288086 4.0332 -0.575195 8.82129q-0.288086 4.78906 -0.576172 8.82227q-0.288086 4.03223 -0.288086 6.04883q-1.72754 5.04102 -5.18164 5.54492q-3.45508 0.503906 -8.06152 0.503906q-11.5166 0 -20.4414 -4.78906
q-8.9248 -4.78809 -15.834 -12.0977q-6.91016 -7.30957 -12.9561 -15.627t-12.3799 -15.627q-6.33398 -7.30859 -13.2432 -12.0977q-6.91016 -4.78906 -16.123 -4.78906q-2.87891 0 -6.0459 0.251953t-5.75781 1.00781q-2.5918 0.756836 -4.03125 3.27734t-0.287109 7.05664
q10.9395 15.123 21.5928 27.9775q10.6523 12.8535 23.3193 22.4316q12.668 9.57812 28.791 15.375q16.1221 5.79688 37.4268 5.79688t28.79 -12.0986q7.48633 -12.0977 7.48633 -29.7412q0 -25.2041 -8.34961 -52.6768t-20.7285 -54.4424
q-12.3799 -26.9688 -26.4873 -52.1729t-25.0479 -45.3682v-6.04883l166.983 46.8799q0.576172 0 3.16699 0.251953q2.5918 0.25293 3.74316 0.25293q4.03027 0 8.06152 -0.756836q4.03027 -0.755859 5.18164 -5.29297q0.576172 -2.01562 1.15234 -5.54492
q0.575195 -3.52832 1.15137 -7.05664q0.575195 -4.0332 0.575195 -8.06543h-62.7627l-154.892 -53.9375q0 30.2451 12.9561 58.4736q12.9551 28.2295 28.502 56.71q15.5469 28.4814 28.5029 56.9629q12.9551 28.4805 12.9551 59.7344z" />
    <glyph glyph-name="threesuperior" unicode="&#xb3;" horiz-adv-x="256" 
d="M104.748 307q-11.3213 0 -13.209 6.51953q-1.88672 6.52051 -2.51562 13.541q0 4.51465 0.314453 9.5293q0.314453 5.01562 2.20117 9.5293q1.8877 4.51367 5.66113 8.02441t10.6924 5.01465v-27.583q3.77344 -0.501953 7.54785 -1.00391
q2.51562 -0.500977 5.66016 -0.751953q3.14551 -0.250977 5.66113 0.250977q18.8691 2.50781 33.9639 11.2842q15.0957 8.77637 25.4736 21.0645q10.3779 12.2871 15.7236 26.5801q5.34668 14.2939 5.34668 28.3369v4.51367q0 4.01172 -0.314453 7.52246t-0.314453 6.77051
v4.26367q-6.29004 8.02441 -16.0391 10.2812t-19.8125 2.25684q-20.7559 0 -39.3105 -6.77051q-18.5537 -6.77148 -35.2217 -15.2969q-16.668 -8.52637 -30.8193 -15.2969q-14.1523 -6.77051 -26.7314 -6.77051v26.5811q3.77441 4.51367 11.3213 13.792
q7.54785 9.27832 16.9824 21.3145q9.43457 12.0371 19.498 25.3271q10.0635 13.291 19.498 25.3271q9.43457 12.0371 16.668 21.8164q7.23242 9.78027 10.3779 14.2939q1.88672 1.50391 5.03125 6.51953l12.5791 20.5625q3.77441 5.01562 5.03223 7.52344
q-1.88672 0.500977 -7.2334 0.751953q-5.3457 0.250977 -7.2334 0.250977q-15.0947 0 -28.6172 -5.76758q-13.5234 -5.76758 -26.417 -12.5381q-12.8936 -6.77148 -25.4736 -12.2881q-12.5791 -5.5166 -25.7871 -5.5166q-7.54785 0 -13.208 2.50781
q-5.66113 2.50781 -5.66113 9.02734q0 7.02148 10.3779 13.29q10.3779 6.26953 25.7881 11.2852q15.4092 5.01465 34.5928 9.52832t37.1094 7.27246t32.3916 4.51367t21.3848 1.75488q4.40332 0 12.5791 -0.25q8.17676 -0.250977 8.80566 -0.250977
q1.88672 -0.501953 4.71777 -2.75879q2.83008 -2.25684 2.83008 -3.25977q0 -0.500977 -2.83008 -5.01465q-2.83105 -4.51465 -4.71777 -6.52051q-2.51562 -3.51074 -10.3779 -13.29q-7.8623 -9.78027 -18.2402 -23.0703t-22.3281 -28.0859
q-11.9502 -14.7949 -22.3281 -27.834q-10.3779 -13.04 -18.5547 -23.0703t-10.0635 -13.04q-1.25781 -1.50391 -3.77344 -5.76758q-2.5166 -4.2627 -3.77441 -5.76758q12.5801 4.51367 22.0137 6.77051q9.43457 2.25684 18.2402 3.51074t17.9258 1.50488t21.0703 0.250977
q30.8193 0 49.374 -10.0303q18.5547 -10.0312 18.5547 -36.1104q0 -21.0645 -9.74902 -42.1279q-9.74902 -21.0645 -27.6748 -37.8652q-17.9258 -16.8018 -42.1406 -26.832t-52.5186 -10.0303z" />
    <glyph glyph-name="acute" unicode="&#xb4;" horiz-adv-x="229" 
d="M70 621l-13 -8q-10 5 -7.5 17.5t4.5 20.5q1 3 3 11t4 12q6 7 14.5 19.5l17 25t17 23.5t13.5 18q5 6 10.5 12.5t13 12.5t15 9t14.5 2l5 -2.5l5 -2.5z" />
    <glyph glyph-name="mu" unicode="&#xb5;" horiz-adv-x="407" 
d="M261 -6q-31 4 -56.5 24t-47 48.5t-38.5 63.5t-30 70t-22.5 67t-14.5 56q-2 -48 0.5 -96.5t5 -105t4.5 -124.5t0 -155q-11 -1 -21.5 -2.5t-14.5 7.5l-11 629l50 2q9 -3 15.5 -36.5t14.5 -82.5t19.5 -104.5t30 -103.5t47 -79.5t69.5 -31.5q16 4 26.5 25t16.5 48t9 53.5
t5 38.5q0 10 0.5 30.5t0.5 46.5v108q0 26 -0.5 46t-0.5 29q4 8 11.5 17t16.5 9l1 -1h2h3q0 -10 1.5 -31.5t2 -48.5t2 -56.5t2.5 -56.5t2 -48t2 -31q2 -22 6.5 -49t9 -54.5t8 -52t3.5 -41.5t-4.5 -22.5t-15.5 4.5q-3 2 -7 15.5t-8 29t-7 26.5t-4 8q-7 -21 -15.5 -39.5
t-19 -31.5t-23 -18t-26.5 1z" />
    <glyph glyph-name="paragraph" unicode="&#xb6;" horiz-adv-x="437" 
d="M319 13q-3 49 0 106t8 116t10 117.5t6 110.5q-6 -4 -13.5 -4t-14.5 2q-9 2 -17 5q0 -1 0.5 -9t1 -27t-0.5 -51.5t-4.5 -82.5t-11 -121.5t-18.5 -169.5l-33 -5q-6 1 -7.5 7.5t-1 15t2.5 16t2 10.5q0 33 2.5 64.5t5 62t5.5 61.5t3 64q0 5 -0.5 18t-0.5 18
q-21 -6 -37.5 -10.5t-32.5 -7.5t-33 -5t-37 -2q-38 0 -55 20.5t-17 55.5q0 79 42 113t119 34q11 0 31.5 -0.5t42 -2.5t42 -5.5t34.5 -9.5q13 0 25 -7.5t11 -22.5q2 -18 1 -52.5t-3.5 -77.5t-4.5 -90t-4.5 -90t-2.5 -77.5t1 -52.5v-7q0 -4 -2 -11t-6 -13.5t-9.5 -11
t-10.5 -4.5q-12 0 -18 13z" />
    <glyph glyph-name="periodcentered" unicode="&#xb7;" horiz-adv-x="229" 
d="M49 247q0 25 16 44t47 19q28 0 46.5 -9.5t18.5 -35.5q0 -16 -6 -31t-18 -27t-27 -19t-34 -7q-16 0 -24.5 6.5t-12.5 16.5t-5 21.5t-1 21.5z" />
    <glyph glyph-name="cedilla" unicode="&#xb8;" horiz-adv-x="342" 
d="M139 -247q0 9 0.5 16.5t3 10t6 0.5t8.5 -13q13 0 32.5 3.5t38 13.5t31.5 29t13 49q0 22 -12 31.5t-29 15t-37.5 10t-37.5 16t-29 32t-12 58.5q-3 32 2 39t10.5 1t8.5 -19.5t-4 -22.5q0 -24 8 -34.5t21 -17.5q6 -3 21.5 -10.5t32 -14.5t31.5 -14t20 -9q13 -11 21.5 -24.5
t8.5 -37.5q0 -34 -15.5 -59.5t-38 -42.5t-46.5 -25.5t-41 -8.5q-11 0 -13.5 5t-2.5 23z" />
    <glyph glyph-name="onesuperior" unicode="&#xb9;" horiz-adv-x="116" 
d="M40.2266 319.16q-0.697266 6.01953 -1.74219 18.9199q-1.04492 12.8994 -2.78613 29.0244q-1.74219 16.124 -3.4834 34.1836q-1.74219 18.0605 -3.4834 33.9697q-1.74219 15.9102 -2.43848 29.0244q-0.696289 13.1152 -1.39355 19.1348q-2.08984 17.6299 -5.9209 34.1846
q-3.83203 16.5547 -3.83203 33.7539q9.05664 0 17.416 -3.22461q8.36035 -3.22461 7.66406 -9.6748q1.39258 -7.73926 3.83105 -23.6494t5.57324 -36.1191q3.13477 -20.21 6.9668 -42.5693q3.83105 -22.3604 6.9668 -42.3545q3.13477 -19.9951 5.57324 -36.1191
q2.4375 -16.125 3.83105 -23.8652v-2.58008q0 -2.14941 -1.74121 -4.94434q-1.74219 -2.79492 -4.52832 -5.80469q-2.78711 -3.01074 -6.27051 -4.94531t-7.66309 -1.93457q-8.35938 0 -12.5391 5.58984z" />
    <glyph glyph-name="ordmasculine" unicode="&#xba;" horiz-adv-x="313" 
d="M46 472q0 14 1.5 39t10.5 51t28.5 44.5t56.5 18.5q33 0 53.5 -11.5t31 -28t14.5 -36t4 -34.5q0 -17 -5.5 -37.5t-18.5 -38t-35 -29t-57 -11.5q-21 0 -37 7.5t-26.5 18.5t-15.5 24t-5 23zM70 477q17 -38 43 -46t50.5 2.5t42.5 34.5t20.5 50t-15.5 49.5t-67 32.5
q-26 0 -41 -16t-22 -37t-9 -41.5t-2 -28.5z" />
    <glyph glyph-name="guillemotright" unicode="&#xbb;" horiz-adv-x="501" 
d="M244 73q0 3 0.5 9t1.5 8l83 84q16 15 21 21q3 4 7.5 9.5t8 10.5t5.5 10l2 4l-220 209h35l90 -67q25 -19 51 -38.5t49.5 -37.5t40.5 -30q8 -6 10.5 -8.5t2.5 -9.5l-1 -3v-3q-2 -3 -6 -12t-6 -10l-150 -175q-2 -1 -3 -1h-2q-14 0 -17 10t-3 20zM100 63q0 3 0.5 9t1.5 8
l51 51q17 17 32 32.5t20 21.5q4 4 8 9.5t7.5 11t5.5 9.5l3 5l-221 208h35l90 -67q25 -19 51 -38.5t49.5 -37.5t40.5 -30q8 -7 10.5 -9t2.5 -9l-1 -3v-3q-2 -3 -6 -12t-6 -11l-150 -174q-2 -1 -3 -1h-2q-13 0 -16 10t-3 20z" />
    <glyph glyph-name="onequarter" unicode="&#xbc;" horiz-adv-x="567" 
d="M395 46q0 3 -1.5 12.5t-2.5 20.5t-2 20.5t-2 12.5q-2 10 -2 16t-1.5 9t-4.5 4t-11 1q-17 0 -33.5 -5t-33 -10.5t-32 -10t-31.5 -4.5q-8 0 -14 5.5t-6 12.5v5q42 49 75.5 102t59.5 109q-4 13 -0.5 22t19.5 9q7 0 10.5 -2.5t4.5 -13.5l17 -161q2 -16 3.5 -19t10.5 -3
q25 0 48 7.5t43 7.5q10 0 16.5 -7t6.5 -15q0 -5 -1.5 -9.5t-7.5 -5.5q-26 1 -55.5 1t-55.5 -8v-4q0 -20 4.5 -39.5t4.5 -38.5q0 -3 0.5 -8t-0.5 -10t-3.5 -8t-8.5 -3q-10 0 -14 8zM76 21q0 8 4 14.5t9 13.5l163 534q2 6 12.5 16t20.5 10v-38q-5 -18 -17 -57t-27 -88
l-62 -207q-14 -50 -26 -88.5t-17 -57.5q-4 -11 -5 -22.5t-3.5 -23t-8.5 -21t-18 -14.5q-2 1 -5 4t-7 6.5t-7.5 7l-4.5 4.5t-1 3v4zM51 305q-2 10 -5 34.5t-6.5 52.5t-6.5 52.5t-4 34.5q-3 18 -8 36.5t-5 36.5q13 0 24.5 -4t10.5 -11q2 -8 5.5 -25t8 -38t9.5 -45t9.5 -45
t8 -38.5t5.5 -25.5v-2q0 -5 -8.5 -11.5t-20.5 -6.5q-11 0 -17 5zM277 154q9 0 26 1.5t34.5 5.5t30 8t11.5 9l-18 118l-84 -132v-10z" />
    <glyph glyph-name="onehalf" unicode="&#xbd;" horiz-adv-x="676" 
d="M101 16q0 9 3.5 16t8.5 14l162 534q2 5 13.5 15.5t21.5 10.5v-38q-6 -19 -18 -57.5t-27 -88.5l-63 -207q-14 -49 -25.5 -88t-17.5 -58q-2 -11 -3.5 -22.5t-4.5 -22.5t-8.5 -20.5t-18.5 -15.5q-3 2 -12 11t-10 12l-1 2v3zM447 274q0 3 -0.5 15.5t-1.5 16.5q-1 5 -5.5 6
t-11.5 1q-23 0 -37.5 -11t-26 -25t-24 -25.5t-30.5 -11.5q-7 0 -15 1.5t-4 12.5q13 16 27 31t30 25.5t37 17t49 6.5q27 0 37 -13.5t10 -34.5q0 -27 -11 -57.5t-27 -61t-34 -58.5t-32 -51v-8l214 53q1 0 4.5 0.5t5.5 0.5q5 0 10 -0.5t7 -5.5q1 -4 1 -7.5t1 -7.5q0 -5 1 -9
h-80l-201 -61q0 35 16.5 67t37 63.5t37 63t16.5 67.5zM49 272q-2 11 -5 39t-6.5 59.5t-6 60t-3.5 40.5q-2 20 -7 40.5t-5 40.5q12 0 22.5 -4t10.5 -12q0 -9 3.5 -28t7.5 -43.5t8.5 -51t9 -51t7 -44t4.5 -28.5v-5q0 -4 -7 -12t-18 -8q-10 0 -15 7z" />
    <glyph glyph-name="threequarters" unicode="&#xbe;" horiz-adv-x="734" 
d="M107.466 260q-11.748 0 -13.7061 7.51172q-1.95703 7.51172 -2.61035 15.6016q0 5.2002 0.326172 10.9785q0.327148 5.77734 2.28418 10.9785q1.95801 5.2002 5.87402 9.24512q3.91602 4.04395 11.0957 5.77832v-31.7803q3.91504 -0.578125 7.83105 -1.15625
q2.61133 -0.577148 5.87402 -0.866211q3.26367 -0.289062 5.87402 0.289062q19.5791 2.88867 35.2432 13.001q15.6631 10.1113 26.4326 24.2676q10.7686 14.1572 16.3154 30.625q5.54785 16.4678 5.54785 32.6465v5.2002q0 4.62305 -0.326172 8.66797t-0.326172 7.80078
v4.91113q-6.52637 9.24512 -16.6426 11.8447q-10.1162 2.60059 -20.5586 2.60059q-21.5371 0 -40.791 -7.80078q-19.2529 -7.7998 -36.5479 -17.623t-31.9795 -17.624q-14.6855 -7.7998 -27.7383 -7.7998v30.624q3.91602 5.2002 11.748 15.8896
q7.83203 10.6904 17.6211 24.5576q9.79004 13.8682 20.2324 29.1797q10.4424 15.3125 20.2324 29.1807q9.78906 13.8672 17.2949 25.1348t10.7686 16.4678q1.95801 1.7334 5.22168 7.51172l13.0527 23.6904q3.91602 5.77832 5.2207 8.66699
q-1.95801 0.578125 -7.50488 0.867188q-5.54785 0.289062 -7.50586 0.289062q-15.6631 0 -29.6953 -6.64551q-14.0322 -6.64453 -27.4111 -14.4453q-13.3799 -7.7998 -26.4326 -14.1562t-26.7588 -6.35645q-7.83105 0 -13.7051 2.88965q-5.87402 2.88867 -5.87402 10.4004
q0 8.08984 10.7686 15.3125t26.7588 13.001t35.8955 10.9785q19.9062 5.2002 38.5068 8.37793q18.6006 3.17871 33.6113 5.20117t22.1895 2.02246q4.56934 0 13.0537 -0.289062t9.13672 -0.289062q1.95801 -0.578125 4.89453 -3.17773q2.9375 -2.60059 2.9375 -3.75586
q0 -0.578125 -2.9375 -5.77832q-2.93652 -5.2002 -4.89453 -7.51172q-2.61035 -4.04492 -10.7686 -15.3125t-18.9268 -26.5801q-10.7686 -15.3115 -23.1689 -32.3574t-23.1689 -32.0693q-10.7695 -15.0234 -19.2539 -26.5791q-8.48438 -11.5566 -10.4424 -15.0234
q-1.30469 -1.7334 -3.91602 -6.64551q-2.61035 -4.91113 -3.91504 -6.64453q13.0527 5.2002 22.8418 7.80078q9.79004 2.59961 18.9277 4.04492q9.13672 1.44434 18.5996 1.7334q9.46387 0.288086 21.8643 0.288086q31.9795 0 51.2324 -11.5557
q19.2539 -11.5566 19.2539 -41.6035q0 -24.2686 -10.1162 -48.5371q-10.1162 -24.2676 -28.7168 -43.625q-18.6006 -19.3564 -43.7275 -30.9131t-54.4961 -11.5566zM208 37q0 8 3.5 14.5t9.5 14.5l162 533q1 7 13 16.5t21 9.5v-37q-6 -19 -17.5 -58t-27.5 -88l-62 -207
q-14 -50 -25.5 -88.5t-17.5 -57.5q-3 -11 -4 -22.5t-4 -23t-8.5 -21t-18.5 -14.5q-2 1 -5 4l-15 14q-2 4 -3 5q-1 2 -1 3v3zM558.609 18.6836q0 3.84082 -1.41895 13.4453q-1.41895 9.60352 -2.83789 20.168t-2.48242 20.168q-1.06445 9.60352 -1.77344 12.8047
q-2.12891 10.2441 -2.4834 16.0068t-1.06348 8.96387q-0.709961 3.20117 -3.90234 4.16113q-3.19238 0.960938 -10.9961 0.960938q-17.0254 0 -32.9873 -4.80176q-15.9619 -4.80273 -31.5684 -10.5645q-15.6074 -5.7627 -30.8594 -10.5645
q-15.2529 -4.80176 -30.8594 -4.80176q-7.09473 0 -13.834 6.08203q-6.73926 6.08301 -6.73926 13.126q0 0.639648 0.354492 1.91992q0.354492 1.28125 0.354492 1.9209q40.4365 49.9404 73.7793 103.723q33.3418 53.7812 57.4619 111.404
q-2.83789 11.5254 0.354492 21.1289t17.3809 9.60352q7.09473 0 10.6416 -2.88086t4.96582 -13.7656l16.3164 -161.985q1.41895 -16.6465 3.19238 -19.8477t10.9961 -3.20117q11.3506 0 23.4102 2.24023q12.0596 2.24121 23.0557 5.44238t21.9922 5.44238
q10.9961 2.24023 20.9277 2.24023q9.22168 0 15.252 -7.3623q6.03027 -7.36328 6.03027 -15.0459q0 -4.48242 -1.77344 -8.64355q-1.77344 -4.16211 -8.1582 -6.72266q-24.8301 1.9209 -53.5605 0.959961q-28.7314 -0.959961 -53.5605 -7.36328v-5.12207
q0 -19.8477 4.96582 -39.0557q4.96582 -19.207 4.96582 -39.6953v-8.32422t-0.709961 -9.60352q-0.708984 -4.48145 -3.54688 -7.68359q-2.83789 -3.20117 -9.22266 -3.20117q-7.80273 0 -12.0596 8.32422zM442.976 128.167q7.80371 0 24.8291 1.60059
q17.0254 1.60156 33.6973 5.12207q16.6709 3.52148 28.7305 7.68359q12.0605 4.16113 11.3516 9.28418l-16.3174 119.088l-82.291 -133.814v-8.96387z" />
    <glyph glyph-name="questiondown" unicode="&#xbf;" horiz-adv-x="385" 
d="M339.022 125.844q0 -18.8506 -8.47461 -34.0352q-8.47461 -15.1855 -22.0332 -25.1338q-13.5596 -9.94922 -31.0742 -15.1846q-17.5137 -5.23633 -36.7227 -5.23633q-35.0283 0 -61.582 7.85352q-26.5537 7.85449 -48.5879 21.9922t-40.6777 34.5596
q-18.6445 20.4209 -40.1133 45.5547q-2.25977 0 -6.7793 0.523438t-6.78027 0.523438q-9.03906 0 -18.0781 -4.71191q-9.04004 -4.71289 -9.04004 -15.1855q0 -32.4639 26.5537 -56.5508t63.2764 -39.7949q36.7236 -15.709 75.707 -23.5635
q38.9824 -7.85449 63.8418 -7.85449q71.1865 0 105.649 30.8945q34.4629 30.8936 34.4629 96.8691q0 42.9375 -16.3838 82.209t-38.9834 76.4482q-22.5986 37.1768 -44.0674 74.3545q-21.4688 37.1768 -32.7686 76.9717q-2.25977 7.33105 -10.1689 10.9961
q-7.91016 3.66504 -17.5146 4.18945q-9.60449 0.523438 -17.5137 0.523438h-11.2998q0 -31.417 11.2998 -59.6924q11.2988 -28.2764 27.6836 -54.9805q16.3838 -26.7051 35.5928 -52.3623t35.5938 -52.3623q16.3838 -26.7041 27.6836 -55.5039
q11.2988 -28.7988 11.2988 -62.3105zM233.938 592.913q-3.38965 -9.4248 -0.564453 -14.6611t7.90918 -7.85449q5.08496 -2.61816 11.8643 -3.1416q6.78027 -0.523438 11.2998 -0.523438q11.2998 0 23.1641 3.1416t11.8643 16.7559q0 5.23633 -4.51953 10.9961
t-11.2998 10.4727q-6.7793 4.71191 -13.5596 7.33008q-6.7793 2.61816 -10.1689 1.57129q-5.64941 -1.04688 -15.2539 -10.4727q-9.60449 -9.4248 -10.7354 -13.6143z" />
    <glyph glyph-name="Agrave" unicode="&#xc0;" horiz-adv-x="539" 
d="M24 -47q-9 0 -13 5t-5.5 12.5t-0.5 16t1 13.5l175 742q2 9 8.5 19.5t13.5 15.5q3 -9 9 -18.5t15 -16.5l278 -637q1 -1 1 -5v-6q0 -10 -4 -17.5t-14 -7.5q-13 0 -18 12l-70 162q0 1 -12.5 2.5t-19.5 1.5q-4 0 -11.5 -0.5t-15.5 -1t-14.5 -1.5t-7.5 -1q-23 -4 -59.5 -10.5
t-71.5 -14t-60.5 -13.5t-27.5 -8l-59 -231q-1 -7 -6 -10t-11 -3zM203 673l-2.5 -7.5t-3.5 -10t-3 -10.5t-2 -7q-7 -26 -15 -63l-35 -157q-9 -41 -15.5 -75t-11 -59t-4.5 -32q14 0 39 2t53.5 6.5t58 9.5t53 12t38.5 14.5t15 15.5q0 2 -0.5 6.5t-1.5 6.5zM191 975q1 1 5.5 2.5
t5.5 2.5q8 1 16.5 -2t16 -8.5t14 -11.5t11.5 -12q6 -7 15 -18t19 -23.5t19 -23.5t15 -18q2 -3 4.5 -11.5t3.5 -11.5q1 -7 4.5 -19t-7.5 -18l-15 8z" />
    <glyph glyph-name="Aacute" unicode="&#xc1;" horiz-adv-x="539" 
d="M24 -47q-9 0 -13 5t-5.5 12.5t-0.5 16t1 13.5l175 742q2 9 8.5 19.5t13.5 15.5q3 -9 9 -18.5t15 -16.5l278 -637q1 -1 1 -5v-6q0 -10 -4 -17.5t-14 -7.5q-13 0 -18 12l-70 162q0 1 -12.5 2.5t-19.5 1.5q-4 0 -11.5 -0.5t-15.5 -1t-14.5 -1.5t-7.5 -1q-23 -4 -59.5 -10.5
t-71.5 -14t-60.5 -13.5t-27.5 -8l-59 -231q-1 -7 -6 -10t-11 -3zM203 673l-2.5 -7.5t-3.5 -10t-3 -10.5t-2 -7q-7 -26 -15 -63l-35 -157q-9 -41 -15.5 -75t-11 -59t-4.5 -32q14 0 39 2t53.5 6.5t58 9.5t53 12t38.5 14.5t15 15.5q0 2 -0.5 6.5t-1.5 6.5zM141 815l-13 -8
q-10 5 -7.5 17.5t4.5 20.5q1 3 3 11t4 12q6 7 14.5 19.5l17 25t17 23.5t13.5 18q5 6 10.5 12.5t13 12.5t15 9t14.5 2l5 -2.5l5 -2.5z" />
    <glyph glyph-name="Acircumflex" unicode="&#xc2;" horiz-adv-x="539" 
d="M24 -47q-9 0 -13 5t-5.5 12.5t-0.5 16t1 13.5l175 742q2 9 8.5 19.5t13.5 15.5q3 -9 9 -18.5t15 -16.5l278 -637q1 -1 1 -5v-6q0 -10 -4 -17.5t-14 -7.5q-13 0 -18 12l-70 162q0 1 -12.5 2.5t-19.5 1.5q-4 0 -11.5 -0.5t-15.5 -1t-14.5 -1.5t-7.5 -1q-23 -4 -59.5 -10.5
t-71.5 -14t-60.5 -13.5t-27.5 -8l-59 -231q-1 -7 -6 -10t-11 -3zM203 673l-2.5 -7.5t-3.5 -10t-3 -10.5t-2 -7q-7 -26 -15 -63l-35 -157q-9 -41 -15.5 -75t-11 -59t-4.5 -32q14 0 39 2t53.5 6.5t58 9.5t53 12t38.5 14.5t15 15.5q0 2 -0.5 6.5t-1.5 6.5zM104 904
q7 13 17.5 38.5t22 53t22 52.5t16.5 40q3 9 4.5 19t4.5 18.5t8 14.5t18 6h6q4 0 5 -1l128 -157q24 6 30.5 -4t6.5 -24q0 -13 -7 -28t-24 -15q-22 14 -38.5 32.5t-30 38.5t-24 40t-19.5 36q-2 3 -11 7.5t-11 4.5t-6.5 -4.5t-5.5 -7.5l-89 -173q0 -1 -2 -1h-3q-12 0 -18 14z
" />
    <glyph glyph-name="Atilde" unicode="&#xc3;" horiz-adv-x="539" 
d="M24 -47q-9 0 -13 5t-5.5 12.5t-0.5 16t1 13.5l175 742q2 9 8.5 19.5t13.5 15.5q3 -9 9 -18.5t15 -16.5l278 -637q1 -1 1 -5v-6q0 -10 -4 -17.5t-14 -7.5q-13 0 -18 12l-70 162q0 1 -12.5 2.5t-19.5 1.5q-4 0 -11.5 -0.5t-15.5 -1t-14.5 -1.5t-7.5 -1q-23 -4 -59.5 -10.5
t-71.5 -14t-60.5 -13.5t-27.5 -8l-59 -231q-1 -7 -6 -10t-11 -3zM203 673l-2.5 -7.5t-3.5 -10t-3 -10.5t-2 -7q-7 -26 -15 -63l-35 -157q-9 -41 -15.5 -75t-11 -59t-4.5 -32q14 0 39 2t53.5 6.5t58 9.5t53 12t38.5 14.5t15 15.5q0 2 -0.5 6.5t-1.5 6.5zM44 856q-3 27 4 53
t22 46.5t38 32t53 9.5q26 0 46 -16.5t39.5 -35.5t40.5 -35t50 -16q24 0 39 11.5t26 25t19.5 25t19.5 11.5q0 -58 -31 -82t-78 -24q-34 0 -56.5 14.5t-41 32t-36.5 32t-42 14.5q-20 0 -33 -11.5t-21 -28.5t-12 -37.5t-6 -36.5q-5 -4 -11.5 -8.5t-13.5 -4.5q-9 0 -12 10.5
t-3 18.5z" />
    <glyph glyph-name="Adieresis" unicode="&#xc4;" horiz-adv-x="539" 
d="M24 -47q-9 0 -13 5t-5.5 12.5t-0.5 16t1 13.5l175 742q2 9 8.5 19.5t13.5 15.5q3 -9 9 -18.5t15 -16.5l278 -637q1 -1 1 -5v-6q0 -10 -4 -17.5t-14 -7.5q-13 0 -18 12l-70 162q0 1 -12.5 2.5t-19.5 1.5q-4 0 -11.5 -0.5t-15.5 -1t-14.5 -1.5t-7.5 -1q-23 -4 -59.5 -10.5
t-71.5 -14t-60.5 -13.5t-27.5 -8l-59 -231q-1 -7 -6 -10t-11 -3zM203 673l-2.5 -7.5t-3.5 -10t-3 -10.5t-2 -7q-7 -26 -15 -63l-35 -157q-9 -41 -15.5 -75t-11 -59t-4.5 -32q14 0 39 2t53.5 6.5t58 9.5t53 12t38.5 14.5t15 15.5q0 2 -0.5 6.5t-1.5 6.5zM96 884q0 16 9 28.5
t26 12.5q16 0 26.5 -6t10.5 -24q0 -20 -13.5 -37t-34.5 -17q-9 0 -13.5 4.5t-7 11t-3 14t-0.5 13.5zM219 884q0 16 8.5 28.5t25.5 12.5q16 0 26.5 -6t10.5 -24q0 -20 -13.5 -37t-34.5 -17q-8 0 -13 4.5t-7.5 11t-2.5 14v13.5z" />
    <glyph glyph-name="Aring" unicode="&#xc5;" horiz-adv-x="539" 
d="M112 831q0 13 1 38.5t9.5 51t28.5 44.5t57 19q33 0 53.5 -11.5t31.5 -28t14.5 -36t3.5 -34.5q0 -17 -5 -37.5t-18.5 -38t-35.5 -29.5q-17 -9 -41 -11q7 -9 16 -16l278 -637q1 -1 1 -5v-6q0 -10 -4 -17.5t-14 -7.5q-13 0 -18 12l-70 162q0 1 -12.5 2.5t-19.5 1.5
q-4 0 -11.5 -0.5t-15.5 -1t-14.5 -1.5t-7.5 -1q-23 -4 -59.5 -10.5t-71.5 -14t-60.5 -13.5t-27.5 -8l-59 -231q-1 -7 -6 -10t-11 -3q-9 0 -13 5t-5.5 12.5t-0.5 16t1 13.5l175 742q1 7 6 16q-16 1 -29 7q-16 7 -26.5 18.5t-15 24t-4.5 23.5zM203 673l-2.5 -7.5t-3.5 -10
t-3 -10.5t-2 -7q-7 -26 -15 -63l-35 -157q-9 -41 -15.5 -75t-11 -59t-4.5 -32q14 0 39 2t53.5 6.5t58 9.5t53 12t38.5 14.5t15 15.5q0 2 -0.5 6.5t-1.5 6.5zM135 836q17 -38 43 -46.5t50.5 2.5t42.5 34.5t20 50.5t-16 49.5t-66 31.5q-26 0 -41 -16t-22 -37t-9 -41.5
t-2 -27.5z" />
    <glyph glyph-name="AE" unicode="&#xc6;" horiz-adv-x="833" 
d="M34 17q-8 4 -9 10.5t1 13.5t6 14t7 12l386 647q10 13 17.5 16.5t13 -0.5t8.5 -14t3 -22l-3 -98q17 2 41 8.5t49 14t48.5 14.5t42.5 10h7q12 0 21 -5.5t9 -18.5q0 -2 -0.5 -5.5t-1.5 -5.5q-23 -1 -52.5 -5t-59.5 -10.5t-58 -18.5t-47 -30l-6 -254l3 -7l255 105
q21 -2 28.5 -5t6.5 -8t-8.5 -10.5t-15.5 -11.5q-14 -7 -50 -23t-77 -34.5t-77 -35t-50 -23.5q-7 -1 -9.5 -6.5t-3.5 -12t-0.5 -12t0.5 -8.5q0 -18 4.5 -39t7 -46t-0.5 -53.5t-19 -60.5q1 -1 -1 -5t-3 -5q-4 -10 -11 -15.5t-16 -0.5q-11 5 -11 19l-1 202q0 -1 -15 2t-38 6
t-50.5 6.5t-52 5t-43.5 -0.5t-25 -8l-128 -183q-5 -7 -10.5 -7t-11.5 2zM417 641q-22 -34 -43 -74.5t-41 -80.5t-38 -77.5t-32 -68t-24 -51t-14 -25.5q20 -9 52.5 -14t64 -6.5t54 2t22.5 11.5v19q-4 86 -6 145.5t-2.5 98t0.5 60t2 33.5t2.5 17t2.5 11zM807 98q-9 -3 -28 -8
t-42.5 -12t-50 -14.5t-50.5 -14.5t-43.5 -12.5t-28.5 -7.5q-23 -7 -34 -13l-18 -9q-7 -3 -17 -4.5t-32 -1.5q0 24 5 34.5t27 15.5l299 84z" />
    <glyph glyph-name="Ccedilla" unicode="&#xc7;" 
d="M173 -275q0 9 1 16.5t3 10t5.5 0.5t8.5 -13q13 0 32.5 3.5t38 13.5t31.5 29t13 49q0 22 -11.5 31.5t-29 15.5t-38 10.5t-37.5 15.5t-29 31.5t-12 58.5q0 3 -1 4q-30 5 -53 21q-31 25 -48.5 62t-24 81t-6.5 85q0 19 3 55t10 78.5t18.5 86t29 79t42 58.5t56.5 23
q0 -15 -5.5 -25t-13.5 -19t-17 -18.5t-18 -23.5q-18 -32 -31.5 -69.5t-22.5 -76t-12.5 -78t-3.5 -77.5q0 -26 2.5 -55.5t10.5 -57t24 -50t45 -34.5h13q9 0 19 -0.5t19 -0.5h13q12 0 40 2t56.5 8.5t50.5 19t22 35.5q0 12 -7 22.5t-7 24.5q10 0 21 -4.5t20 -11.5t15 -16.5
t6 -20.5q0 -18 -13.5 -33t-35 -27t-48 -20.5t-53 -14t-49 -8t-36.5 -2.5h-11l-2 -4q0 -24 8 -34.5t21 -17.5q7 -3 22 -10.5t31.5 -14.5t31.5 -14t21 -8q12 -12 20.5 -25.5t8.5 -37.5q0 -34 -15.5 -59.5t-38 -42.5t-46.5 -25.5t-41 -8.5q-11 0 -13.5 5t-2.5 23z" />
    <glyph glyph-name="Egrave" unicode="&#xc8;" horiz-adv-x="469" 
d="M40 499v126q2 1 9 1.5t9 0.5q10 0 14 -4t6 -8.5t4.5 -8.5t9.5 -4q16 0 40.5 6.5t51.5 14.5t53.5 15.5t45.5 10.5h8q12 0 20.5 -5.5t8.5 -18.5q0 -1 -0.5 -5t-0.5 -5q-26 -2 -59 -6t-66.5 -12.5t-62 -23.5t-45.5 -39v-66q0 -23 0.5 -50t2 -52t4 -45.5t6.5 -30.5l255 104
q21 -2 28.5 -5t6.5 -8t-8.5 -10.5t-15.5 -11.5q-14 -6 -50 -22.5t-77 -35t-77 -35t-50 -23.5q-8 -1 -10.5 -6t-3 -11t0 -12.5t0.5 -9.5q0 -29 7 -57t7 -58q0 -13 -9 -24.5t-30 -11.5zM446 104q-9 -2 -27.5 -7.5t-43 -12.5t-51 -14.5t-50.5 -14t-43.5 -12t-28.5 -8.5
q-23 -7 -33.5 -12.5t-18 -9t-17 -5t-30.5 -1.5q0 24 4.5 34.5t25.5 16.5l299 83zM156 975q1 1 5.5 2.5t5.5 2.5q8 1 16.5 -2t16 -8.5t14 -11.5t11.5 -12q6 -7 15 -18t19 -23.5t19 -23.5t15 -18q2 -3 4.5 -11.5t3.5 -11.5q1 -7 4.5 -19t-7.5 -18l-15 8z" />
    <glyph glyph-name="Eacute" unicode="&#xc9;" horiz-adv-x="469" 
d="M40 499v126q2 1 9 1.5t9 0.5q10 0 14 -4t6 -8.5t4.5 -8.5t9.5 -4q16 0 40.5 6.5t51.5 14.5t53.5 15.5t45.5 10.5h8q12 0 20.5 -5.5t8.5 -18.5q0 -1 -0.5 -5t-0.5 -5q-26 -2 -59 -6t-66.5 -12.5t-62 -23.5t-45.5 -39v-66q0 -23 0.5 -50t2 -52t4 -45.5t6.5 -30.5l255 104
q21 -2 28.5 -5t6.5 -8t-8.5 -10.5t-15.5 -11.5q-14 -6 -50 -22.5t-77 -35t-77 -35t-50 -23.5q-8 -1 -10.5 -6t-3 -11t0 -12.5t0.5 -9.5q0 -29 7 -57t7 -58q0 -13 -9 -24.5t-30 -11.5zM446 104q-9 -2 -27.5 -7.5t-43 -12.5t-51 -14.5t-50.5 -14t-43.5 -12t-28.5 -8.5
q-23 -7 -33.5 -12.5t-18 -9t-17 -5t-30.5 -1.5q0 24 4.5 34.5t25.5 16.5l299 83zM190 805l-13 -8q-10 5 -7.5 17.5t4.5 20.5q1 3 3 11t4 12q6 7 14.5 19.5l17 25t17 23.5t13.5 18q5 6 10.5 12.5t13 12.5t15 9t14.5 2l5 -2.5l5 -2.5z" />
    <glyph glyph-name="Ecircumflex" unicode="&#xca;" horiz-adv-x="469" 
d="M40 499v126q2 1 9 1.5t9 0.5q10 0 14 -4t6 -8.5t4.5 -8.5t9.5 -4q16 0 40.5 6.5t51.5 14.5t53.5 15.5t45.5 10.5h8q12 0 20.5 -5.5t8.5 -18.5q0 -1 -0.5 -5t-0.5 -5q-26 -2 -59 -6t-66.5 -12.5t-62 -23.5t-45.5 -39v-66q0 -23 0.5 -50t2 -52t4 -45.5t6.5 -30.5l255 104
q21 -2 28.5 -5t6.5 -8t-8.5 -10.5t-15.5 -11.5q-14 -6 -50 -22.5t-77 -35t-77 -35t-50 -23.5q-8 -1 -10.5 -6t-3 -11t0 -12.5t0.5 -9.5q0 -29 7 -57t7 -58q0 -13 -9 -24.5t-30 -11.5zM446 104q-9 -2 -27.5 -7.5t-43 -12.5t-51 -14.5t-50.5 -14t-43.5 -12t-28.5 -8.5
q-23 -7 -33.5 -12.5t-18 -9t-17 -5t-30.5 -1.5q0 24 4.5 34.5t25.5 16.5l299 83zM69 810q7 13 17.5 38.5t22 53t22 52.5t16.5 40q3 9 4.5 19t4.5 18.5t8 14.5t18 6h6q4 0 5 -1l128 -157q24 6 30.5 -4t6.5 -24q0 -13 -7 -28t-24 -15q-22 14 -38.5 32.5t-30 38.5t-24 40
t-19.5 36q-2 3 -11 7.5t-11 4.5t-6.5 -4.5t-5.5 -7.5l-89 -173q0 -1 -2 -1h-3q-12 0 -18 14z" />
    <glyph glyph-name="Edieresis" unicode="&#xcb;" horiz-adv-x="469" 
d="M40 499v126q2 1 9 1.5t9 0.5q10 0 14 -4t6 -8.5t4.5 -8.5t9.5 -4q16 0 40.5 6.5t51.5 14.5t53.5 15.5t45.5 10.5h8q12 0 20.5 -5.5t8.5 -18.5q0 -1 -0.5 -5t-0.5 -5q-26 -2 -59 -6t-66.5 -12.5t-62 -23.5t-45.5 -39v-66q0 -23 0.5 -50t2 -52t4 -45.5t6.5 -30.5l255 104
q21 -2 28.5 -5t6.5 -8t-8.5 -10.5t-15.5 -11.5q-14 -6 -50 -22.5t-77 -35t-77 -35t-50 -23.5q-8 -1 -10.5 -6t-3 -11t0 -12.5t0.5 -9.5q0 -29 7 -57t7 -58q0 -13 -9 -24.5t-30 -11.5zM446 104q-9 -2 -27.5 -7.5t-43 -12.5t-51 -14.5t-50.5 -14t-43.5 -12t-28.5 -8.5
q-23 -7 -33.5 -12.5t-18 -9t-17 -5t-30.5 -1.5q0 24 4.5 34.5t25.5 16.5l299 83zM137 839q0 16 9 28.5t26 12.5q16 0 26.5 -6t10.5 -24q0 -20 -13.5 -37t-34.5 -17q-9 0 -13.5 4.5t-7 11t-3 14t-0.5 13.5zM260 839q0 16 8.5 28.5t25.5 12.5q16 0 26.5 -6t10.5 -24
q0 -20 -13.5 -37t-34.5 -17q-8 0 -13 4.5t-7.5 11t-2.5 14v13.5z" />
    <glyph glyph-name="Igrave" unicode="&#xcc;" horiz-adv-x="121" 
d="M58 12q-1 19 -5 60.5t-8.5 94.5t-10 111t-10 110.5t-8 94.5t-4.5 61v7q0 5 -0.5 11.5t-0.5 12.5v18q0 6 0.5 12.5t0.5 11.5v8q2 10 9 12t14 2q2 0 6 -0.5t6 -0.5l46 -557q1 -3 2.5 -9t4 -14t3.5 -14t2 -9v-6q0 -6 -4 -11t-10 -9t-11.5 -6.5t-9.5 -2.5q-3 0 -7.5 4.5
t-4.5 7.5zM-16 975q1 1 5.5 2.5t5.5 2.5q8 1 16.5 -2t16 -8.5t14 -11.5t11.5 -12q6 -7 15 -18t19 -23.5t19 -23.5t15 -18q2 -3 4.5 -11.5t3.5 -11.5q1 -7 4.5 -19t-7.5 -18l-15 8z" />
    <glyph glyph-name="Iacute" unicode="&#xcd;" horiz-adv-x="121" 
d="M58 12q-1 19 -5 60.5t-8.5 94.5t-10 111t-10 110.5t-8 94.5t-4.5 61v7q0 5 -0.5 11.5t-0.5 12.5v18q0 6 0.5 12.5t0.5 11.5v8q2 10 9 12t14 2q2 0 6 -0.5t6 -0.5l46 -557q1 -3 2.5 -9t4 -14t3.5 -14t2 -9v-6q0 -6 -4 -11t-10 -9t-11.5 -6.5t-9.5 -2.5q-3 0 -7.5 4.5
t-4.5 7.5zM19 805l-13 -8q-10 5 -7.5 17.5t4.5 20.5q1 3 3 11t4 12q6 7 14.5 19.5l17 25t17 23.5t13.5 18q5 6 10.5 12.5t13 12.5t15 9t14.5 2l5 -2.5l5 -2.5z" />
    <glyph glyph-name="Icircumflex" unicode="&#xce;" horiz-adv-x="121" 
d="M58 12q-1 19 -5 60.5t-8.5 94.5t-10 111t-10 110.5t-8 94.5t-4.5 61v7q0 5 -0.5 11.5t-0.5 12.5v18q0 6 0.5 12.5t0.5 11.5v8q2 10 9 12t14 2q2 0 6 -0.5t6 -0.5l46 -557q1 -3 2.5 -9t4 -14t3.5 -14t2 -9v-6q0 -6 -4 -11t-10 -9t-11.5 -6.5t-9.5 -2.5q-3 0 -7.5 4.5
t-4.5 7.5zM-102 904q7 13 17.5 38.5t22 53t22 52.5t16.5 40q3 9 4.5 19t4.5 18.5t8 14.5t18 6h6q4 0 5 -1l128 -157q24 6 30.5 -4t6.5 -24q0 -13 -7 -28t-24 -15q-22 14 -38.5 32.5t-30 38.5t-24 40t-19.5 36q-2 3 -11 7.5t-11 4.5t-6.5 -4.5t-5.5 -7.5l-89 -173q0 -1 -2 -1
h-3q-12 0 -18 14z" />
    <glyph glyph-name="Idieresis" unicode="&#xcf;" horiz-adv-x="121" 
d="M58 12q-1 19 -5 60.5t-8.5 94.5t-10 111t-10 110.5t-8 94.5t-4.5 61v7q0 5 -0.5 11.5t-0.5 12.5v18q0 6 0.5 12.5t0.5 11.5v8q2 10 9 12t14 2q2 0 6 -0.5t6 -0.5l46 -557q1 -3 2.5 -9t4 -14t3.5 -14t2 -9v-6q0 -6 -4 -11t-10 -9t-11.5 -6.5t-9.5 -2.5q-3 0 -7.5 4.5
t-4.5 7.5zM-34 839q0 16 9 28.5t26 12.5q16 0 26.5 -6t10.5 -24q0 -20 -13.5 -37t-34.5 -17q-9 0 -13.5 4.5t-7 11t-3 14t-0.5 13.5zM89 839q0 16 8.5 28.5t25.5 12.5q16 0 26.5 -6t10.5 -24q0 -20 -13.5 -37t-34.5 -17q-8 0 -13 4.5t-7.5 11t-2.5 14v13.5z" />
    <glyph glyph-name="Eth" unicode="&#xd0;" horiz-adv-x="499" 
d="M31 298q-15 12 -16.5 23.5t7.5 21t26.5 17.5t38.5 14l-18 206q-2 0 -9.5 4.5t-15.5 10t-15 12.5t-7 13t9.5 15t21.5 17.5t23 15t16 6.5q15 0 18.5 -7t3.5 -16.5t1 -20t12 -15.5q35 -20 74 -41.5t78.5 -47t75 -54.5t62.5 -63.5t43 -74t16 -86.5q0 -44 -24 -88.5t-61 -80
t-82.5 -58t-88.5 -22.5q-13 0 -24.5 8t-11.5 22q0 3 19.5 10t48 18.5t62 28.5t62 41t48 56t19.5 73q0 28 -17 62.5t-44 68.5t-62.5 66.5t-71.5 57.5t-70.5 40t-60.5 15q0 -46 3 -91t8 -91q25 6 49.5 9t42.5 3t27.5 -2.5t4.5 -7t-27.5 -13.5t-67.5 -19q-9 -1 -26 -8
q8 -63 14 -125.5t6 -125.5q0 -13 -2.5 -21t-21.5 -16l-11 11l-24 256q-18 -10 -35 -18t-26 -9z" />
    <glyph glyph-name="Ntilde" unicode="&#xd1;" horiz-adv-x="574" 
d="M40 461q0 17 -4.5 32.5t-10.5 30t-10.5 29t-4.5 30.5q0 6 3.5 17.5t9 23t11.5 21.5t12 13q3 -1 9.5 -19t13.5 -40.5t13.5 -43t9.5 -24.5q6 -10 20.5 -29.5t32.5 -43.5t38 -50t38.5 -50t33.5 -43t22 -28q3 -4 20 -20t40 -37l45 -40q22 -20 35 -31q1 -2 10 -9.5t18.5 -16.5
t18.5 -16.5t11 -8.5q6 24 3 56t-3 58q0 47 -6 93.5t-12.5 92.5t-12.5 92.5t-6 93.5v11q0 8 0.5 16.5t0.5 15.5v10q7 12 18 12q12 0 16.5 -10.5t5 -23t-2 -24t-2.5 -12.5l59 -499q0 -14 -7 -22t-16 -13.5t-19 -7.5t-17 -3q-1 -1 -2 -1h-4q-6 0 -12.5 5.5t-12 12.5t-9.5 15.5
t-6 13.5q-10 11 -32.5 33.5t-49.5 50.5t-57.5 59.5t-58 60.5t-49 52t-31.5 34q-5 5 -17 19.5t-24.5 31.5t-24 32t-15.5 22v-35q0 -25 -0.5 -52.5t-0.5 -52.5v-35q0 -84 6 -166t6 -166v-4q-2 -3 -10.5 -12t-12.5 -11l-17 12v498zM92 730q-3 27 4 53t22 46.5t38 32t53 9.5
q26 0 46 -16.5t39.5 -35.5t40.5 -35t50 -16q24 0 39 11.5t26 25t19.5 25t19.5 11.5q0 -58 -31 -82t-78 -24q-34 0 -56.5 14.5t-41 32t-36.5 32t-42 14.5q-20 0 -33 -11.5t-21 -28.5t-12 -37.5t-6 -36.5q-5 -4 -11.5 -8.5t-13.5 -4.5q-9 0 -12 10.5t-3 18.5z" />
    <glyph glyph-name="Ograve" unicode="&#xd2;" horiz-adv-x="458" 
d="M17 278q5 41 9.5 83.5t11.5 84t19.5 79t35 65t56.5 44.5t84 17q41 0 72.5 -17.5t54 -46.5t36.5 -66.5t22.5 -76.5t12.5 -78t4 -71q0 -53 -17 -105.5t-48.5 -95t-77 -69t-103.5 -26.5q-50 0 -83 27t-53 67.5t-28 87.5t-8 86v11zM50 269q0 -35 7 -76.5t24 -76.5t46.5 -58.5
t74.5 -23.5q53 0 90.5 27t62 67.5t35.5 88.5t11 90q0 39 -6 92.5t-24.5 101.5t-53 81.5t-88.5 33.5q-38 0 -66 -18t-48 -47.5t-32.5 -67t-19.5 -76t-10 -75t-3 -63.5zM151 975q1 1 5.5 2.5t5.5 2.5q8 1 16.5 -2t16 -8.5t14 -11.5t11.5 -12q6 -7 15 -18t19 -23.5t19 -23.5
t15 -18q2 -3 4.5 -11.5t3.5 -11.5q1 -7 4.5 -19t-7.5 -18l-15 8z" />
    <glyph glyph-name="Oacute" unicode="&#xd3;" horiz-adv-x="458" 
d="M17 278q5 41 9.5 83.5t11.5 84t19.5 79t35 65t56.5 44.5t84 17q41 0 72.5 -17.5t54 -46.5t36.5 -66.5t22.5 -76.5t12.5 -78t4 -71q0 -53 -17 -105.5t-48.5 -95t-77 -69t-103.5 -26.5q-50 0 -83 27t-53 67.5t-28 87.5t-8 86v11zM50 269q0 -35 7 -76.5t24 -76.5t46.5 -58.5
t74.5 -23.5q53 0 90.5 27t62 67.5t35.5 88.5t11 90q0 39 -6 92.5t-24.5 101.5t-53 81.5t-88.5 33.5q-38 0 -66 -18t-48 -47.5t-32.5 -67t-19.5 -76t-10 -75t-3 -63.5zM184 805l-13 -8q-10 5 -7.5 17.5t4.5 20.5q1 3 3 11t4 12q6 7 14.5 19.5l17 25t17 23.5t13.5 18
q5 6 10.5 12.5t13 12.5t15 9t14.5 2l5 -2.5l5 -2.5z" />
    <glyph glyph-name="Ocircumflex" unicode="&#xd4;" horiz-adv-x="458" 
d="M17 278q5 41 9.5 83.5t11.5 84t19.5 79t35 65t56.5 44.5t84 17q41 0 72.5 -17.5t54 -46.5t36.5 -66.5t22.5 -76.5t12.5 -78t4 -71q0 -53 -17 -105.5t-48.5 -95t-77 -69t-103.5 -26.5q-50 0 -83 27t-53 67.5t-28 87.5t-8 86v11zM50 269q0 -35 7 -76.5t24 -76.5t46.5 -58.5
t74.5 -23.5q53 0 90.5 27t62 67.5t35.5 88.5t11 90q0 39 -6 92.5t-24.5 101.5t-53 81.5t-88.5 33.5q-38 0 -66 -18t-48 -47.5t-32.5 -67t-19.5 -76t-10 -75t-3 -63.5zM61 766q7 13 17.5 38.5t22 53t22 52.5t16.5 40q3 9 4.5 19t4.5 18.5t8 14.5t18 6h6q4 0 5 -1l128 -157
q24 6 30.5 -4t6.5 -24q0 -13 -7 -28t-24 -15q-22 14 -38.5 32.5t-30 38.5t-24 40t-19.5 36q-2 3 -11 7.5t-11 4.5t-6.5 -4.5t-5.5 -7.5l-89 -173q0 -1 -2 -1h-3q-12 0 -18 14z" />
    <glyph glyph-name="Otilde" unicode="&#xd5;" horiz-adv-x="458" 
d="M17 278q5 41 9.5 83.5t11.5 84t19.5 79t35 65t56.5 44.5t84 17q41 0 72.5 -17.5t54 -46.5t36.5 -66.5t22.5 -76.5t12.5 -78t4 -71q0 -53 -17 -105.5t-48.5 -95t-77 -69t-103.5 -26.5q-50 0 -83 27t-53 67.5t-28 87.5t-8 86v11zM50 269q0 -35 7 -76.5t24 -76.5t46.5 -58.5
t74.5 -23.5q53 0 90.5 27t62 67.5t35.5 88.5t11 90q0 39 -6 92.5t-24.5 101.5t-53 81.5t-88.5 33.5q-38 0 -66 -18t-48 -47.5t-32.5 -67t-19.5 -76t-10 -75t-3 -63.5zM36 730q-3 27 4 53t22 46.5t38 32t53 9.5q26 0 46 -16.5t39.5 -35.5t40.5 -35t50 -16q24 0 39 11.5t26 25
t19.5 25t19.5 11.5q0 -58 -31 -82t-78 -24q-34 0 -56.5 14.5t-41 32t-36.5 32t-42 14.5q-20 0 -33 -11.5t-21 -28.5t-12 -37.5t-6 -36.5q-5 -4 -11.5 -8.5t-13.5 -4.5q-9 0 -12 10.5t-3 18.5z" />
    <glyph glyph-name="Odieresis" unicode="&#xd6;" horiz-adv-x="458" 
d="M17 278q5 41 9.5 83.5t11.5 84t19.5 79t35 65t56.5 44.5t84 17q41 0 72.5 -17.5t54 -46.5t36.5 -66.5t22.5 -76.5t12.5 -78t4 -71q0 -53 -17 -105.5t-48.5 -95t-77 -69t-103.5 -26.5q-50 0 -83 27t-53 67.5t-28 87.5t-8 86v11zM50 269q0 -35 7 -76.5t24 -76.5t46.5 -58.5
t74.5 -23.5q53 0 90.5 27t62 67.5t35.5 88.5t11 90q0 39 -6 92.5t-24.5 101.5t-53 81.5t-88.5 33.5q-38 0 -66 -18t-48 -47.5t-32.5 -67t-19.5 -76t-10 -75t-3 -63.5zM131 839q0 16 9 28.5t26 12.5q16 0 26.5 -6t10.5 -24q0 -20 -13.5 -37t-34.5 -17q-9 0 -13.5 4.5t-7 11
t-3 14t-0.5 13.5zM254 839q0 16 8.5 28.5t25.5 12.5q16 0 26.5 -6t10.5 -24q0 -20 -13.5 -37t-34.5 -17q-8 0 -13 4.5t-7.5 11t-2.5 14v13.5z" />
    <glyph glyph-name="Oslash" unicode="&#xd8;" horiz-adv-x="458" 
d="M96 -12q0 10 5 18q3 7 11 16q-4 1 -7 4q-32 27 -52 67.5t-28 87.5t-8 86v11q5 41 9.5 83.5t11.5 84t19.5 79t35 65t56.5 44.5t84 17q41 0 72 -18l11 -6l10 30q1 7 16 19t29 12v-45q-7 -18 -18 -49q2 -4 6 -7q23 -29 37 -66.5t22.5 -76.5t12.5 -78t4 -71q0 -53 -17 -105.5
t-48.5 -95t-77 -69t-103.5 -26.5q-14 0 -25 2q-1 -2 -1 -5q-4 -13 -11.5 -24.5t-23.5 -17.5q-3 1 -7 5t-9.5 8.5t-9.5 8.5t-5 6t-1 3v3zM50 269q0 -35 7 -76.5t24 -76.5q16 -34 44 -57l179 534q-30 23 -75 23q-38 0 -66 -18t-48 -47.5t-32.5 -67t-19.5 -76t-10 -75t-3 -63.5
zM202 34q53 0 90.5 27t62 67.5t35.5 88.5t11 90q0 39 -6 92.5t-25 100.5q-12 32 -30 56q-12 -39 -29 -87q-19 -59 -40 -122.5t-40.5 -122.5t-34.5 -105t-22 -69q-2 -6 -4 -13q15 -3 32 -3z" />
    <glyph glyph-name="Ugrave" unicode="&#xd9;" 
d="M58 185q-1 16 -4 47.5t-6.5 71.5t-7 84t-7 84t-6.5 72t-4 47q0 2 -0.5 11.5t-0.5 12.5h36q1 -13 2.5 -40.5t4 -61.5t4.5 -72.5t4.5 -72.5t4.5 -61.5t3 -40.5q3 -30 9.5 -69t22.5 -72.5t41 -56.5t64 -23q33 0 57.5 21t41.5 54.5t27.5 74.5t17 80.5t9 73t2.5 52.5
q0 50 -7.5 94.5t-7.5 90.5q0 11 7.5 14.5t16.5 3.5q2 0 6 -0.5t6 -0.5q6 -22 8 -39.5t3.5 -33.5t1.5 -33v-37q0 -29 -1.5 -74.5t-7.5 -96.5t-18.5 -102.5t-34 -93.5t-55 -68t-80.5 -26q-35 0 -62 17.5t-45.5 44.5t-30 60t-14.5 64zM139 975q1 1 5.5 2.5t5.5 2.5q8 1 16.5 -2
t16 -8.5t14 -11.5t11.5 -12q6 -7 15 -18t19 -23.5t19 -23.5t15 -18q2 -3 4.5 -11.5t3.5 -11.5q1 -7 4.5 -19t-7.5 -18l-15 8z" />
    <glyph glyph-name="Uacute" unicode="&#xda;" 
d="M58 185q-1 16 -4 47.5t-6.5 71.5t-7 84t-7 84t-6.5 72t-4 47q0 2 -0.5 11.5t-0.5 12.5h36q1 -13 2.5 -40.5t4 -61.5t4.5 -72.5t4.5 -72.5t4.5 -61.5t3 -40.5q3 -30 9.5 -69t22.5 -72.5t41 -56.5t64 -23q33 0 57.5 21t41.5 54.5t27.5 74.5t17 80.5t9 73t2.5 52.5
q0 50 -7.5 94.5t-7.5 90.5q0 11 7.5 14.5t16.5 3.5q2 0 6 -0.5t6 -0.5q6 -22 8 -39.5t3.5 -33.5t1.5 -33v-37q0 -29 -1.5 -74.5t-7.5 -96.5t-18.5 -102.5t-34 -93.5t-55 -68t-80.5 -26q-35 0 -62 17.5t-45.5 44.5t-30 60t-14.5 64zM173 805l-13 -8q-10 5 -7.5 17.5t4.5 20.5
q1 3 3 11t4 12q6 7 14.5 19.5l17 25t17 23.5t13.5 18q5 6 10.5 12.5t13 12.5t15 9t14.5 2l5 -2.5l5 -2.5z" />
    <glyph glyph-name="Ucircumflex" unicode="&#xdb;" 
d="M58 185q-1 16 -4 47.5t-6.5 71.5t-7 84t-7 84t-6.5 72t-4 47q0 2 -0.5 11.5t-0.5 12.5h36q1 -13 2.5 -40.5t4 -61.5t4.5 -72.5t4.5 -72.5t4.5 -61.5t3 -40.5q3 -30 9.5 -69t22.5 -72.5t41 -56.5t64 -23q33 0 57.5 21t41.5 54.5t27.5 74.5t17 80.5t9 73t2.5 52.5
q0 50 -7.5 94.5t-7.5 90.5q0 11 7.5 14.5t16.5 3.5q2 0 6 -0.5t6 -0.5q6 -22 8 -39.5t3.5 -33.5t1.5 -33v-37q0 -29 -1.5 -74.5t-7.5 -96.5t-18.5 -102.5t-34 -93.5t-55 -68t-80.5 -26q-35 0 -62 17.5t-45.5 44.5t-30 60t-14.5 64zM54 904q7 13 17.5 38.5t22 53t22 52.5
t16.5 40q3 9 4.5 19t4.5 18.5t8 14.5t18 6h6q4 0 5 -1l128 -157q24 6 30.5 -4t6.5 -24q0 -13 -7 -28t-24 -15q-22 14 -38.5 32.5t-30 38.5t-24 40t-19.5 36q-2 3 -11 7.5t-11 4.5t-6.5 -4.5t-5.5 -7.5l-89 -173q0 -1 -2 -1h-3q-12 0 -18 14z" />
    <glyph glyph-name="Udieresis" unicode="&#xdc;" 
d="M58 185q-1 16 -4 47.5t-6.5 71.5t-7 84t-7 84t-6.5 72t-4 47q0 2 -0.5 11.5t-0.5 12.5h36q1 -13 2.5 -40.5t4 -61.5t4.5 -72.5t4.5 -72.5t4.5 -61.5t3 -40.5q3 -30 9.5 -69t22.5 -72.5t41 -56.5t64 -23q33 0 57.5 21t41.5 54.5t27.5 74.5t17 80.5t9 73t2.5 52.5
q0 50 -7.5 94.5t-7.5 90.5q0 11 7.5 14.5t16.5 3.5q2 0 6 -0.5t6 -0.5q6 -22 8 -39.5t3.5 -33.5t1.5 -33v-37q0 -29 -1.5 -74.5t-7.5 -96.5t-18.5 -102.5t-34 -93.5t-55 -68t-80.5 -26q-35 0 -62 17.5t-45.5 44.5t-30 60t-14.5 64zM120 839q0 16 9 28.5t26 12.5
q16 0 26.5 -6t10.5 -24q0 -20 -13.5 -37t-34.5 -17q-9 0 -13.5 4.5t-7 11t-3 14t-0.5 13.5zM243 839q0 16 8.5 28.5t25.5 12.5q16 0 26.5 -6t10.5 -24q0 -20 -13.5 -37t-34.5 -17q-8 0 -13 4.5t-7.5 11t-2.5 14v13.5z" />
    <glyph glyph-name="Yacute" unicode="&#xdd;" horiz-adv-x="588" 
d="M537 752q-11 22 2 33t31 11v-55l-72 -843l-37 19zM-4 674q-1 0 -1 2v3q0 7 4.5 12.5t12.5 5.5l1 -1h4l439 -238q20 -4 31.5 -10.5t11.5 -28.5q0 -8 -2 -17.5t-15 -9.5h-5q-3 2 -9 6.5t-13 10t-13 10t-7 7.5zM249 805l-13 -8q-10 5 -7.5 17.5t4.5 20.5q1 3 3 11t4 12
q6 7 14.5 19.5l17 25t17 23.5t13.5 18q5 6 10.5 12.5t13 12.5t15 9t14.5 2l5 -2.5l5 -2.5z" />
    <glyph glyph-name="Thorn" unicode="&#xde;" horiz-adv-x="377" 
d="M34 783q0 10 7.5 14t15.5 4q1 0 5.5 -1t6.5 -1l25 -374q7 25 17 46.5t24 37.5t34.5 25t48.5 9q34 0 61 -16t45.5 -41.5t28.5 -57t10 -62.5q0 -46 -22.5 -87.5t-58.5 -73.5t-80.5 -51t-89.5 -19q0 -57 -0.5 -94.5t-2.5 -61.5t-5.5 -36t-9 -16.5t-12.5 -4t-16 1.5
q-4 54 -7 123.5t-5.5 145.5t-4 156t-4 156.5t-5 146t-6.5 124.5v7zM211 507q-25 0 -43.5 -21.5t-30.5 -48t-18 -50t-7 -30.5v-34.5t0.5 -56t1 -56t0.5 -35.5q34 0 71 15.5t69 41t53 59.5t21 70q0 22 -9 48t-24.5 47.5t-37 36t-46.5 14.5z" />
    <glyph glyph-name="germandbls" unicode="&#xdf;" horiz-adv-x="534" 
d="M162 139q0 -7 -6.5 -9.5t-10.5 -2.5q-7 0 -13 13.5t-10 34t-7 45.5t-5.5 48.5t-3.5 41.5t-2 27v103q-3 29 -10.5 63.5t-14 69.5t-9.5 67.5t1.5 58t19.5 41t46 15.5q30 0 71 -2t77 -12.5t61.5 -34.5t25.5 -68q0 -34 -14.5 -66t-35.5 -61.5t-45.5 -56.5t-45.5 -48
q46 -5 94 -14.5t87 -32t63.5 -58.5t24.5 -93q0 -31 -18.5 -61t-49.5 -58.5t-69.5 -53t-78.5 -43t-78 -29t-67 -10.5q-10 0 -20.5 4t-19 11.5t-14 16.5t-5.5 19q0 9 1.5 18.5t11.5 12.5q4 -9 9.5 -19.5t13.5 -15.5h8q6 0 12.5 -0.5t11.5 -0.5h9q23 0 54.5 8.5t65.5 24
t67.5 35.5t60.5 43.5t43 48.5t16 51q0 38 -19.5 66.5t-50 47t-66.5 27.5t-68 9q-3 0 -9 1.5t-14.5 2t-19 0.5t-20.5 -4l-13 63q28 14 55.5 38t49 53t35 61t13.5 63q0 28 -19.5 42.5t-45 20.5t-52.5 6.5t-42 0.5h-14q-8 0 -16.5 -0.5t-14 -1t-6.5 -0.5l-11 -22l34 -278z" />
    <glyph glyph-name="agrave" unicode="&#xe0;" horiz-adv-x="408" 
d="M16 104q0 29 6.5 72t19 89.5t32 93.5t44.5 84.5t57 60.5t70 23q0 -14 -11.5 -27.5t-26 -26t-29.5 -24t-21 -21.5q-24 -31 -43 -68.5t-33 -77t-22 -81t-8 -80.5q0 -6 2 -18.5t5.5 -25.5t9.5 -22.5t13 -9.5h3q1 0 2 1q27 30 45 65t31 72.5t22 76.5t18 77q3 11 2.5 33t2 43
t10.5 36.5t29 15.5q4 0 9.5 -0.5t5.5 -1.5q37 -77 63 -130.5t44 -88.5t29 -55t16.5 -30.5t7.5 -14t2 -5.5q1 -4 2 -14.5t1.5 -22t1 -22t0.5 -13.5q-10 0 -22 1t-17 13l-128 266l-11 12q-3 -11 -11.5 -39t-18 -59.5t-17.5 -59.5t-11 -39q-6 -15 -15.5 -42t-23.5 -54t-32 -47
t-40 -20q-18 0 -30 11.5t-20 28.5t-11.5 35t-3.5 30zM125 791q1 1 5.5 2.5t5.5 2.5q8 1 16.5 -2t16 -8.5t14 -11.5t11.5 -12q6 -7 15 -18t19 -23.5t19 -23.5t15 -18q2 -3 4.5 -11.5t3.5 -11.5q1 -7 4.5 -19t-7.5 -18l-15 8z" />
    <glyph glyph-name="aacute" unicode="&#xe1;" horiz-adv-x="408" 
d="M16 104q0 29 6.5 72t19 89.5t32 93.5t44.5 84.5t57 60.5t70 23q0 -14 -11.5 -27.5t-26 -26t-29.5 -24t-21 -21.5q-24 -31 -43 -68.5t-33 -77t-22 -81t-8 -80.5q0 -6 2 -18.5t5.5 -25.5t9.5 -22.5t13 -9.5h3q1 0 2 1q27 30 45 65t31 72.5t22 76.5t18 77q3 11 2.5 33t2 43
t10.5 36.5t29 15.5q4 0 9.5 -0.5t5.5 -1.5q37 -77 63 -130.5t44 -88.5t29 -55t16.5 -30.5t7.5 -14t2 -5.5q1 -4 2 -14.5t1.5 -22t1 -22t0.5 -13.5q-10 0 -22 1t-17 13l-128 266l-11 12q-3 -11 -11.5 -39t-18 -59.5t-17.5 -59.5t-11 -39q-6 -15 -15.5 -42t-23.5 -54t-32 -47
t-40 -20q-18 0 -30 11.5t-20 28.5t-11.5 35t-3.5 30zM158 621l-13 -8q-10 5 -7.5 17.5t4.5 20.5q1 3 3 11t4 12q6 7 14.5 19.5l17 25t17 23.5t13.5 18q5 6 10.5 12.5t13 12.5t15 9t14.5 2l5 -2.5l5 -2.5z" />
    <glyph glyph-name="acircumflex" unicode="&#xe2;" horiz-adv-x="408" 
d="M16 104q0 29 6.5 72t19 89.5t32 93.5t44.5 84.5t57 60.5t70 23q0 -14 -11.5 -27.5t-26 -26t-29.5 -24t-21 -21.5q-24 -31 -43 -68.5t-33 -77t-22 -81t-8 -80.5q0 -6 2 -18.5t5.5 -25.5t9.5 -22.5t13 -9.5h3q1 0 2 1q27 30 45 65t31 72.5t22 76.5t18 77q3 11 2.5 33t2 43
t10.5 36.5t29 15.5q4 0 9.5 -0.5t5.5 -1.5q37 -77 63 -130.5t44 -88.5t29 -55t16.5 -30.5t7.5 -14t2 -5.5q1 -4 2 -14.5t1.5 -22t1 -22t0.5 -13.5q-10 0 -22 1t-17 13l-128 266l-11 12q-3 -11 -11.5 -39t-18 -59.5t-17.5 -59.5t-11 -39q-6 -15 -15.5 -42t-23.5 -54t-32 -47
t-40 -20q-18 0 -30 11.5t-20 28.5t-11.5 35t-3.5 30zM40 720q7 13 17.5 38.5t22 53t22 52.5t16.5 40q3 9 4.5 19t4.5 18.5t8 14.5t18 6h6q4 0 5 -1l128 -157q24 6 30.5 -4t6.5 -24q0 -13 -7 -28t-24 -15q-22 14 -38.5 32.5t-30 38.5t-24 40t-19.5 36q-2 3 -11 7.5t-11 4.5
t-6.5 -4.5t-5.5 -7.5l-89 -173q0 -1 -2 -1h-3q-12 0 -18 14z" />
    <glyph glyph-name="atilde" unicode="&#xe3;" horiz-adv-x="408" 
d="M16 104q0 29 6.5 72t19 89.5t32 93.5t44.5 84.5t57 60.5t70 23q0 -14 -11.5 -27.5t-26 -26t-29.5 -24t-21 -21.5q-24 -31 -43 -68.5t-33 -77t-22 -81t-8 -80.5q0 -6 2 -18.5t5.5 -25.5t9.5 -22.5t13 -9.5h3q1 0 2 1q27 30 45 65t31 72.5t22 76.5t18 77q3 11 2.5 33t2 43
t10.5 36.5t29 15.5q4 0 9.5 -0.5t5.5 -1.5q37 -77 63 -130.5t44 -88.5t29 -55t16.5 -30.5t7.5 -14t2 -5.5q1 -4 2 -14.5t1.5 -22t1 -22t0.5 -13.5q-10 0 -22 1t-17 13l-128 266l-11 12q-3 -11 -11.5 -39t-18 -59.5t-17.5 -59.5t-11 -39q-6 -15 -15.5 -42t-23.5 -54t-32 -47
t-40 -20q-18 0 -30 11.5t-20 28.5t-11.5 35t-3.5 30zM11 546q-3 27 4 53t22 46.5t38 32t53 9.5q26 0 46 -16.5t39.5 -35.5t40.5 -35t50 -16q24 0 39 11.5t26 25t19.5 25t19.5 11.5q0 -58 -31 -82t-78 -24q-34 0 -56.5 14.5t-41 32t-36.5 32t-42 14.5q-20 0 -33 -11.5
t-21 -28.5t-12 -37.5t-6 -36.5q-5 -4 -11.5 -8.5t-13.5 -4.5q-9 0 -12 10.5t-3 18.5z" />
    <glyph glyph-name="adieresis" unicode="&#xe4;" horiz-adv-x="408" 
d="M16 104q0 29 6.5 72t19 89.5t32 93.5t44.5 84.5t57 60.5t70 23q0 -14 -11.5 -27.5t-26 -26t-29.5 -24t-21 -21.5q-24 -31 -43 -68.5t-33 -77t-22 -81t-8 -80.5q0 -6 2 -18.5t5.5 -25.5t9.5 -22.5t13 -9.5h3q1 0 2 1q27 30 45 65t31 72.5t22 76.5t18 77q3 11 2.5 33t2 43
t10.5 36.5t29 15.5q4 0 9.5 -0.5t5.5 -1.5q37 -77 63 -130.5t44 -88.5t29 -55t16.5 -30.5t7.5 -14t2 -5.5q1 -4 2 -14.5t1.5 -22t1 -22t0.5 -13.5q-10 0 -22 1t-17 13l-128 266l-11 12q-3 -11 -11.5 -39t-18 -59.5t-17.5 -59.5t-11 -39q-6 -15 -15.5 -42t-23.5 -54t-32 -47
t-40 -20q-18 0 -30 11.5t-20 28.5t-11.5 35t-3.5 30zM106 655q0 16 9 28.5t26 12.5q16 0 26.5 -6t10.5 -24q0 -20 -13.5 -37t-34.5 -17q-9 0 -13.5 4.5t-7 11t-3 14t-0.5 13.5zM229 655q0 16 8.5 28.5t25.5 12.5q16 0 26.5 -6t10.5 -24q0 -20 -13.5 -37t-34.5 -17
q-8 0 -13 4.5t-7.5 11t-2.5 14v13.5z" />
    <glyph glyph-name="aring" unicode="&#xe5;" horiz-adv-x="408" 
d="M94 579q0 13 1.5 38.5t10 51t28.5 44.5t57 19q33 0 53.5 -11.5t31.5 -28t14.5 -36t3.5 -34.5q0 -17 -5.5 -37.5t-18.5 -38.5q-10 -13 -25 -23q-2 -12 -12 -24q-11 -13 -25.5 -25.5t-29.5 -24t-21 -21.5q-24 -31 -43 -68.5t-33 -77t-22 -81t-8 -80.5q0 -6 2 -18.5
t5.5 -25.5t9.5 -22.5t13 -9.5h3q1 0 2 1q27 30 45 65t31 72.5t22 76.5t18 77q3 11 2.5 33t2 43t10.5 36.5t29 15.5q4 0 9.5 -0.5t5.5 -1.5q37 -77 63 -130.5t44 -88.5t29 -55t16.5 -30.5t7.5 -14t2 -5.5q1 -4 2 -14.5t1.5 -22t1 -22t0.5 -13.5q-10 0 -22 1t-17 13l-128 266
l-11 12q-3 -11 -11.5 -39t-18 -59.5t-17.5 -59.5t-11 -39q-6 -15 -15.5 -42t-23.5 -54t-32 -47t-40 -20q-18 0 -30 11.5t-20 28.5t-11.5 35t-3.5 30q0 29 6.5 72t19 89.5t32 93.5t44.5 84.5t57 60.5q0 1 2 2q-20 0 -36 7t-26.5 18.5t-15.5 24t-5 23.5zM118 584
q17 -38 43 -46.5t50.5 2.5t42.5 34.5t20 50.5t-16 49.5t-66 31.5q-26 0 -41 -16t-22.5 -37t-9 -41.5t-1.5 -27.5z" />
    <glyph glyph-name="ae" unicode="&#xe6;" horiz-adv-x="661" 
d="M30 123q8 28 27 67t44.5 80t57 80.5t66.5 68t72 41.5t74 3q-5 -14 -19.5 -24t-32.5 -17.5t-35.5 -14.5t-26.5 -14q-31 -23 -60 -53t-53.5 -64.5t-44 -72t-31.5 -74.5q-1 -6 -3 -18.5t-2.5 -26t2 -24.5t10.5 -12l1 -1h4q34 21 61.5 49.5t50.5 61t43.5 67t38.5 67.5
q7 11 12.5 32t14 40t21 32t32.5 6q2 -1 8 -2.5t5 -2.5q6 -41 11 -74t10 -62q-1 27 1.5 56.5t14.5 54.5t35 41.5t62 16.5q17 0 42 -11t48 -27.5t39.5 -34.5t16.5 -32q0 -7 -1.5 -13t-10.5 -10l-198 -69l-1 -4v-11l-1 -13v-10q0 -20 3 -49t12.5 -56.5t27 -47.5t46.5 -20
q10 0 18 4.5t15 9.5t15 9.5t17 4.5q0 -15 -6.5 -28t-17.5 -23.5t-25 -16t-28 -5.5q-30 0 -50 16.5t-34 42.5l-3 -15t-4 -21t-4 -20t-3 -12q-12 3 -22 8t-12 18l-54 307l-23 -36q-15 -24 -32.5 -51.5t-34 -51.5t-22.5 -34q-9 -13 -26 -36.5t-38 -45t-44 -35.5t-44 -7
q-17 5 -25.5 19.5t-11.5 32.5t-1 36.5t6 30.5zM512 386q-18 0 -30 -10t-20 -24.5t-11.5 -32t-3.5 -32.5q16 0 35.5 2.5t38.5 8t34.5 15.5t21.5 24q-15 25 -28.5 37t-36.5 12z" />
    <glyph glyph-name="ccedilla" unicode="&#xe7;" horiz-adv-x="347" 
d="M141 -284q0 9 1 16.5t3.5 10t6 0.5t7.5 -13q14 0 33 3.5t37.5 13.5t31.5 29t13 49q0 22 -11.5 31.5t-28.5 15.5t-38 10.5t-38 15.5t-28.5 31.5t-11.5 58.5q-1 7 -1 11q-26 1 -45 14q-20 14 -32.5 35.5t-18 47t-5.5 49.5q0 10 3 37.5t8.5 63.5t15.5 75t23.5 72t31 54
t40.5 21q-9 -28 -23.5 -66t-27.5 -79.5t-21.5 -84.5t-5 -80.5t22.5 -67.5t60 -46q38 0 66 17t48.5 38t36 38t28.5 17q0 -38 -18.5 -67t-47 -48.5t-64.5 -29.5q-26 -7 -53 -9q0 -7 -4 -14q0 -24 7.5 -34.5t21.5 -17.5q6 -3 21.5 -10.5t32 -14.5t31.5 -14t20 -8
q13 -12 21.5 -25.5t8.5 -37.5q0 -34 -16 -59.5t-38.5 -42.5t-46 -25.5t-41.5 -8.5q-10 0 -13 5t-3 23z" />
    <glyph glyph-name="egrave" unicode="&#xe8;" horiz-adv-x="337" 
d="M58 232q-23 -14 -47 -21.5t-39 9.5q0 19 13 25.5t29.5 10.5t33 10t22.5 24q6 20 11 48t14 54t26 43.5t47 17.5q17 0 42.5 -11.5t48.5 -27.5t39 -34t16 -33q0 -7 -1.5 -13t-10.5 -10l-197 -68l-1 -5q0 -4 -1 -11v-12v-10q0 -20 3 -49.5t12.5 -57t26.5 -47.5t46 -20
q11 0 18.5 4.5t15 10t15 10t17.5 4.5q0 -15 -6.5 -28.5t-17.5 -23.5t-25 -16t-28 -6q-38 0 -61 26.5t-35.5 64t-17.5 77t-8 65.5zM180 409q-18 0 -30.5 -10t-20.5 -25t-11.5 -32.5t-3.5 -31.5q16 0 35.5 2t38.5 8t34.5 15.5t21.5 23.5q-15 24 -28 37t-36 13zM89 791
q1 1 5.5 2.5t5.5 2.5q8 1 16.5 -2t16 -8.5t14 -11.5t11.5 -12q6 -7 15 -18t19 -23.5t19 -23.5t15 -18q2 -3 4.5 -11.5t3.5 -11.5q1 -7 4.5 -19t-7.5 -18l-15 8z" />
    <glyph glyph-name="eacute" unicode="&#xe9;" horiz-adv-x="337" 
d="M58 232q-23 -14 -47 -21.5t-39 9.5q0 19 13 25.5t29.5 10.5t33 10t22.5 24q6 20 11 48t14 54t26 43.5t47 17.5q17 0 42.5 -11.5t48.5 -27.5t39 -34t16 -33q0 -7 -1.5 -13t-10.5 -10l-197 -68l-1 -5q0 -4 -1 -11v-12v-10q0 -20 3 -49.5t12.5 -57t26.5 -47.5t46 -20
q11 0 18.5 4.5t15 10t15 10t17.5 4.5q0 -15 -6.5 -28.5t-17.5 -23.5t-25 -16t-28 -6q-38 0 -61 26.5t-35.5 64t-17.5 77t-8 65.5zM180 409q-18 0 -30.5 -10t-20.5 -25t-11.5 -32.5t-3.5 -31.5q16 0 35.5 2t38.5 8t34.5 15.5t21.5 23.5q-15 24 -28 37t-36 13zM123 621l-13 -8
q-10 5 -7.5 17.5t4.5 20.5q1 3 3 11t4 12q6 7 14.5 19.5l17 25t17 23.5t13.5 18q5 6 10.5 12.5t13 12.5t15 9t14.5 2l5 -2.5l5 -2.5z" />
    <glyph glyph-name="ecircumflex" unicode="&#xea;" horiz-adv-x="337" 
d="M58 232q-23 -14 -47 -21.5t-39 9.5q0 19 13 25.5t29.5 10.5t33 10t22.5 24q6 20 11 48t14 54t26 43.5t47 17.5q17 0 42.5 -11.5t48.5 -27.5t39 -34t16 -33q0 -7 -1.5 -13t-10.5 -10l-197 -68l-1 -5q0 -4 -1 -11v-12v-10q0 -20 3 -49.5t12.5 -57t26.5 -47.5t46 -20
q11 0 18.5 4.5t15 10t15 10t17.5 4.5q0 -15 -6.5 -28.5t-17.5 -23.5t-25 -16t-28 -6q-38 0 -61 26.5t-35.5 64t-17.5 77t-8 65.5zM180 409q-18 0 -30.5 -10t-20.5 -25t-11.5 -32.5t-3.5 -31.5q16 0 35.5 2t38.5 8t34.5 15.5t21.5 23.5q-15 24 -28 37t-36 13zM35 531
q7 13 17.5 38.5t22 53t22 52.5t16.5 40q3 9 4.5 19t4.5 18.5t8 14.5t18 6h6q4 0 5 -1l128 -157q24 6 30.5 -4t6.5 -24q0 -13 -7 -28t-24 -15q-22 14 -38.5 32.5t-30 38.5t-24 40t-19.5 36q-2 3 -11 7.5t-11 4.5t-6.5 -4.5t-5.5 -7.5l-89 -173q0 -1 -2 -1h-3q-12 0 -18 14z
" />
    <glyph glyph-name="edieresis" unicode="&#xeb;" horiz-adv-x="337" 
d="M58 232q-23 -14 -47 -21.5t-39 9.5q0 19 13 25.5t29.5 10.5t33 10t22.5 24q6 20 11 48t14 54t26 43.5t47 17.5q17 0 42.5 -11.5t48.5 -27.5t39 -34t16 -33q0 -7 -1.5 -13t-10.5 -10l-197 -68l-1 -5q0 -4 -1 -11v-12v-10q0 -20 3 -49.5t12.5 -57t26.5 -47.5t46 -20
q11 0 18.5 4.5t15 10t15 10t17.5 4.5q0 -15 -6.5 -28.5t-17.5 -23.5t-25 -16t-28 -6q-38 0 -61 26.5t-35.5 64t-17.5 77t-8 65.5zM180 409q-18 0 -30.5 -10t-20.5 -25t-11.5 -32.5t-3.5 -31.5q16 0 35.5 2t38.5 8t34.5 15.5t21.5 23.5q-15 24 -28 37t-36 13zM70 655
q0 16 9 28.5t26 12.5q16 0 26.5 -6t10.5 -24q0 -20 -13.5 -37t-34.5 -17q-9 0 -13.5 4.5t-7 11t-3 14t-0.5 13.5zM193 655q0 16 8.5 28.5t25.5 12.5q16 0 26.5 -6t10.5 -24q0 -20 -13.5 -37t-34.5 -17q-8 0 -13 4.5t-7.5 11t-2.5 14v13.5z" />
    <glyph glyph-name="igrave" unicode="&#xec;" horiz-adv-x="145" 
d="M12 455q6 0 13.5 -4t9.5 -11l70 -347q12 -18 17.5 -29t5.5 -29q0 -9 -3 -22.5t-14 -13.5h-4q-2 0 -2 1q-2 1 -6 4l-15 15q-3 3 -3 4l-69 395v37zM-5 791q1 1 5 2.5t6 2.5q8 1 16.5 -2t16 -8.5t14 -11.5t11.5 -12q6 -7 15 -18t19 -23.5t19 -23.5t15 -18q2 -3 4.5 -11.5
t2.5 -11.5q2 -7 5.5 -19t-7.5 -18l-15 8z" />
    <glyph glyph-name="iacute" unicode="&#xed;" horiz-adv-x="145" 
d="M12 455q6 0 13.5 -4t9.5 -11l70 -347q12 -18 17.5 -29t5.5 -29q0 -9 -3 -22.5t-14 -13.5h-4q-2 0 -2 1q-2 1 -6 4l-15 15q-3 3 -3 4l-69 395v37zM28 621l-14 -8q-10 5 -7 17.5t5 20.5q1 3 3 11t4 12q5 7 13.5 19.5l17 25t17.5 23.5t14 18q4 6 10 12.5t13.5 12.5t15 9
t14.5 2l5 -2.5l5 -2.5z" />
    <glyph glyph-name="icircumflex" unicode="&#xee;" horiz-adv-x="145" 
d="M-71 610q6 14 17 39t22 52.5t21.5 52.5t16.5 40q4 9 5.5 19t4 19t8 14.5t17.5 5.5h7q3 0 4 -1l129 -157q23 6 30 -4t7 -24q0 -13 -7.5 -27.5t-24.5 -14.5q-21 13 -38 31.5t-30.5 39t-23.5 40t-19 35.5q-3 3 -12 7.5t-11 4.5t-6.5 -4.5t-5.5 -7.5l-89 -172q0 -1 -1 -1h-4
q-12 0 -17 13zM12 455q6 0 13.5 -4t9.5 -11l70 -347q12 -18 17.5 -29t5.5 -29q0 -9 -3 -22.5t-14 -13.5h-4q-2 0 -2 1q-2 1 -6 4l-15 15q-3 3 -3 4l-69 395v37z" />
    <glyph glyph-name="idieresis" unicode="&#xef;" horiz-adv-x="145" 
d="M12 455q6 0 13.5 -4t9.5 -11l70 -347q12 -18 17.5 -29t5.5 -29q0 -9 -3 -22.5t-14 -13.5h-4q-2 0 -2 1q-2 1 -6 4l-15 15q-3 3 -3 4l-69 395v37zM-24 655q0 16 9 28.5t26 12.5q16 0 26.5 -6t10.5 -24q0 -20 -13.5 -37t-34.5 -17q-9 0 -14 4.5t-7 11t-2.5 14t-0.5 13.5z
M98 655q0 16 8.5 28.5t25.5 12.5q16 0 26.5 -6t10.5 -24q0 -20 -13.5 -37t-34.5 -17q-8 0 -13 4.5t-7 11t-2.5 14t-0.5 13.5z" />
    <glyph glyph-name="eth" unicode="&#xf0;" 
d="M195 499q0 7 7.5 7.5t20.5 1.5q17 -15 33 -31t30 -32l42 19l22 -25l-35 -26q37 -51 59.5 -101.5t33 -93.5t11.5 -77t-5 -51q0 -21 -13 -38t-31.5 -29t-39 -19t-37.5 -7q-25 0 -54.5 13.5t-60 36.5t-58 53t-49.5 61.5t-35.5 63.5t-13.5 59q0 38 17 58.5t53 20.5
q23 0 39.5 -4.5t40.5 -20.5q9 -4 26.5 -16t38 -29t42.5 -35.5t40 -35t30 -29.5q12 -14 14 -19q1 14 -1.5 35t-9 45t-16 48t-20 42t-21 28.5t-18.5 8.5q-13 -5 -24 -10.5t-18 -5.5q-8 0 -16 9t-3 17q4 5 16.5 11.5t27.5 16.5q7 6 -2 17t-23 23.5t-27 24t-13 15.5zM58 290
q0 -42 23 -85t58 -78.5t76 -58t78 -22.5q14 0 27.5 1t24.5 13q1 5 1 18v17q0 26 -12 53t-32 51t-46.5 45t-54 37t-54.5 25t-49 9q-4 0 -15 -0.5t-14 -1.5q-2 -2 -6.5 -11t-4.5 -12z" />
    <glyph glyph-name="ntilde" unicode="&#xf1;" horiz-adv-x="509" 
d="M28 372q0 6 0.5 14t2 15.5t6.5 12.5t14 5q2 0 6.5 -0.5t6.5 -0.5q1 -71 7.5 -146t26.5 -145q1 11 5.5 37.5t10 56t11 55.5t7.5 37q7 21 19 43.5t29.5 41.5t39 31t45.5 12q40 0 71 -18t55.5 -47.5t41.5 -67t28 -76.5t16 -75t5 -64v-12q0 -6 -1.5 -11.5t-5 -9t-12.5 -3.5
q-10 0 -17 12q-1 25 -5.5 58t-12 69.5t-20 72t-31 63.5t-43.5 45.5t-60 17.5q-28 0 -48.5 -10t-34.5 -27.5t-22.5 -41t-12.5 -50.5q-3 -14 -8 -50t-11 -77t-10.5 -77t-5.5 -50q-3 -10 -10.5 -12t-15.5 -2q-1 0 -5 0.5t-4 1.5l-57 347q0 2 -0.5 11t-0.5 14zM62 546
q-3 27 4 53t22 46.5t38 32t53 9.5q26 0 46 -16.5t39.5 -35.5t40.5 -35t50 -16q24 0 39 11.5t26 25t19.5 25t19.5 11.5q0 -58 -31 -82t-78 -24q-34 0 -56.5 14.5t-41 32t-36.5 32t-42 14.5q-20 0 -33 -11.5t-21 -28.5t-12 -37.5t-6 -36.5q-5 -4 -11.5 -8.5t-13.5 -4.5
q-9 0 -12 10.5t-3 18.5z" />
    <glyph glyph-name="ograve" unicode="&#xf2;" horiz-adv-x="324" 
d="M22 151q0 20 0.5 53.5t4.5 72t12 78.5t23 72t38 52t57 20q47 0 75.5 -26t44 -64.5t21 -82t5.5 -78.5q0 -38 -11 -82t-34 -81t-57.5 -61.5t-82.5 -24.5q-31 0 -50 14.5t-28.5 36.5t-13.5 49t-4 52zM56 163q0 -19 1 -39.5t6 -38.5t18 -29t38 -11q44 0 72.5 20t45.5 51.5
t23.5 69.5t6.5 73q0 22 -3.5 57t-14.5 68t-32 56.5t-55 23.5q-24 0 -41.5 -19t-29.5 -49t-18.5 -66t-10.5 -69t-5 -60t-1 -38zM84 791q1 1 5.5 2.5t5.5 2.5q8 1 16.5 -2t16 -8.5t14 -11.5t11.5 -12q6 -7 15 -18t19 -23.5t19 -23.5t15 -18q2 -3 4.5 -11.5t3.5 -11.5
q1 -7 4.5 -19t-7.5 -18l-15 8z" />
    <glyph glyph-name="oacute" unicode="&#xf3;" horiz-adv-x="324" 
d="M22 151q0 20 0.5 53.5t4.5 72t12 78.5t23 72t38 52t57 20q47 0 75.5 -26t44 -64.5t21 -82t5.5 -78.5q0 -38 -11 -82t-34 -81t-57.5 -61.5t-82.5 -24.5q-31 0 -50 14.5t-28.5 36.5t-13.5 49t-4 52zM56 163q0 -19 1 -39.5t6 -38.5t18 -29t38 -11q44 0 72.5 20t45.5 51.5
t23.5 69.5t6.5 73q0 22 -3.5 57t-14.5 68t-32 56.5t-55 23.5q-24 0 -41.5 -19t-29.5 -49t-18.5 -66t-10.5 -69t-5 -60t-1 -38zM117 621l-13 -8q-10 5 -7.5 17.5t4.5 20.5q1 3 3 11t4 12q6 7 14.5 19.5l17 25t17 23.5t13.5 18q5 6 10.5 12.5t13 12.5t15 9t14.5 2l5 -2.5
l5 -2.5z" />
    <glyph glyph-name="ocircumflex" unicode="&#xf4;" horiz-adv-x="324" 
d="M22 151q0 20 0.5 53.5t4.5 72t12 78.5t23 72t38 52t57 20q47 0 75.5 -26t44 -64.5t21 -82t5.5 -78.5q0 -38 -11 -82t-34 -81t-57.5 -61.5t-82.5 -24.5q-31 0 -50 14.5t-28.5 36.5t-13.5 49t-4 52zM56 163q0 -19 1 -39.5t6 -38.5t18 -29t38 -11q44 0 72.5 20t45.5 51.5
t23.5 69.5t6.5 73q0 22 -3.5 57t-14.5 68t-32 56.5t-55 23.5q-24 0 -41.5 -19t-29.5 -49t-18.5 -66t-10.5 -69t-5 -60t-1 -38zM19 559q7 13 17.5 38.5t22 53t22 52.5t16.5 40q3 9 4.5 19t4.5 18.5t8 14.5t18 6h6q4 0 5 -1l128 -157q24 6 30.5 -4t6.5 -24q0 -13 -7 -28
t-24 -15q-22 14 -38.5 32.5t-30 38.5t-24 40t-19.5 36q-2 3 -11 7.5t-11 4.5t-6.5 -4.5t-5.5 -7.5l-89 -173q0 -1 -2 -1h-3q-12 0 -18 14z" />
    <glyph glyph-name="otilde" unicode="&#xf5;" horiz-adv-x="324" 
d="M22 151q0 20 0.5 53.5t4.5 72t12 78.5t23 72t38 52t57 20q47 0 75.5 -26t44 -64.5t21 -82t5.5 -78.5q0 -38 -11 -82t-34 -81t-57.5 -61.5t-82.5 -24.5q-31 0 -50 14.5t-28.5 36.5t-13.5 49t-4 52zM56 163q0 -19 1 -39.5t6 -38.5t18 -29t38 -11q44 0 72.5 20t45.5 51.5
t23.5 69.5t6.5 73q0 22 -3.5 57t-14.5 68t-32 56.5t-55 23.5q-24 0 -41.5 -19t-29.5 -49t-18.5 -66t-10.5 -69t-5 -60t-1 -38zM-31 546q-3 27 4 53t22 46.5t38 32t53 9.5q26 0 46 -16.5t39.5 -35.5t40.5 -35t50 -16q24 0 39 11.5t26 25t19.5 25t19.5 11.5q0 -58 -31 -82
t-78 -24q-34 0 -56.5 14.5t-41 32t-36.5 32t-42 14.5q-20 0 -33 -11.5t-21 -28.5t-12 -37.5t-6 -36.5q-5 -4 -11.5 -8.5t-13.5 -4.5q-9 0 -12 10.5t-3 18.5z" />
    <glyph glyph-name="odieresis" unicode="&#xf6;" horiz-adv-x="324" 
d="M22 151q0 20 0.5 53.5t4.5 72t12 78.5t23 72t38 52t57 20q47 0 75.5 -26t44 -64.5t21 -82t5.5 -78.5q0 -38 -11 -82t-34 -81t-57.5 -61.5t-82.5 -24.5q-31 0 -50 14.5t-28.5 36.5t-13.5 49t-4 52zM56 163q0 -19 1 -39.5t6 -38.5t18 -29t38 -11q44 0 72.5 20t45.5 51.5
t23.5 69.5t6.5 73q0 22 -3.5 57t-14.5 68t-32 56.5t-55 23.5q-24 0 -41.5 -19t-29.5 -49t-18.5 -66t-10.5 -69t-5 -60t-1 -38zM65 655q0 16 9 28.5t26 12.5q16 0 26.5 -6t10.5 -24q0 -20 -13.5 -37t-34.5 -17q-9 0 -13.5 4.5t-7 11t-3 14t-0.5 13.5zM188 655q0 16 8.5 28.5
t25.5 12.5q16 0 26.5 -6t10.5 -24q0 -20 -13.5 -37t-34.5 -17q-8 0 -13 4.5t-7.5 11t-2.5 14v13.5z" />
    <glyph glyph-name="divide" unicode="&#xf7;" horiz-adv-x="487" 
d="M38 287q-19 19 -12.5 30t29.5 15.5t57.5 5.5t69.5 0t66 -2t49 1q8 0 34 0.5t55 -1t51.5 -7.5t22.5 -19q0 -9 -7 -13t-17 -4h-88q-51 0 -107 -0.5t-110 -1.5t-93 -4zM197 175q0 10 3 24.5t10 27.5t17.5 22.5t23.5 9.5q11 0 20.5 -5t17 -13t12 -18t4.5 -20q1 -10 -6 -23.5
t-19 -25t-24.5 -19t-20.5 -6.5q-21 0 -29.5 14t-8.5 32zM184 405q0 16 5.5 31.5t16 28t24.5 20t31 7.5q10 0 16 -5t9.5 -11.5t4.5 -15t1 -15.5q0 -13 -6.5 -25.5t-16.5 -22.5t-23 -16t-26 -6t-24.5 8t-11.5 22z" />
    <glyph glyph-name="oslash" unicode="&#xf8;" horiz-adv-x="324" 
d="M38 -17q0 8 3.5 14.5t9.5 15.5l4 12q-9 11 -15 24q-10 23 -14 50t-4 52q0 20 0.5 53.5t4.5 72t12 78.5t23 72t38 52t57 20q22 0 40 -6l16 52q1 7 13 16.5t21 9.5v-37q-6 -19 -18 -58q1 -2 3 -3q29 -26 44.5 -64.5t21 -82t5.5 -78.5q0 -38 -11 -82t-34 -81t-57.5 -61.5
t-82.5 -24.5q-15 0 -26 3l-3 -12q-3 -12 -8.5 -21.5t-18.5 -14.5q-2 1 -5 5l-15 14q-2 3 -3 4q-1 2 -1 3v3zM119 45q44 0 72.5 20t45.5 51.5t23.5 69.5t6.5 73q0 22 -3.5 57t-15.5 67q-10 33 -30 56q-7 -24 -16 -51l-62 -207q-14 -50 -26 -88q-9 -29 -14 -46q8 -2 19 -2z
M56 163q0 -19 1 -39.5t6 -38.5q2 -8 6 -15l118 390q-12 4 -25 4q-24 0 -41.5 -19t-29.5 -49t-18.5 -66t-10.5 -69t-5 -60t-1 -38z" />
    <glyph glyph-name="ugrave" unicode="&#xf9;" horiz-adv-x="448" 
d="M132 0q-19 -7 -34.5 3.5t-27.5 32t-21 49t-14 54.5t-6.5 49t0.5 32q0 10 1 31t2 47.5t2.5 55t2.5 55.5t2 47.5t1 30.5q2 0 3 1l3 1q10 0 17 -9t12 -17q0 -14 -0.5 -50t-0.5 -77t0.5 -77.5t0.5 -50.5q1 -12 4.5 -37.5t9.5 -52t16.5 -48t26.5 -24.5q42 0 70.5 31t47.5 78
t30.5 101.5t19.5 102.5t14.5 80.5t15.5 35.5l24 -5l56 -387q6 -3 10 -9t7.5 -13t5 -14t1.5 -10q-2 -7 -12 -15t-17 -9h-4h-2q-2 3 -5.5 9.5t-7.5 13.5t-6.5 14.5t-3.5 9.5q-3 10 -6.5 31t-6.5 46.5t-5.5 54t-5 55t-5 47t-5.5 30.5q-5 -23 -14 -54.5t-22.5 -66.5t-30.5 -68.5
t-38.5 -62t-47.5 -48t-57 -24.5zM145 791q1 1 5.5 2.5t5.5 2.5q8 1 16.5 -2t16 -8.5t14 -11.5t11.5 -12q6 -7 15 -18t19 -23.5t19 -23.5t15 -18q2 -3 4.5 -11.5t3.5 -11.5q1 -7 4.5 -19t-7.5 -18l-15 8z" />
    <glyph glyph-name="uacute" unicode="&#xfa;" horiz-adv-x="448" 
d="M132 0q-19 -7 -34.5 3.5t-27.5 32t-21 49t-14 54.5t-6.5 49t0.5 32q0 10 1 31t2 47.5t2.5 55t2.5 55.5t2 47.5t1 30.5q2 0 3 1l3 1q10 0 17 -9t12 -17q0 -14 -0.5 -50t-0.5 -77t0.5 -77.5t0.5 -50.5q1 -12 4.5 -37.5t9.5 -52t16.5 -48t26.5 -24.5q42 0 70.5 31t47.5 78
t30.5 101.5t19.5 102.5t14.5 80.5t15.5 35.5l24 -5l56 -387q6 -3 10 -9t7.5 -13t5 -14t1.5 -10q-2 -7 -12 -15t-17 -9h-4h-2q-2 3 -5.5 9.5t-7.5 13.5t-6.5 14.5t-3.5 9.5q-3 10 -6.5 31t-6.5 46.5t-5.5 54t-5 55t-5 47t-5.5 30.5q-5 -23 -14 -54.5t-22.5 -66.5t-30.5 -68.5
t-38.5 -62t-47.5 -48t-57 -24.5zM179 621l-13 -8q-10 5 -7.5 17.5t4.5 20.5q1 3 3 11t4 12q6 7 14.5 19.5l17 25t17 23.5t13.5 18q5 6 10.5 12.5t13 12.5t15 9t14.5 2l5 -2.5l5 -2.5z" />
    <glyph glyph-name="ucircumflex" unicode="&#xfb;" horiz-adv-x="448" 
d="M132 0q-19 -7 -34.5 3.5t-27.5 32t-21 49t-14 54.5t-6.5 49t0.5 32q0 10 1 31t2 47.5t2.5 55t2.5 55.5t2 47.5t1 30.5q2 0 3 1l3 1q10 0 17 -9t12 -17q0 -14 -0.5 -50t-0.5 -77t0.5 -77.5t0.5 -50.5q1 -12 4.5 -37.5t9.5 -52t16.5 -48t26.5 -24.5q42 0 70.5 31t47.5 78
t30.5 101.5t19.5 102.5t14.5 80.5t15.5 35.5l24 -5l56 -387q6 -3 10 -9t7.5 -13t5 -14t1.5 -10q-2 -7 -12 -15t-17 -9h-4h-2q-2 3 -5.5 9.5t-7.5 13.5t-6.5 14.5t-3.5 9.5q-3 10 -6.5 31t-6.5 46.5t-5.5 54t-5 55t-5 47t-5.5 30.5q-5 -23 -14 -54.5t-22.5 -66.5t-30.5 -68.5
t-38.5 -62t-47.5 -48t-57 -24.5zM80 590q7 13 17.5 38.5t22 53t22 52.5t16.5 40q3 9 4.5 19t4.5 18.5t8 14.5t18 6h6q4 0 5 -1l128 -157q24 6 30.5 -4t6.5 -24q0 -13 -7 -28t-24 -15q-22 14 -38.5 32.5t-30 38.5t-24 40t-19.5 36q-2 3 -11 7.5t-11 4.5t-6.5 -4.5t-5.5 -7.5
l-89 -173q0 -1 -2 -1h-3q-12 0 -18 14z" />
    <glyph glyph-name="udieresis" unicode="&#xfc;" horiz-adv-x="448" 
d="M132 0q-19 -7 -34.5 3.5t-27.5 32t-21 49t-14 54.5t-6.5 49t0.5 32q0 10 1 31t2 47.5t2.5 55t2.5 55.5t2 47.5t1 30.5q2 0 3 1l3 1q10 0 17 -9t12 -17q0 -14 -0.5 -50t-0.5 -77t0.5 -77.5t0.5 -50.5q1 -12 4.5 -37.5t9.5 -52t16.5 -48t26.5 -24.5q42 0 70.5 31t47.5 78
t30.5 101.5t19.5 102.5t14.5 80.5t15.5 35.5l24 -5l56 -387q6 -3 10 -9t7.5 -13t5 -14t1.5 -10q-2 -7 -12 -15t-17 -9h-4h-2q-2 3 -5.5 9.5t-7.5 13.5t-6.5 14.5t-3.5 9.5q-3 10 -6.5 31t-6.5 46.5t-5.5 54t-5 55t-5 47t-5.5 30.5q-5 -23 -14 -54.5t-22.5 -66.5t-30.5 -68.5
t-38.5 -62t-47.5 -48t-57 -24.5zM127 655q0 16 9 28.5t26 12.5q16 0 26.5 -6t10.5 -24q0 -20 -13.5 -37t-34.5 -17q-9 0 -13.5 4.5t-7 11t-3 14t-0.5 13.5zM250 655q0 16 8.5 28.5t25.5 12.5q16 0 26.5 -6t10.5 -24q0 -20 -13.5 -37t-34.5 -17q-8 0 -13 4.5t-7.5 11t-2.5 14
v13.5z" />
    <glyph glyph-name="yacute" unicode="&#xfd;" horiz-adv-x="504" 
d="M423 -164q0 57 6 112.5t6 111.5q0 24 -13.5 41.5t-32.5 30.5q-52 38 -100.5 71t-94.5 66.5t-90.5 70.5t-86.5 83l23 23q10 -8 31 -24.5t47 -37t55 -43.5t55.5 -43.5t47.5 -37t31 -23.5q11 -8 29.5 -19.5t37 -22.5t33 -19.5t16.5 -8.5h12v13q1 13 1.5 39t1.5 58.5
t2.5 69.5t3 70t2 59t0.5 39q4 11 15.5 13.5t20.5 2.5q0 -87 -2 -175l-6 -174q-2 -88 -4 -175.5t0 -174.5q-5 -8 -12 -16.5t-18 -8.5q-10 0 -13.5 10t-3.5 19zM208 621l-13 -8q-10 5 -7.5 17.5t4.5 20.5q1 3 3 11t4 12q6 7 14.5 19.5l17 25t17 23.5t13.5 18q5 6 10.5 12.5
t13 12.5t15 9t14.5 2l5 -2.5l5 -2.5z" />
    <glyph glyph-name="thorn" unicode="&#xfe;" horiz-adv-x="400" 
d="M13 652q5 32 12.5 41t15.5 1.5t15.5 -29t13 -50t7.5 -61t-1 -62.5q4 1 11 2.5t15 3.5t15 3.5t10 2.5h5q42 0 85 -13.5t77 -38.5t56.5 -61t22.5 -81q0 -50 -23 -91.5t-59.5 -71.5t-82 -47t-90.5 -17q0 -29 5.5 -57.5t11 -56l11 -55t5.5 -54.5q0 -8 -5.5 -13t-13.5 -5
q-9 0 -14.5 8t-8 18t-4 19.5t-1.5 13.5q-2 14 -6.5 44.5t-10.5 68t-12.5 79t-12 79.5t-10 67.5t-6.5 43.5zM68 405v-10q0 -5 0.5 -11.5t0.5 -11.5v-7q2 -17 5 -41t7 -50.5t8 -53.5t7 -48.5t5 -35.5t3 -15q40 -9 81 4.5t74 43t55 68.5t23 80q0 37 -17.5 63.5t-44.5 44
t-60.5 26t-66.5 8.5q-16 0 -30.5 -2t-25.5 -7t-17.5 -16t-6.5 -29z" />
    <glyph glyph-name="ydieresis" unicode="&#xff;" horiz-adv-x="504" 
d="M423 -164q0 57 6 112.5t6 111.5q0 24 -13.5 41.5t-32.5 30.5q-52 38 -100.5 71t-94.5 66.5t-90.5 70.5t-86.5 83l23 23q10 -8 31 -24.5t47 -37t55 -43.5t55.5 -43.5t47.5 -37t31 -23.5q11 -8 29.5 -19.5t37 -22.5t33 -19.5t16.5 -8.5h12v13q1 13 1.5 39t1.5 58.5
t2.5 69.5t3 70t2 59t0.5 39q4 11 15.5 13.5t20.5 2.5q0 -87 -2 -175l-6 -174q-2 -88 -4 -175.5t0 -174.5q-5 -8 -12 -16.5t-18 -8.5q-10 0 -13.5 10t-3.5 19zM155 655q0 16 9 28.5t26 12.5q16 0 26.5 -6t10.5 -24q0 -20 -13.5 -37t-34.5 -17q-9 0 -13.5 4.5t-7 11t-3 14
t-0.5 13.5zM278 655q0 16 8.5 28.5t25.5 12.5q16 0 26.5 -6t10.5 -24q0 -20 -13.5 -37t-34.5 -17q-8 0 -13 4.5t-7.5 11t-2.5 14v13.5z" />
    <glyph glyph-name="Amacron" unicode="&#x100;" horiz-adv-x="539" 
d="M24 -47q-9 0 -13 5t-5.5 12.5t-0.5 16t1 13.5l175 742q2 9 8.5 19.5t13.5 15.5q3 -9 9 -18.5t15 -16.5l278 -637q1 -1 1 -5v-6q0 -10 -4 -17.5t-14 -7.5q-13 0 -18 12l-70 162q0 1 -12.5 2.5t-19.5 1.5q-4 0 -11.5 -0.5t-15.5 -1t-14.5 -1.5t-7.5 -1q-23 -4 -59.5 -10.5
t-71.5 -14t-60.5 -13.5t-27.5 -8l-59 -231q-1 -7 -6 -10t-11 -3zM203 673l-2.5 -7.5t-3.5 -10t-3 -10.5t-2 -7q-7 -26 -15 -63l-35 -157q-9 -41 -15.5 -75t-11 -59t-4.5 -32q14 0 39 2t53.5 6.5t58 9.5t53 12t38.5 14.5t15 15.5q0 2 -0.5 6.5t-1.5 6.5zM112 850q22 4 35 4.5
t23.5 0t23 -0.5t36.5 1q2 1 14.5 1.5t27.5 1t31 0.5h45q14 0 30 -0.5t30 -1t19 -1.5q4 -1 8.5 -9.5t3.5 -12.5q-1 -5 -9.5 -14t-13.5 -10q-18 1 -45 3.5t-55.5 4.5t-55.5 3.5t-45 0.5q-19 -2 -40 -2.5t-41 -3.5q-1 0 -6.5 -0.5t-12 -1t-12 -1t-6.5 -0.5q0 9 1.5 21.5
t13.5 16.5z" />
    <glyph glyph-name="amacron" unicode="&#x101;" horiz-adv-x="408" 
d="M16 104q0 29 6.5 72t19 89.5t32 93.5t44.5 84.5t57 60.5t70 23q0 -14 -11.5 -27.5t-26 -26t-29.5 -24t-21 -21.5q-24 -31 -43 -68.5t-33 -77t-22 -81t-8 -80.5q0 -6 2 -18.5t5.5 -25.5t9.5 -22.5t13 -9.5h3q1 0 2 1q27 30 45 65t31 72.5t22 76.5t18 77q3 11 2.5 33t2 43
t10.5 36.5t29 15.5q4 0 9.5 -0.5t5.5 -1.5q37 -77 63 -130.5t44 -88.5t29 -55t16.5 -30.5t7.5 -14t2 -5.5q1 -4 2 -14.5t1.5 -22t1 -22t0.5 -13.5q-10 0 -22 1t-17 13l-128 266l-11 12q-3 -11 -11.5 -39t-18 -59.5t-17.5 -59.5t-11 -39q-6 -15 -15.5 -42t-23.5 -54t-32 -47
t-40 -20q-18 0 -30 11.5t-20 28.5t-11.5 35t-3.5 30zM50 666q22 4 35 4.5t23.5 0t23 -0.5t36.5 1q2 1 14.5 1.5t27.5 1t31 0.5h45q14 0 30 -0.5t30 -1t19 -1.5q4 -1 8.5 -9.5t3.5 -12.5q-1 -5 -9.5 -14t-13.5 -10q-18 1 -45 3.5t-55.5 4.5t-55.5 3.5t-45 0.5
q-19 -2 -40 -2.5t-41 -3.5q-1 0 -6.5 -0.5t-12 -1t-12 -1t-6.5 -0.5q0 9 1.5 21.5t13.5 16.5z" />
    <glyph glyph-name="Abreve" unicode="&#x102;" horiz-adv-x="539" 
d="M24 -47q-9 0 -13 5t-5.5 12.5t-0.5 16t1 13.5l175 742q2 9 8.5 19.5t13.5 15.5q3 -9 9 -18.5t15 -16.5l278 -637q1 -1 1 -5v-6q0 -10 -4 -17.5t-14 -7.5q-13 0 -18 12l-70 162q0 1 -12.5 2.5t-19.5 1.5q-4 0 -11.5 -0.5t-15.5 -1t-14.5 -1.5t-7.5 -1q-23 -4 -59.5 -10.5
t-71.5 -14t-60.5 -13.5t-27.5 -8l-59 -231q-1 -7 -6 -10t-11 -3zM203 673l-2.5 -7.5t-3.5 -10t-3 -10.5t-2 -7q-7 -26 -15 -63l-35 -157q-9 -41 -15.5 -75t-11 -59t-4.5 -32q14 0 39 2t53.5 6.5t58 9.5t53 12t38.5 14.5t15 15.5q0 2 -0.5 6.5t-1.5 6.5zM127 911
q23 -36 43 -49.5t37 -12t31 14.5t25 29.5t19 32t13.5 23t8.5 2.5t3 -30q0 -17 -6 -33t-20 -28t-37 -20t-56 -8q-22 0 -38 7.5t-26.5 18.5t-15.5 24t-5 23v16q0 10 2.5 14t7 0t14.5 -24z" />
    <glyph glyph-name="abreve" unicode="&#x103;" horiz-adv-x="408" 
d="M16 104q0 29 6.5 72t19 89.5t32 93.5t44.5 84.5t57 60.5t70 23q0 -14 -11.5 -27.5t-26 -26t-29.5 -24t-21 -21.5q-24 -31 -43 -68.5t-33 -77t-22 -81t-8 -80.5q0 -6 2 -18.5t5.5 -25.5t9.5 -22.5t13 -9.5h3q1 0 2 1q27 30 45 65t31 72.5t22 76.5t18 77q3 11 2.5 33t2 43
t10.5 36.5t29 15.5q4 0 9.5 -0.5t5.5 -1.5q37 -77 63 -130.5t44 -88.5t29 -55t16.5 -30.5t7.5 -14t2 -5.5q1 -4 2 -14.5t1.5 -22t1 -22t0.5 -13.5q-10 0 -22 1t-17 13l-128 266l-11 12q-3 -11 -11.5 -39t-18 -59.5t-17.5 -59.5t-11 -39q-6 -15 -15.5 -42t-23.5 -54t-32 -47
t-40 -20q-18 0 -30 11.5t-20 28.5t-11.5 35t-3.5 30zM126 677q23 -36 43 -49.5t37 -12t31 14.5t25 29.5t19 32t13.5 23t8.5 2.5t3 -30q0 -17 -6 -33t-20 -28t-37 -20t-56 -8q-22 0 -38 7.5t-26.5 18.5t-15.5 24t-5 23v16q0 10 2.5 14t7 0t14.5 -24z" />
    <glyph glyph-name="Aogonek" unicode="&#x104;" horiz-adv-x="539" 
d="M417 -5q0 -14 6.5 -25.5t15 -23t15.5 -22t7 -22.5q-32 0 -51 11t-28.5 27t-13 32.5t-3.5 28.5t4 28.5t14.5 31t30 24.5t49.5 10l-63 148q0 1 -12.5 2.5t-19.5 1.5q-4 0 -11.5 -0.5t-15.5 -1t-14.5 -1.5t-7.5 -1q-23 -4 -59.5 -10.5t-71.5 -14t-60.5 -13.5t-27.5 -8
l-59 -231q-1 -7 -6 -10t-11 -3q-9 0 -13 5t-5.5 12.5t-0.5 16t1 13.5l175 742q2 9 8.5 19.5t13.5 15.5q3 -9 9 -18.5t15 -16.5l278 -637q1 -1 1 -5v-9q5 -4 5 -12q0 -11 -15 -12.5t-32.5 -6.5t-32 -18.5t-14.5 -46.5zM203 673l-2.5 -7.5t-3.5 -10t-3 -10.5t-2 -7
q-7 -26 -15 -63l-35 -157q-9 -41 -15.5 -75t-11 -59t-4.5 -32q14 0 39 2t53.5 6.5t58 9.5t53 12t38.5 14.5t15 15.5q0 2 -0.5 6.5t-1.5 6.5z" />
    <glyph glyph-name="aogonek" unicode="&#x105;" horiz-adv-x="408" 
d="M339 -5q0 -13 7 -24.5t15.5 -23t15 -22.5t6.5 -22q-31 0 -50 11t-29 27t-13 32.5t-3 28.5q0 11 3.5 28t14.5 31.5t30 23.5q18 10 46 11l-121 251l-11 12q-3 -11 -11.5 -39t-18 -59.5t-17.5 -59.5t-11 -39q-6 -15 -15.5 -42t-23.5 -54t-32 -47t-40 -20q-18 0 -30 11.5
t-20 28.5t-11.5 35t-3.5 30q0 29 6.5 72t19 89.5t32 93.5t44.5 84.5t57 60.5t70 23q0 -14 -11.5 -27.5t-26 -26t-29.5 -24t-21 -21.5q-24 -31 -43 -68.5t-33 -77t-22 -81t-8 -80.5q0 -6 2 -18.5t5.5 -25.5t9.5 -22.5t13 -9.5h3q1 0 2 1q27 30 45 65t31 72.5t22 76.5t18 77
q3 11 2.5 33t2 43t10.5 36.5t29 15.5q4 0 9.5 -0.5t5.5 -1.5q37 -77 63 -130.5t44 -88.5t29 -55t16.5 -30.5t7.5 -14t2 -5.5q1 -4 2 -14.5t2 -21.5v-10q7 -4 7 -13q0 -7 -6 -10v-3h-14q-13 -2 -28 -7q-17 -4 -32 -17.5t-15 -47.5z" />
    <glyph glyph-name="Cacute" unicode="&#x106;" 
d="M16 250q0 19 3 55t10 78.5t18.5 86t29 79t42 58.5t56.5 23q0 -15 -5.5 -25t-13.5 -19t-17 -18.5t-18 -23.5q-18 -32 -31.5 -69.5t-22.5 -76t-12.5 -78t-3.5 -77.5q0 -26 2.5 -55.5t10.5 -57t24 -50t45 -34.5h13q9 0 19 -0.5t19 -0.5h13q12 0 40 2t56.5 8.5t50.5 19
t22 35.5q0 12 -7 22.5t-7 24.5q10 0 21 -4.5t20 -11.5t15 -16.5t6 -20.5q0 -18 -13.5 -33t-35 -27t-48 -20.5t-53 -14t-49 -8t-36.5 -2.5q-51 0 -83 24t-49.5 61t-24 81t-6.5 85zM122 709l-13 -8q-10 5 -7.5 17.5t4.5 20.5q1 3 3 11t4 12q6 7 14.5 19.5l17 25t17 23.5
t13.5 18q5 6 10.5 12.5t13 12.5t15 9t14.5 2l5 -2.5l5 -2.5z" />
    <glyph glyph-name="cacute" unicode="&#x107;" horiz-adv-x="347" 
d="M16 145q0 10 3 37.5t8.5 63.5t15.5 75t23.5 72t31 54t40.5 21q-9 -28 -23.5 -66t-27.5 -79.5t-21.5 -84.5t-5 -80.5t22.5 -67.5t60 -46q38 0 66 17t48.5 38t36 38t28.5 17q0 -38 -18.5 -67t-47 -48.5t-64 -29.5t-71.5 -10q-28 0 -48.5 14t-33 35.5t-18 47t-5.5 49.5z
M129 621l-13 -8q-10 5 -7.5 17.5t4.5 20.5q1 3 3 11t4 12q6 7 14.5 19.5l17 25t17 23.5t13.5 18q5 6 10.5 12.5t13 12.5t15 9t14.5 2l5 -2.5l5 -2.5z" />
    <glyph glyph-name="Ccircumflex" unicode="&#x108;" 
d="M16 250q0 19 3 55t10 78.5t18.5 86t29 79t42 58.5t56.5 23q0 -15 -5.5 -25t-13.5 -19t-17 -18.5t-18 -23.5q-18 -32 -31.5 -69.5t-22.5 -76t-12.5 -78t-3.5 -77.5q0 -26 2.5 -55.5t10.5 -57t24 -50t45 -34.5h13q9 0 19 -0.5t19 -0.5h13q12 0 40 2t56.5 8.5t50.5 19
t22 35.5q0 12 -7 22.5t-7 24.5q10 0 21 -4.5t20 -11.5t15 -16.5t6 -20.5q0 -18 -13.5 -33t-35 -27t-48 -20.5t-53 -14t-49 -8t-36.5 -2.5q-51 0 -83 24t-49.5 61t-24 81t-6.5 85zM42 717q7 13 17.5 38.5t22 53t22 52.5t16.5 40q3 9 4.5 19t4.5 18.5t8 14.5t18 6h6q4 0 5 -1
l128 -157q24 6 30.5 -4t6.5 -24q0 -13 -7 -28t-24 -15q-22 14 -38.5 32.5t-30 38.5t-24 40t-19.5 36q-2 3 -11 7.5t-11 4.5t-6.5 -4.5t-5.5 -7.5l-89 -173q0 -1 -2 -1h-3q-12 0 -18 14z" />
    <glyph glyph-name="ccircumflex" unicode="&#x109;" horiz-adv-x="347" 
d="M16 145q0 10 3 37.5t8.5 63.5t15.5 75t23.5 72t31 54t40.5 21q-9 -28 -23.5 -66t-27.5 -79.5t-21.5 -84.5t-5 -80.5t22.5 -67.5t60 -46q38 0 66 17t48.5 38t36 38t28.5 17q0 -38 -18.5 -67t-47 -48.5t-64 -29.5t-71.5 -10q-28 0 -48.5 14t-33 35.5t-18 47t-5.5 49.5z
M31 556q7 13 17.5 38.5t22 53t22 52.5t16.5 40q3 9 4.5 19t4.5 18.5t8 14.5t18 6h6q4 0 5 -1l128 -157q24 6 30.5 -4t6.5 -24q0 -13 -7 -28t-24 -15q-22 14 -38.5 32.5t-30 38.5t-24 40t-19.5 36q-2 3 -11 7.5t-11 4.5t-6.5 -4.5t-5.5 -7.5l-89 -173q0 -1 -2 -1h-3
q-12 0 -18 14z" />
    <glyph glyph-name="Cdotaccent" unicode="&#x10a;" 
d="M16 250q0 19 3 55t10 78.5t18.5 86t29 79t42 58.5t56.5 23q0 -15 -5.5 -25t-13.5 -19t-17 -18.5t-18 -23.5q-18 -32 -31.5 -69.5t-22.5 -76t-12.5 -78t-3.5 -77.5q0 -26 2.5 -55.5t10.5 -57t24 -50t45 -34.5h13q9 0 19 -0.5t19 -0.5h13q12 0 40 2t56.5 8.5t50.5 19
t22 35.5q0 12 -7 22.5t-7 24.5q10 0 21 -4.5t20 -11.5t15 -16.5t6 -20.5q0 -18 -13.5 -33t-35 -27t-48 -20.5t-53 -14t-49 -8t-36.5 -2.5q-51 0 -83 24t-49.5 61t-24 81t-6.5 85zM155 788q0 26 15 45t45 19q28 0 46.5 -9.5t18.5 -37.5q0 -16 -6.5 -31.5t-17.5 -27.5
t-26.5 -19.5t-33.5 -7.5q-15 0 -23 6.5t-12 17t-5 22.5t-1 23z" />
    <glyph glyph-name="cdotaccent" unicode="&#x10b;" horiz-adv-x="347" 
d="M16 145q0 10 3 37.5t8.5 63.5t15.5 75t23.5 72t31 54t40.5 21q-9 -28 -23.5 -66t-27.5 -79.5t-21.5 -84.5t-5 -80.5t22.5 -67.5t60 -46q38 0 66 17t48.5 38t36 38t28.5 17q0 -38 -18.5 -67t-47 -48.5t-64 -29.5t-71.5 -10q-28 0 -48.5 14t-33 35.5t-18 47t-5.5 49.5z
M111 604q0 26 15 45t45 19q28 0 46.5 -9.5t18.5 -37.5q0 -16 -6.5 -31.5t-17.5 -27.5t-26.5 -19.5t-33.5 -7.5q-15 0 -23 6.5t-12 17t-5 22.5t-1 23z" />
    <glyph glyph-name="Ccaron" unicode="&#x10c;" 
d="M16 250q0 19 3 55t10 78.5t18.5 86t29 79t42 58.5t56.5 23q0 -15 -5.5 -25t-13.5 -19t-17 -18.5t-18 -23.5q-18 -32 -31.5 -69.5t-22.5 -76t-12.5 -78t-3.5 -77.5q0 -26 2.5 -55.5t10.5 -57t24 -50t45 -34.5h13q9 0 19 -0.5t19 -0.5h13q12 0 40 2t56.5 8.5t50.5 19
t22 35.5q0 12 -7 22.5t-7 24.5q10 0 21 -4.5t20 -11.5t15 -16.5t6 -20.5q0 -18 -13.5 -33t-35 -27t-48 -20.5t-53 -14t-49 -8t-36.5 -2.5q-51 0 -83 24t-49.5 61t-24 81t-6.5 85zM59 867q4 6 14 6q4 0 4 -1q23 -56 46.5 -85.5t47.5 -38t47.5 -0.5t45.5 24.5t41.5 37.5
t35.5 40q4 4 6.5 5t6.5 1q13 0 19 -7.5t6 -14.5q-56 -75 -113.5 -102t-103 -17t-74.5 50.5t-29 101.5z" />
    <glyph glyph-name="ccaron" unicode="&#x10d;" horiz-adv-x="347" 
d="M16 145q0 10 3 37.5t8.5 63.5t15.5 75t23.5 72t31 54t40.5 21q-9 -28 -23.5 -66t-27.5 -79.5t-21.5 -84.5t-5 -80.5t22.5 -67.5t60 -46q38 0 66 17t48.5 38t36 38t28.5 17q0 -38 -18.5 -67t-47 -48.5t-64 -29.5t-71.5 -10q-28 0 -48.5 14t-33 35.5t-18 47t-5.5 49.5z
M16 773q4 6 14 6q4 0 4 -1q23 -56 46.5 -85.5t47.5 -38t47.5 -0.5t45.5 24.5t41.5 37.5t35.5 40q4 4 6.5 5t6.5 1q13 0 19 -7.5t6 -14.5q-56 -75 -113.5 -102t-103 -17t-74.5 50.5t-29 101.5z" />
    <glyph glyph-name="Dcaron" unicode="&#x10e;" horiz-adv-x="499" 
d="M184 29q0 3 19.5 10t48 18.5t62 28.5t62 41t48 56t19.5 73q0 28 -17 62.5t-44 68.5t-62.5 66.5t-71.5 57.5t-70.5 40t-60.5 15q0 -59 5.5 -117.5t11.5 -117.5t11.5 -117.5t5.5 -118.5q0 -13 -2.5 -21t-21.5 -16l-11 11l-47 511q-2 0 -9.5 4.5t-15.5 10t-15 12.5t-7 13
t9.5 15t21.5 17.5t23 15t16 6.5q15 0 18.5 -7t3.5 -16.5t1 -20t12 -15.5q35 -20 74 -41.5t78.5 -47t75 -54.5t62.5 -63.5t43 -74t16 -86.5q0 -44 -24 -88.5t-61 -80t-82.5 -58t-88.5 -22.5q-13 0 -24.5 8t-11.5 22zM89 957q4 6 14 6q4 0 4 -1q23 -56 46.5 -85.5t47.5 -38
t47.5 -0.5t45.5 24.5t41.5 37.5t35.5 40q4 4 6.5 5t6.5 1q13 0 19 -7.5t6 -14.5q-56 -75 -113.5 -102t-103 -17t-74.5 50.5t-29 101.5z" />
    <glyph glyph-name="Emacron" unicode="&#x112;" horiz-adv-x="469" 
d="M40 499v126q2 1 9 1.5t9 0.5q10 0 14 -4t6 -8.5t4.5 -8.5t9.5 -4q16 0 40.5 6.5t51.5 14.5t53.5 15.5t45.5 10.5h8q12 0 20.5 -5.5t8.5 -18.5q0 -1 -0.5 -5t-0.5 -5q-26 -2 -59 -6t-66.5 -12.5t-62 -23.5t-45.5 -39v-66q0 -23 0.5 -50t2 -52t4 -45.5t6.5 -30.5l255 104
q21 -2 28.5 -5t6.5 -8t-8.5 -10.5t-15.5 -11.5q-14 -6 -50 -22.5t-77 -35t-77 -35t-50 -23.5q-8 -1 -10.5 -6t-3 -11t0 -12.5t0.5 -9.5q0 -29 7 -57t7 -58q0 -13 -9 -24.5t-30 -11.5zM446 104q-9 -2 -27.5 -7.5t-43 -12.5t-51 -14.5t-50.5 -14t-43.5 -12t-28.5 -8.5
q-23 -7 -33.5 -12.5t-18 -9t-17 -5t-30.5 -1.5q0 24 4.5 34.5t25.5 16.5l299 83zM77 850q22 4 35 4.5t23.5 0t23 -0.5t36.5 1q2 1 14.5 1.5t27.5 1t31 0.5h45q14 0 30 -0.5t30 -1t19 -1.5q4 -1 8.5 -9.5t3.5 -12.5q-1 -5 -9.5 -14t-13.5 -10q-18 1 -45 3.5t-55.5 4.5
t-55.5 3.5t-45 0.5q-19 -2 -40 -2.5t-41 -3.5q-1 0 -6.5 -0.5t-12 -1t-12 -1t-6.5 -0.5q0 9 1.5 21.5t13.5 16.5z" />
    <glyph glyph-name="emacron" unicode="&#x113;" horiz-adv-x="337" 
d="M58 232q-23 -14 -47 -21.5t-39 9.5q0 19 13 25.5t29.5 10.5t33 10t22.5 24q6 20 11 48t14 54t26 43.5t47 17.5q17 0 42.5 -11.5t48.5 -27.5t39 -34t16 -33q0 -7 -1.5 -13t-10.5 -10l-197 -68l-1 -5q0 -4 -1 -11v-12v-10q0 -20 3 -49.5t12.5 -57t26.5 -47.5t46 -20
q11 0 18.5 4.5t15 10t15 10t17.5 4.5q0 -15 -6.5 -28.5t-17.5 -23.5t-25 -16t-28 -6q-38 0 -61 26.5t-35.5 64t-17.5 77t-8 65.5zM180 409q-18 0 -30.5 -10t-20.5 -25t-11.5 -32.5t-3.5 -31.5q16 0 35.5 2t38.5 8t34.5 15.5t21.5 23.5q-15 24 -28 37t-36 13zM32 563
q22 4 35 4.5t23.5 0t23 -0.5t36.5 1q2 1 14.5 1.5t27.5 1t31 0.5h45q14 0 30 -0.5t30 -1t19 -1.5q4 -1 8.5 -9.5t3.5 -12.5q-1 -5 -9.5 -14t-13.5 -10q-18 1 -45 3.5t-55.5 4.5t-55.5 3.5t-45 0.5q-19 -2 -40 -2.5t-41 -3.5q-1 0 -6.5 -0.5t-12 -1t-12 -1t-6.5 -0.5
q0 9 1.5 21.5t13.5 16.5z" />
    <glyph glyph-name="Ebreve" unicode="&#x114;" horiz-adv-x="469" 
d="M40 499v126q2 1 9 1.5t9 0.5q10 0 14 -4t6 -8.5t4.5 -8.5t9.5 -4q16 0 40.5 6.5t51.5 14.5t53.5 15.5t45.5 10.5h8q12 0 20.5 -5.5t8.5 -18.5q0 -1 -0.5 -5t-0.5 -5q-26 -2 -59 -6t-66.5 -12.5t-62 -23.5t-45.5 -39v-66q0 -23 0.5 -50t2 -52t4 -45.5t6.5 -30.5l255 104
q21 -2 28.5 -5t6.5 -8t-8.5 -10.5t-15.5 -11.5q-14 -6 -50 -22.5t-77 -35t-77 -35t-50 -23.5q-8 -1 -10.5 -6t-3 -11t0 -12.5t0.5 -9.5q0 -29 7 -57t7 -58q0 -13 -9 -24.5t-30 -11.5zM446 104q-9 -2 -27.5 -7.5t-43 -12.5t-51 -14.5t-50.5 -14t-43.5 -12t-28.5 -8.5
q-23 -7 -33.5 -12.5t-18 -9t-17 -5t-30.5 -1.5q0 24 4.5 34.5t25.5 16.5l299 83zM157 861q23 -36 43 -49.5t37 -12t31 14.5t25 29.5t19 32t13.5 23t8.5 2.5t3 -30q0 -17 -6 -33t-20 -28t-37 -20t-56 -8q-22 0 -38 7.5t-26.5 18.5t-15.5 24t-5 23v16q0 10 2.5 14t7 0
t14.5 -24z" />
    <glyph glyph-name="ebreve" unicode="&#x115;" horiz-adv-x="337" 
d="M58 232q-23 -14 -47 -21.5t-39 9.5q0 19 13 25.5t29.5 10.5t33 10t22.5 24q6 20 11 48t14 54t26 43.5t47 17.5q17 0 42.5 -11.5t48.5 -27.5t39 -34t16 -33q0 -7 -1.5 -13t-10.5 -10l-197 -68l-1 -5q0 -4 -1 -11v-12v-10q0 -20 3 -49.5t12.5 -57t26.5 -47.5t46 -20
q11 0 18.5 4.5t15 10t15 10t17.5 4.5q0 -15 -6.5 -28.5t-17.5 -23.5t-25 -16t-28 -6q-38 0 -61 26.5t-35.5 64t-17.5 77t-8 65.5zM180 409q-18 0 -30.5 -10t-20.5 -25t-11.5 -32.5t-3.5 -31.5q16 0 35.5 2t38.5 8t34.5 15.5t21.5 23.5q-15 24 -28 37t-36 13zM93 677
q23 -36 43 -49.5t37 -12t31 14.5t25 29.5t19 32t13.5 23t8.5 2.5t3 -30q0 -17 -6 -33t-20 -28t-37 -20t-56 -8q-22 0 -38 7.5t-26.5 18.5t-15.5 24t-5 23v16q0 10 2.5 14t7 0t14.5 -24z" />
    <glyph glyph-name="Edotaccent" unicode="&#x116;" horiz-adv-x="469" 
d="M40 499v126q2 1 9 1.5t9 0.5q10 0 14 -4t6 -8.5t4.5 -8.5t9.5 -4q16 0 40.5 6.5t51.5 14.5t53.5 15.5t45.5 10.5h8q12 0 20.5 -5.5t8.5 -18.5q0 -1 -0.5 -5t-0.5 -5q-26 -2 -59 -6t-66.5 -12.5t-62 -23.5t-45.5 -39v-66q0 -23 0.5 -50t2 -52t4 -45.5t6.5 -30.5l255 104
q21 -2 28.5 -5t6.5 -8t-8.5 -10.5t-15.5 -11.5q-14 -6 -50 -22.5t-77 -35t-77 -35t-50 -23.5q-8 -1 -10.5 -6t-3 -11t0 -12.5t0.5 -9.5q0 -29 7 -57t7 -58q0 -13 -9 -24.5t-30 -11.5zM446 104q-9 -2 -27.5 -7.5t-43 -12.5t-51 -14.5t-50.5 -14t-43.5 -12t-28.5 -8.5
q-23 -7 -33.5 -12.5t-18 -9t-17 -5t-30.5 -1.5q0 24 4.5 34.5t25.5 16.5l299 83zM172 788q0 26 15 45t45 19q28 0 46.5 -9.5t18.5 -37.5q0 -16 -6.5 -31.5t-17.5 -27.5t-26.5 -19.5t-33.5 -7.5q-15 0 -23 6.5t-12 17t-5 22.5t-1 23z" />
    <glyph glyph-name="edotaccent" unicode="&#x117;" horiz-adv-x="337" 
d="M58 232q-23 -14 -47 -21.5t-39 9.5q0 19 13 25.5t29.5 10.5t33 10t22.5 24q6 20 11 48t14 54t26 43.5t47 17.5q17 0 42.5 -11.5t48.5 -27.5t39 -34t16 -33q0 -7 -1.5 -13t-10.5 -10l-197 -68l-1 -5q0 -4 -1 -11v-12v-10q0 -20 3 -49.5t12.5 -57t26.5 -47.5t46 -20
q11 0 18.5 4.5t15 10t15 10t17.5 4.5q0 -15 -6.5 -28.5t-17.5 -23.5t-25 -16t-28 -6q-38 0 -61 26.5t-35.5 64t-17.5 77t-8 65.5zM180 409q-18 0 -30.5 -10t-20.5 -25t-11.5 -32.5t-3.5 -31.5q16 0 35.5 2t38.5 8t34.5 15.5t21.5 23.5q-15 24 -28 37t-36 13zM105 604
q0 26 15 45t45 19q28 0 46.5 -9.5t18.5 -37.5q0 -16 -6.5 -31.5t-17.5 -27.5t-26.5 -19.5t-33.5 -7.5q-15 0 -23 6.5t-12 17t-5 22.5t-1 23z" />
    <glyph glyph-name="Eogonek" unicode="&#x118;" horiz-adv-x="469" 
d="M40 499v126q2 1 9 1.5t9 0.5q10 0 14 -4t6 -8.5t4.5 -8.5t9.5 -4q16 0 40.5 6.5t51.5 14.5t53.5 15.5t45.5 10.5h8q12 0 20.5 -5.5t8.5 -18.5q0 -1 -0.5 -5t-0.5 -5q-26 -2 -59 -6t-66.5 -12.5t-62 -23.5t-45.5 -39v-66q0 -23 0.5 -50t2 -52t4 -45.5t6.5 -30.5l255 104
q21 -2 28.5 -5t6.5 -8t-8.5 -10.5t-15.5 -11.5q-14 -6 -50 -22.5t-77 -35t-77 -35t-50 -23.5q-8 -1 -10.5 -6t-3 -11t0 -12.5t0.5 -9.5q0 -29 7 -57t7 -58q0 -13 -9 -24.5t-30 -11.5zM446 104q-2 -1 -7 -1q5 -2 7 -9q2 -6 -3.5 -11t-15 -10.5t-19.5 -12t-18 -17t-10 -25
t6 -34.5q5 -13 15 -22t22 -16.5t21.5 -15.5t14.5 -19q-30 -11 -51.5 -7t-36.5 16t-23.5 26t-11.5 25q-5 12 -6.5 28.5t3 34t19.5 33.5q9 9 24 17h-1q-24 -7 -50.5 -14.5t-50.5 -14t-43.5 -12t-28.5 -8.5q-23 -7 -33.5 -12.5t-18 -9t-17 -5t-30.5 -1.5q0 24 4.5 34.5
t25.5 16.5l299 83z" />
    <glyph glyph-name="eogonek" unicode="&#x119;" horiz-adv-x="337" 
d="M138 -75q0 -13 6.5 -25t15 -23t15.5 -22t7 -22q-32 0 -51 11t-28.5 27t-13 32.5t-3.5 28.5q0 11 4 28t14 31q10 13 27 22q-7 6 -12 12q-23 27 -35.5 64.5t-17.5 77t-8 65.5q-23 -14 -47 -21.5t-39 9.5q0 19 13 25.5t29.5 10.5t33 10t22.5 24q6 20 11 48t14 54t26 43.5
t47 17.5q17 0 42.5 -11.5t48.5 -27.5t39 -34t16 -33q0 -7 -1.5 -13t-10.5 -10l-197 -68l-1 -5q0 -4 -1 -11v-12v-10q0 -20 3 -49.5t12.5 -57t26.5 -47.5t46 -20q11 0 18.5 4.5t15 10t15 10t17.5 4.5q0 -15 -6.5 -28.5t-17.5 -23.5l-3 -3q2 -4 2 -8q0 -11 -15 -13t-32.5 -6.5
t-32 -18t-14.5 -47.5zM180 409q-18 0 -30.5 -10t-20.5 -25t-11.5 -32.5t-3.5 -31.5q16 0 35.5 2t38.5 8t34.5 15.5t21.5 23.5q-15 24 -28 37t-36 13z" />
    <glyph glyph-name="Ecaron" unicode="&#x11a;" horiz-adv-x="469" 
d="M40 499v126q2 1 9 1.5t9 0.5q10 0 14 -4t6 -8.5t4.5 -8.5t9.5 -4q16 0 40.5 6.5t51.5 14.5t53.5 15.5t45.5 10.5h8q12 0 20.5 -5.5t8.5 -18.5q0 -1 -0.5 -5t-0.5 -5q-26 -2 -59 -6t-66.5 -12.5t-62 -23.5t-45.5 -39v-66q0 -23 0.5 -50t2 -52t4 -45.5t6.5 -30.5l255 104
q21 -2 28.5 -5t6.5 -8t-8.5 -10.5t-15.5 -11.5q-14 -6 -50 -22.5t-77 -35t-77 -35t-50 -23.5q-8 -1 -10.5 -6t-3 -11t0 -12.5t0.5 -9.5q0 -29 7 -57t7 -58q0 -13 -9 -24.5t-30 -11.5zM446 104q-9 -2 -27.5 -7.5t-43 -12.5t-51 -14.5t-50.5 -14t-43.5 -12t-28.5 -8.5
q-23 -7 -33.5 -12.5t-18 -9t-17 -5t-30.5 -1.5q0 24 4.5 34.5t25.5 16.5l299 83zM68 854q4 6 14 6q4 0 4 -1q23 -56 46.5 -85.5t47.5 -38t47.5 -0.5t45.5 24.5t41.5 37.5t35.5 40q4 4 6.5 5t6.5 1q13 0 19 -7.5t6 -14.5q-56 -75 -113.5 -102t-103 -17t-74.5 50.5t-29 101.5z
" />
    <glyph glyph-name="ecaron" unicode="&#x11b;" horiz-adv-x="337" 
d="M58 232q-23 -14 -47 -21.5t-39 9.5q0 19 13 25.5t29.5 10.5t33 10t22.5 24q6 20 11 48t14 54t26 43.5t47 17.5q17 0 42.5 -11.5t48.5 -27.5t39 -34t16 -33q0 -7 -1.5 -13t-10.5 -10l-197 -68l-1 -5q0 -4 -1 -11v-12v-10q0 -20 3 -49.5t12.5 -57t26.5 -47.5t46 -20
q11 0 18.5 4.5t15 10t15 10t17.5 4.5q0 -15 -6.5 -28.5t-17.5 -23.5t-25 -16t-28 -6q-38 0 -61 26.5t-35.5 64t-17.5 77t-8 65.5zM180 409q-18 0 -30.5 -10t-20.5 -25t-11.5 -32.5t-3.5 -31.5q16 0 35.5 2t38.5 8t34.5 15.5t21.5 23.5q-15 24 -28 37t-36 13zM11 773
q4 6 14 6q4 0 4 -1q23 -56 46.5 -85.5t47.5 -38t47.5 -0.5t45.5 24.5t41.5 37.5t35.5 40q4 4 6.5 5t6.5 1q13 0 19 -7.5t6 -14.5q-56 -75 -113.5 -102t-103 -17t-74.5 50.5t-29 101.5z" />
    <glyph glyph-name="Gcircumflex" unicode="&#x11c;" horiz-adv-x="516" 
d="M438 86q-27 -20 -53 -36t-53.5 -26.5t-57 -15t-63.5 -4.5q-50 0 -86 17t-59.5 47t-34.5 70.5t-11 88.5q0 53 9 117.5t29.5 128t54 118.5t82.5 88h5.5h5.5q10 0 17 -4t7 -14q0 -2 -0.5 -4t-0.5 -3q-45 -39 -77.5 -88t-54 -103.5t-32 -113t-10.5 -118.5q0 -41 10.5 -76
t32.5 -61t54 -40t74 -14q10 0 29.5 4t43.5 11t49 17.5t44.5 23.5t32.5 28t13 33v190q-3 0 -13 1t-21 2.5t-21 2.5t-14 0q-5 -1 -32 -6.5t-60 -13l-66 -15t-51 -11.5q-2 0 -7 -2t-10.5 -3.5t-11 -3.5t-6.5 -2q-2 -1 -3 -1h-3q-10 0 -13.5 10.5t-3.5 18.5q0 6 2.5 11t9.5 7
l302 58h14h19q5 0 13 1t15.5 0t13.5 -5.5t6 -13.5v-5l-12 -58v-402q-30 0 -35 31q-1 8 -3 27.5t-4 42t-3.5 41.5t-1.5 27zM113 904q7 13 17.5 38.5t22 53t22 52.5t16.5 40q3 9 4.5 19t4.5 18.5t8 14.5t18 6h6q4 0 5 -1l128 -157q24 6 30.5 -4t6.5 -24q0 -13 -7 -28t-24 -15
q-22 14 -38.5 32.5t-30 38.5t-24 40t-19.5 36q-2 3 -11 7.5t-11 4.5t-6.5 -4.5t-5.5 -7.5l-89 -173q0 -1 -2 -1h-3q-12 0 -18 14z" />
    <glyph glyph-name="gcircumflex" unicode="&#x11d;" horiz-adv-x="412" 
d="M130 -383q0 9 1.5 18.5t6 12t11 -5.5t16.5 -33q32 0 58.5 13.5t47.5 36.5t35.5 53t24.5 62t14.5 63.5t4.5 58.5q0 104 -20 212.5t-61 204.5q-20 -44 -35 -91t-36 -90.5t-51.5 -78t-81.5 -54.5q-18 0 -28.5 9.5t-16 23.5t-6.5 29.5t-1 29.5q0 22 5.5 58.5t17.5 78.5
t28.5 84t38.5 76t49 55t59 21q10 0 20 -5t20 -11l20 -12q10 -5 21 -8q3 -13 10 -43t15 -67.5t16.5 -79.5t16.5 -79.5t14.5 -68t8.5 -44.5q1 -7 3.5 -23.5t4 -35t3 -34.5t1.5 -22q0 -29 -4 -68t-14 -80t-26 -81t-40 -72t-56.5 -51.5t-74.5 -19.5q-24 0 -32 18t-8 40zM47 100
v-17q0 -9 2 -17.5t7 -15t16 -6.5q18 1 36.5 20t34 44t28 50.5t17.5 38.5q4 9 12.5 34t17.5 52.5t17 53t11 35.5v5q0 8 -6.5 14t-15 9t-17.5 5t-15 2q-22 0 -41.5 -21t-35.5 -53t-28.5 -69.5t-21.5 -72t-13.5 -60t-4.5 -31.5zM58 527q7 13 17.5 38.5t22 53t22 52.5t16.5 40
q3 9 4.5 19t4.5 18.5t8 14.5t18 6h6q4 0 5 -1l128 -157q24 6 30.5 -4t6.5 -24q0 -13 -7 -28t-24 -15q-22 14 -38.5 32.5t-30 38.5t-24 40t-19.5 36q-2 3 -11 7.5t-11 4.5t-6.5 -4.5t-5.5 -7.5l-89 -173q0 -1 -2 -1h-3q-12 0 -18 14z" />
    <glyph glyph-name="Gbreve" unicode="&#x11e;" horiz-adv-x="516" 
d="M438 86q-27 -20 -53 -36t-53.5 -26.5t-57 -15t-63.5 -4.5q-50 0 -86 17t-59.5 47t-34.5 70.5t-11 88.5q0 53 9 117.5t29.5 128t54 118.5t82.5 88h5.5h5.5q10 0 17 -4t7 -14q0 -2 -0.5 -4t-0.5 -3q-45 -39 -77.5 -88t-54 -103.5t-32 -113t-10.5 -118.5q0 -41 10.5 -76
t32.5 -61t54 -40t74 -14q10 0 29.5 4t43.5 11t49 17.5t44.5 23.5t32.5 28t13 33v190q-3 0 -13 1t-21 2.5t-21 2.5t-14 0q-5 -1 -32 -6.5t-60 -13l-66 -15t-51 -11.5q-2 0 -7 -2t-10.5 -3.5t-11 -3.5t-6.5 -2q-2 -1 -3 -1h-3q-10 0 -13.5 10.5t-3.5 18.5q0 6 2.5 11t9.5 7
l302 58h14h19q5 0 13 1t15.5 0t13.5 -5.5t6 -13.5v-5l-12 -58v-402q-30 0 -35 31q-1 8 -3 27.5t-4 42t-3.5 41.5t-1.5 27zM181 861q23 -36 43 -49.5t37 -12t31 14.5t25 29.5t19 32t13.5 23t8.5 2.5t3 -30q0 -17 -6 -33t-20 -28t-37 -20t-56 -8q-22 0 -38 7.5t-26.5 18.5
t-15.5 24t-5 23v16q0 10 2.5 14t7 0t14.5 -24z" />
    <glyph glyph-name="gbreve" unicode="&#x11f;" horiz-adv-x="412" 
d="M130 -383q0 9 1.5 18.5t6 12t11 -5.5t16.5 -33q32 0 58.5 13.5t47.5 36.5t35.5 53t24.5 62t14.5 63.5t4.5 58.5q0 104 -20 212.5t-61 204.5q-20 -44 -35 -91t-36 -90.5t-51.5 -78t-81.5 -54.5q-18 0 -28.5 9.5t-16 23.5t-6.5 29.5t-1 29.5q0 22 5.5 58.5t17.5 78.5
t28.5 84t38.5 76t49 55t59 21q10 0 20 -5t20 -11l20 -12q10 -5 21 -8q3 -13 10 -43t15 -67.5t16.5 -79.5t16.5 -79.5t14.5 -68t8.5 -44.5q1 -7 3.5 -23.5t4 -35t3 -34.5t1.5 -22q0 -29 -4 -68t-14 -80t-26 -81t-40 -72t-56.5 -51.5t-74.5 -19.5q-24 0 -32 18t-8 40zM47 100
v-17q0 -9 2 -17.5t7 -15t16 -6.5q18 1 36.5 20t34 44t28 50.5t17.5 38.5q4 9 12.5 34t17.5 52.5t17 53t11 35.5v5q0 8 -6.5 14t-15 9t-17.5 5t-15 2q-22 0 -41.5 -21t-35.5 -53t-28.5 -69.5t-21.5 -72t-13.5 -60t-4.5 -31.5zM128 677q23 -36 43 -49.5t37 -12t31 14.5
t25 29.5t19 32t13.5 23t8.5 2.5t3 -30q0 -17 -6 -33t-20 -28t-37 -20t-56 -8q-22 0 -38 7.5t-26.5 18.5t-15.5 24t-5 23v16q0 10 2.5 14t7 0t14.5 -24z" />
    <glyph glyph-name="Gdotaccent" unicode="&#x120;" horiz-adv-x="516" 
d="M438 86q-27 -20 -53 -36t-53.5 -26.5t-57 -15t-63.5 -4.5q-50 0 -86 17t-59.5 47t-34.5 70.5t-11 88.5q0 53 9 117.5t29.5 128t54 118.5t82.5 88h5.5h5.5q10 0 17 -4t7 -14q0 -2 -0.5 -4t-0.5 -3q-45 -39 -77.5 -88t-54 -103.5t-32 -113t-10.5 -118.5q0 -41 10.5 -76
t32.5 -61t54 -40t74 -14q10 0 29.5 4t43.5 11t49 17.5t44.5 23.5t32.5 28t13 33v190q-3 0 -13 1t-21 2.5t-21 2.5t-14 0q-5 -1 -32 -6.5t-60 -13l-66 -15t-51 -11.5q-2 0 -7 -2t-10.5 -3.5t-11 -3.5t-6.5 -2q-2 -1 -3 -1h-3q-10 0 -13.5 10.5t-3.5 18.5q0 6 2.5 11t9.5 7
l302 58h14h19q5 0 13 1t15.5 0t13.5 -5.5t6 -13.5v-5l-12 -58v-402q-30 0 -35 31q-1 8 -3 27.5t-4 42t-3.5 41.5t-1.5 27zM195 788q0 26 15 45t45 19q28 0 46.5 -9.5t18.5 -37.5q0 -16 -6.5 -31.5t-17.5 -27.5t-26.5 -19.5t-33.5 -7.5q-15 0 -23 6.5t-12 17t-5 22.5t-1 23z
" />
    <glyph glyph-name="gdotaccent" unicode="&#x121;" horiz-adv-x="412" 
d="M130 -383q0 9 1.5 18.5t6 12t11 -5.5t16.5 -33q32 0 58.5 13.5t47.5 36.5t35.5 53t24.5 62t14.5 63.5t4.5 58.5q0 104 -20 212.5t-61 204.5q-20 -44 -35 -91t-36 -90.5t-51.5 -78t-81.5 -54.5q-18 0 -28.5 9.5t-16 23.5t-6.5 29.5t-1 29.5q0 22 5.5 58.5t17.5 78.5
t28.5 84t38.5 76t49 55t59 21q10 0 20 -5t20 -11l20 -12q10 -5 21 -8q3 -13 10 -43t15 -67.5t16.5 -79.5t16.5 -79.5t14.5 -68t8.5 -44.5q1 -7 3.5 -23.5t4 -35t3 -34.5t1.5 -22q0 -29 -4 -68t-14 -80t-26 -81t-40 -72t-56.5 -51.5t-74.5 -19.5q-24 0 -32 18t-8 40zM47 100
v-17q0 -9 2 -17.5t7 -15t16 -6.5q18 1 36.5 20t34 44t28 50.5t17.5 38.5q4 9 12.5 34t17.5 52.5t17 53t11 35.5v5q0 8 -6.5 14t-15 9t-17.5 5t-15 2q-22 0 -41.5 -21t-35.5 -53t-28.5 -69.5t-21.5 -72t-13.5 -60t-4.5 -31.5zM143 604q0 26 15 45t45 19q28 0 46.5 -9.5
t18.5 -37.5q0 -16 -6.5 -31.5t-17.5 -27.5t-26.5 -19.5t-33.5 -7.5q-15 0 -23 6.5t-12 17t-5 22.5t-1 23z" />
    <glyph glyph-name="Gcommaaccent" unicode="&#x122;" horiz-adv-x="516" 
d="M438 86q-27 -20 -53 -36t-53.5 -26.5t-57 -15t-63.5 -4.5q-50 0 -86 17t-59.5 47t-34.5 70.5t-11 88.5q0 53 9 117.5t29.5 128t54 118.5t82.5 88h5.5h5.5q10 0 17 -4t7 -14q0 -2 -0.5 -4t-0.5 -3q-45 -39 -77.5 -88t-54 -103.5t-32 -113t-10.5 -118.5q0 -41 10.5 -76
t32.5 -61t54 -40t74 -14q10 0 29.5 4t43.5 11t49 17.5t44.5 23.5t32.5 28t13 33v190q-3 0 -13 1t-21 2.5t-21 2.5t-14 0q-5 -1 -32 -6.5t-60 -13l-66 -15t-51 -11.5q-2 0 -7 -2t-10.5 -3.5t-11 -3.5t-6.5 -2q-2 -1 -3 -1h-3q-10 0 -13.5 10.5t-3.5 18.5q0 6 2.5 11t9.5 7
l302 58h14h19q5 0 13 1t15.5 0t13.5 -5.5t6 -13.5v-5l-12 -58v-402q-30 0 -35 31q-1 8 -3 27.5t-4 42t-3.5 41.5t-1.5 27zM279 -241q0 33 -7 53t-17.5 30.5t-22.5 15t-22.5 8t-17 7.5t-6.5 14q0 18 11 21.5t35 3.5q30 0 49 -15.5t30 -38t14.5 -46.5t3.5 -42t-7 -42.5
t-19 -43.5t-29 -26t-39 9q-18 13 -13.5 21.5t17.5 17.5t26.5 20.5t13.5 32.5z" />
    <glyph glyph-name="Hcircumflex" unicode="&#x124;" horiz-adv-x="418" 
d="M36 213q-14 7 -19 14.5t-5 19.5q0 15 7 22t22 13v348h35v-345q3 0 9 -1t12 -1t12 -0.5t8 -0.5q9 1 32.5 6t49 10.5t48.5 10.5t32 8q0 2 0.5 9t0.5 9q0 41 -3.5 83t-8.5 83.5t-8.5 82.5t-3.5 84q7 0 19 -2.5t17 -12.5q0 -78 7 -162.5t27 -161.5q17 1 20.5 -5.5t3.5 -16.5
q0 -11 -2 -19t-11 -17l10 -30t14.5 -45.5t14 -45.5t8.5 -30v-11q0 -9 -3.5 -16.5t-13.5 -7.5q-7 0 -10.5 2.5t-7.5 9.5q-2 6 -7 23t-10 35.5t-10.5 34.5t-7.5 23l-5 15l-8 19q-3 9 -6 16t-3 8q-1 0 -9 1t-11 1q-49 0 -100 -10t-90 -39v-13q0 -9 -0.5 -18.5t-0.5 -19.5v-13
q0 -33 1 -61.5t12 -59.5q0 2 2.5 11.5t6.5 20t9 19t10 8.5h4q2 0 3 -1q0 -6 -2 -21t-4 -31.5t-3.5 -31.5t-2.5 -20t-3 -10.5t-6.5 -11.5t-9 -10t-10.5 -4q-12 0 -20 13t-12.5 29.5t-6 32t-1.5 18.5q-1 9 -3 32t-3.5 49t-3.5 49t-2 33zM53 713q7 13 17.5 38.5t22 53t22 52.5
t16.5 40q3 9 4.5 19t4.5 18.5t8 14.5t18 6h6q4 0 5 -1l128 -157q24 6 30.5 -4t6.5 -24q0 -13 -7 -28t-24 -15q-22 14 -38.5 32.5t-30 38.5t-24 40t-19.5 36q-2 3 -11 7.5t-11 4.5t-6.5 -4.5t-5.5 -7.5l-89 -173q0 -1 -2 -1h-3q-12 0 -18 14z" />
    <glyph glyph-name="hcircumflex" unicode="&#x125;" horiz-adv-x="458" 
d="M15 770l43 7l46 -545q7 34 21 74t37.5 73t58 51.5t80.5 9.5q32 -5 55.5 -24.5t40.5 -47.5t27.5 -61.5t16.5 -68t8.5 -66.5t2.5 -56q0 -21 -3.5 -28.5t-18.5 -7.5q-7 0 -14 1.5t-10 11.5q2 19 2 50t-3.5 64t-11.5 66.5t-22.5 60.5t-37.5 43.5t-55 16.5q-33 0 -57.5 -14.5
t-41 -37.5t-26.5 -51.5t-14 -58.5q0 -8 -1.5 -25.5t-3.5 -39t-3 -46t-2 -46t-1.5 -38.5t-0.5 -25q-3 -10 -9 -11.5t-14 -1.5q-1 0 -5.5 0.5t-6.5 0.5zM143 709q7 13 17.5 38.5t22 53t22 52.5t16.5 40q3 9 4.5 19t4.5 18.5t8 14.5t18 6h6q4 0 5 -1l128 -157q24 6 30.5 -4
t6.5 -24q0 -13 -7 -28t-24 -15q-22 14 -38.5 32.5t-30 38.5t-24 40t-19.5 36q-2 3 -11 7.5t-11 4.5t-6.5 -4.5t-5.5 -7.5l-89 -173q0 -1 -2 -1h-3q-12 0 -18 14z" />
    <glyph glyph-name="Itilde" unicode="&#x128;" horiz-adv-x="121" 
d="M58 12q-1 19 -5 60.5t-8.5 94.5t-10 111t-10 110.5t-8 94.5t-4.5 61v7q0 5 -0.5 11.5t-0.5 12.5v18q0 6 0.5 12.5t0.5 11.5v8q2 10 9 12t14 2q2 0 6 -0.5t6 -0.5l46 -557q1 -3 2.5 -9t4 -14t3.5 -14t2 -9v-6q0 -6 -4 -11t-10 -9t-11.5 -6.5t-9.5 -2.5q-3 0 -7.5 4.5
t-4.5 7.5zM-132 730q-3 27 4 53t22 46.5t38 32t53 9.5q26 0 46 -16.5t39.5 -35.5t40.5 -35t50 -16q24 0 39 11.5t26 25t19.5 25t19.5 11.5q0 -58 -31 -82t-78 -24q-34 0 -56.5 14.5t-41 32t-36.5 32t-42 14.5q-20 0 -33 -11.5t-21 -28.5t-12 -37.5t-6 -36.5
q-5 -4 -11.5 -8.5t-13.5 -4.5q-9 0 -12 10.5t-3 18.5z" />
    <glyph glyph-name="itilde" unicode="&#x129;" horiz-adv-x="145" 
d="M-122 546q-3 27 4 53t22 46.5t38 32t53 9.5q26 0 46 -16.5t39.5 -35.5t40.5 -35t50 -16q24 0 39 11.5t26 25t19.5 25t18.5 11.5q0 -58 -30.5 -82t-77.5 -24q-34 0 -56.5 14.5t-41.5 32t-37 32t-41 14.5q-20 0 -33 -11.5t-21 -28.5t-12 -37.5t-6 -36.5q-5 -4 -11.5 -8.5
t-13.5 -4.5q-9 0 -12 10.5t-3 18.5zM12 455q6 0 13.5 -4t9.5 -11l70 -347q12 -18 17.5 -29t5.5 -29q0 -9 -3 -22.5t-14 -13.5h-4q-2 0 -2 1q-2 1 -6 4l-15 15q-3 3 -3 4l-69 395v37z" />
    <glyph glyph-name="imacron" unicode="&#x12b;" horiz-adv-x="145" 
d="M12 455q6 0 13.5 -4t9.5 -11l70 -347q12 -18 17.5 -29t5.5 -29q0 -9 -3 -22.5t-14 -13.5h-4q-2 0 -2 1q-2 1 -6 4l-15 15q-3 3 -3 4l-69 395v37zM-84 666q23 4 35.5 4.5t23.5 0t23.5 -0.5t35.5 1q2 1 14.5 1.5t28 1t30.5 0.5h45q14 0 30 -0.5t30 -1t19 -1.5
q4 -1 8.5 -9.5t3.5 -12.5q-1 -5 -9.5 -14t-13.5 -10q-18 1 -45 3.5t-55.5 4.5t-55.5 3.5t-45 0.5q-19 -2 -39.5 -2.5t-40.5 -3.5q-2 0 -7.5 -0.5t-11.5 -1t-11.5 -1t-7.5 -0.5q0 9 2 21.5t13 16.5z" />
    <glyph glyph-name="Ibreve" unicode="&#x12c;" horiz-adv-x="121" 
d="M58 12q-1 19 -5 60.5t-8.5 94.5t-10 111t-10 110.5t-8 94.5t-4.5 61v7q0 5 -0.5 11.5t-0.5 12.5v18q0 6 0.5 12.5t0.5 11.5v8q2 10 9 12t14 2q2 0 6 -0.5t6 -0.5l46 -557q1 -3 2.5 -9t4 -14t3.5 -14t2 -9v-6q0 -6 -4 -11t-10 -9t-11.5 -6.5t-9.5 -2.5q-3 0 -7.5 4.5
t-4.5 7.5zM-15 861q23 -36 43 -49.5t37 -12t31 14.5t25 29.5t19 32t13.5 23t8.5 2.5t3 -30q0 -17 -6 -33t-20 -28t-37 -20t-56 -8q-22 0 -38 7.5t-26.5 18.5t-15.5 24t-5 23v16q0 10 2.5 14t7 0t14.5 -24z" />
    <glyph glyph-name="Iogonek" unicode="&#x12e;" horiz-adv-x="121" 
d="M12 -77q0 -14 6.5 -25.5t15 -23t15.5 -22t7 -22.5q-32 0 -51 11t-28.5 27t-13 32.5t-3.5 28.5t4 28.5t14.5 31t29.5 24.5q19 9 49 10q-1 19 -5 50q-3 41 -7.5 94t-10 111t-10 110.5t-8 94.5t-4.5 61v7q0 5 -0.5 11.5t-0.5 12.5v18q0 6 0.5 12.5t0.5 11.5v8q2 10 9 12
t14 2q2 0 6 -0.5t6 -0.5l46 -557q1 -3 2.5 -9t4 -14t3.5 -14t2 -9v-6q0 -6 -4 -11q5 -3 5 -11q0 -11 -15 -12.5t-32.5 -6.5t-32 -18.5t-14.5 -46.5z" />
    <glyph glyph-name="iogonek" unicode="&#x12f;" horiz-adv-x="145" 
d="M40 -77q0 -14 6.5 -25.5t15 -23t15.5 -22t7 -22.5q-32 0 -51 11t-28.5 27t-13 32.5t-3.5 28.5t3.5 28.5t14.5 31t30 24.5q18 9 45 10l-69 395v37q6 0 13.5 -4t9.5 -11l70 -347q12 -18 17.5 -29t5.5 -29q0 -6 -2 -15q8 -3 8 -13q0 -11 -15 -12.5t-32.5 -6.5t-32 -18.5
t-14.5 -46.5zM-5 679q22 0 32.5 -5.5t10.5 -26.5q0 -7 -1 -17t-12 -13q-20 8 -25 26t-5 36z" />
    <glyph glyph-name="Idotaccent" unicode="&#x130;" horiz-adv-x="121" 
d="M58 12q-1 19 -5 60.5t-8.5 94.5t-10 111t-10 110.5t-8 94.5t-4.5 61v7q0 5 -0.5 11.5t-0.5 12.5v18q0 6 0.5 12.5t0.5 11.5v8q2 10 9 12t14 2q2 0 6 -0.5t6 -0.5l46 -557q1 -3 2.5 -9t4 -14t3.5 -14t2 -9v-6q0 -6 -4 -11t-10 -9t-11.5 -6.5t-9.5 -2.5q-3 0 -7.5 4.5
t-4.5 7.5zM0 788q0 26 15 45t45 19q28 0 46.5 -9.5t18.5 -37.5q0 -16 -6.5 -31.5t-17.5 -27.5t-26.5 -19.5t-33.5 -7.5q-15 0 -23 6.5t-12 17t-5 22.5t-1 23z" />
    <glyph glyph-name="Jcircumflex" unicode="&#x134;" horiz-adv-x="406" 
d="M5 127q0 19 8.5 40t26.5 30q-4 -31 3.5 -61t24.5 -53t44 -36.5t62 -13.5q43 0 74.5 21.5t52.5 54t31 72t10 76.5v21l-59 325q-1 4 -1.5 12t3 15.5t11 10.5t23.5 -3q0 -2 4.5 -19.5t10 -45t12 -61.5t12.5 -68.5t11 -66t8 -53.5q5 -53 -3 -110t-32 -105t-67.5 -79
t-108.5 -31q-24 0 -52.5 10t-52 27t-40 40.5t-16.5 50.5zM98 701q7 13 17.5 38.5t22 53t22 52.5t16.5 40q3 9 4.5 19t4.5 18.5t8 14.5t18 6h6q4 0 5 -1l128 -157q24 6 30.5 -4t6.5 -24q0 -13 -7 -28t-24 -15q-22 14 -38.5 32.5t-30 38.5t-24 40t-19.5 36q-2 3 -11 7.5
t-11 4.5t-6.5 -4.5t-5.5 -7.5l-89 -173q0 -1 -2 -1h-3q-12 0 -18 14z" />
    <glyph glyph-name="jcircumflex" unicode="&#x135;" horiz-adv-x="279" 
d="M-79 -425q12 0 20 -11.5t15.5 -26t17.5 -26t28 -11.5q29 9 50 49.5t32.5 100.5t15 134.5t-1.5 152t-17.5 154t-31.5 140.5v11q0 10 8.5 18.5t18.5 8.5q20 -71 36 -154.5t23.5 -169t6 -166.5t-13.5 -146.5t-37 -110t-65 -56.5q-21 -13 -39.5 -3.5t-32.5 29t-23 44
t-10 39.5zM-46 417q6 13 17 38.5t22 52.5t21.5 52.5t16.5 39.5q4 9 5.5 19.5t4 19t8 14.5t18.5 6h6q3 0 4 -1l129 -158q23 7 30 -3t7 -25q0 -12 -7 -27t-25 -15q-21 14 -37.5 32.5t-30 38.5t-24 40t-19.5 36q-3 3 -12 7.5t-11 4.5q-1 0 -5.5 -4.5t-5.5 -7.5l-89 -173
q0 -1 -2 -1h-4q-12 0 -17 14z" />
    <glyph glyph-name="Kcommaaccent" unicode="&#x136;" horiz-adv-x="468" 
d="M47 12q-1 13 -3.5 42.5t-4.5 66t-4.5 77t-4.5 76.5t-4 65.5t-2 42.5q0 3 -0.5 18t-1 34.5t-0.5 37.5v56q0 18 0.5 37.5t1 36.5t0.5 23q4 8 7.5 10.5t8.5 2.5h7l35 -448l162 273q5 9 12 17t17 8q7 0 13 -6t6 -13q0 -1 -0.5 -3t-0.5 -3l-175 -301q4 0 15 -0.5t15 -0.5
q43 0 86.5 4t87 9.5t86.5 9.5t86 4q0 -15 -6 -28t-22 -21q-5 1 -20 1h-64q-15 0 -21 -1q-20 -1 -47.5 -4.5t-57 -7.5t-58.5 -7.5t-52 -6.5t-37 -5.5t-14 -3.5v-81q0 -1 -3 -4l-6 -6l-8 -8q-3 -3 -6 -5q-2 -1 -3 -1h-2q-12 0 -18 13zM256 -241q0 33 -7 53t-17.5 30.5
t-22.5 15t-22.5 8t-17 7.5t-6.5 14q0 18 11 21.5t35 3.5q30 0 49 -15.5t30 -38t14.5 -46.5t3.5 -42t-7 -42.5t-19 -43.5t-29 -26t-39 9q-18 13 -13.5 21.5t17.5 17.5t26.5 20.5t13.5 32.5z" />
    <glyph glyph-name="kcommaaccent" unicode="&#x137;" horiz-adv-x="461" 
d="M17 719q23 14 34 8t13 -21l93 -450q11 8 23.5 26.5t25.5 41.5t26.5 48t27 45.5t28 33.5t30.5 13q5 0 14.5 -1t9.5 -10q0 -8 -4 -14.5t-10 -12.5t-12 -11.5t-9 -8.5q-6 -7 -16.5 -21t-22 -29t-20.5 -27t-10 -16q-7 -10 -17 -27t-19 -33.5t-15.5 -29.5t-6.5 -15v-19
q47 0 84 3.5t72 8.5t72 8.5t83 3.5q8 0 15 -4t7 -14q0 -8 -3 -14t-9 -15q-28 3 -73 1.5t-92.5 -6.5t-91.5 -14t-69 -20v-104l-18 -23q-19 38 -26.5 82.5t-10 91.5t-6 94.5t-15.5 90.5q0 1 -0.5 4.5t-3 15l-7.5 34.5t-14 62.5t-23 99zM254 -241q0 33 -7 53t-17.5 30.5
t-22.5 15t-22.5 8t-17 7.5t-6.5 14q0 18 11 21.5t35 3.5q30 0 49 -15.5t30 -38t14.5 -46.5t3.5 -42t-7 -42.5t-19 -43.5t-29 -26t-39 9q-18 13 -13.5 21.5t17.5 17.5t26.5 20.5t13.5 32.5z" />
    <glyph glyph-name="Lacute" unicode="&#x139;" horiz-adv-x="487" 
d="M29 23q1 8 2.5 26t3.5 38t3.5 38.5t1.5 25.5q0 16 0.5 49.5t0.5 75.5v178q0 42 -0.5 75.5t-0.5 50.5q4 7 7 9t10 2h7q3 -2 10 -6.5l7 -4.5v-519q3 0 10 -1t15.5 -1.5t16 -0.5h9.5q11 1 32.5 4t49.5 6t58 6.5t57.5 7t49 6.5t32.5 5q14 7 24 9.5t24 2.5q13 0 17.5 -9
t4.5 -20q0 -9 -3.5 -15.5t-8.5 -14.5q-51 5 -102.5 -1t-102.5 -16.5t-101 -19.5t-99 -9q-7 0 -19 8t-16 15zM103 688l-13 -8q-10 5 -7.5 17.5t4.5 20.5q1 3 3 11t4 12q6 7 14.5 19.5l17 25t17 23.5t13.5 18q5 6 10.5 12.5t13 12.5t15 9t14.5 2l5 -2.5l5 -2.5z" />
    <glyph glyph-name="lacute" unicode="&#x13a;" horiz-adv-x="121" 
d="M58 23q-1 26 -5 80.5t-8.5 123t-9 144t-9 144.5t-9 123.5t-5.5 80.5v13q0 23 23 23q2 0 6 -0.5t6 -0.5q6 -87 11 -167t10 -159t11 -158.5t14 -165.5q11 -11 12 -25.5t1 -29.5q0 -7 -0.5 -15.5t-3.5 -16t-9.5 -13t-16.5 -5.5q-9 0 -12.5 7t-5.5 17zM12 808l-13 -8
q-10 5 -7.5 17.5t4.5 20.5q1 3 3 11t4 12q6 7 14.5 19.5l17 25t17 23.5t13.5 18q5 6 10.5 12.5t13 12.5t15 9t14.5 2l5 -2.5l5 -2.5z" />
    <glyph glyph-name="Lcommaaccent" unicode="&#x13b;" horiz-adv-x="487" 
d="M29 23q1 8 2.5 26t3.5 38t3.5 38.5t1.5 25.5q0 16 0.5 49.5t0.5 75.5v178q0 42 -0.5 75.5t-0.5 50.5q4 7 7 9t10 2h7q3 -2 10 -6.5l7 -4.5v-519q3 0 10 -1t15.5 -1.5t16 -0.5h9.5q11 1 32.5 4t49.5 6t58 6.5t57.5 7t49 6.5t32.5 5q14 7 24 9.5t24 2.5q13 0 17.5 -9
t4.5 -20q0 -9 -3.5 -15.5t-8.5 -14.5q-51 5 -102.5 -1t-102.5 -16.5t-101 -19.5t-99 -9q-7 0 -19 8t-16 15zM264 -241q0 33 -7 53t-17.5 30.5t-22.5 15t-22.5 8t-17 7.5t-6.5 14q0 18 11 21.5t35 3.5q30 0 49 -15.5t30 -38t14.5 -46.5t3.5 -42t-7 -42.5t-19 -43.5t-29 -26
t-39 9q-18 13 -13.5 21.5t17.5 17.5t26.5 20.5t13.5 32.5z" />
    <glyph glyph-name="lcommaaccent" unicode="&#x13c;" horiz-adv-x="121" 
d="M58 23q-1 26 -5 80.5t-8.5 123t-9 144t-9 144.5t-9 123.5t-5.5 80.5v13q0 23 23 23q2 0 6 -0.5t6 -0.5q6 -87 11 -167t10 -159t11 -158.5t14 -165.5q11 -11 12 -25.5t1 -29.5q0 -7 -0.5 -15.5t-3.5 -16t-9.5 -13t-16.5 -5.5q-9 0 -12.5 7t-5.5 17zM84 -241q0 33 -7 53
t-17.5 30.5t-22.5 15t-22.5 8t-17 7.5t-6.5 14q0 18 11 21.5t35 3.5q30 0 49 -15.5t30 -38t14.5 -46.5t3.5 -42t-7 -42.5t-19 -43.5t-29 -26t-39 9q-18 13 -13.5 21.5t17.5 17.5t26.5 20.5t13.5 32.5z" />
    <glyph glyph-name="Lcaron" unicode="&#x13d;" horiz-adv-x="487" 
d="M29 23q1 8 2.5 26t3.5 38t3.5 38.5t1.5 25.5q0 16 0.5 49.5t0.5 75.5v178q0 42 -0.5 75.5t-0.5 50.5q4 7 7 9t10 2h7q3 -2 10 -6.5l7 -4.5v-519q3 0 10 -1t15.5 -1.5t16 -0.5h9.5q11 1 32.5 4t49.5 6t58 6.5t57.5 7t49 6.5t32.5 5q14 7 24 9.5t24 2.5q13 0 17.5 -9
t4.5 -20q0 -9 -3.5 -15.5t-8.5 -14.5q-51 5 -102.5 -1t-102.5 -16.5t-101 -19.5t-99 -9q-7 0 -19 8t-16 15zM89 773q4 6 14 6q4 0 4 -1q23 -56 46.5 -85.5t47.5 -38t47.5 -0.5t45.5 24.5t41.5 37.5t35.5 40q4 4 6.5 5t6.5 1q13 0 19 -7.5t6 -14.5q-56 -75 -113.5 -102
t-103 -17t-74.5 50.5t-29 101.5z" />
    <glyph glyph-name="Ldot" unicode="&#x13f;" horiz-adv-x="487" 
d="M29 23q1 8 2.5 26t3.5 38t3.5 38.5t1.5 25.5q0 16 0.5 49.5t0.5 75.5v178q0 42 -0.5 75.5t-0.5 50.5q4 7 7 9t10 2h7q3 -2 10 -6.5l7 -4.5v-519q3 0 10 -1t15.5 -1.5t16 -0.5h9.5q11 1 32.5 4t49.5 6t58 6.5t57.5 7t49 6.5t32.5 5q14 7 24 9.5t24 2.5q13 0 17.5 -9
t4.5 -20q0 -9 -3.5 -15.5t-8.5 -14.5q-51 5 -102.5 -1t-102.5 -16.5t-101 -19.5t-99 -9q-7 0 -19 8t-16 15zM179 247q0 25 16 44t47 19q28 0 46.5 -9.5t18.5 -35.5q0 -16 -6 -31t-18 -27t-27 -19t-34 -7q-16 0 -24.5 6.5t-12.5 16.5t-5 21.5t-1 21.5z" />
    <glyph glyph-name="ldot" unicode="&#x140;" horiz-adv-x="351" 
d="M58 23q-1 26 -5 80.5t-8.5 123t-9 144t-9 144.5t-9 123.5t-5.5 80.5v13q0 23 23 23q2 0 6 -0.5t6 -0.5q6 -87 11 -167t10 -159t11 -158.5t14 -165.5q11 -11 12 -25.5t1 -29.5q0 -7 -0.5 -15.5t-3.5 -16t-9.5 -13t-16.5 -5.5q-9 0 -12.5 7t-5.5 17zM170 247q0 25 16 44
t47 19q28 0 46.5 -9.5t18.5 -35.5q0 -16 -6 -31t-18 -27t-27 -19t-34 -7q-16 0 -24.5 6.5t-12.5 16.5t-5 21.5t-1 21.5z" />
    <glyph glyph-name="Lslash" unicode="&#x141;" horiz-adv-x="508" 
d="M51 23q1 8 2.5 26t3.5 38t3.5 38.5t1.5 25.5q0 16 0.5 49.5t0.5 75.5v178q0 42 -0.5 75.5t-0.5 50.5q4 7 7 9t10 2h7q3 -2 10 -6.5l7 -4.5v-519q3 0 10 -1t15.5 -1.5t16 -0.5h9.5q11 1 32.5 4t49.5 6t58 6.5t57.5 7t49 6.5t32.5 5q14 7 24 9.5t24 2.5q13 0 17.5 -9
t4.5 -20q0 -9 -3.5 -15.5t-8.5 -14.5q-51 5 -102.5 -1t-102.5 -16.5t-101 -19.5t-99 -9q-7 0 -19 8t-16 15zM151.144 318.234q12.9453 4.17188 30.1133 6.25781q17.167 2.08594 35.1787 4.17285q18.0117 2.08594 34.8984 3.65039q16.8857 1.56445 29.8311 2.60742
q1.12598 0 8.16211 0.521484t15.7598 1.04297q8.72461 0.521484 17.7305 0.521484h25.3291q7.87988 0 16.6045 -0.521484t16.3232 -1.04297t10.9756 -0.521484q2.25195 -1.04297 4.78418 -9.90918q2.5332 -8.86523 1.9707 -14.0801q0 -4.17285 -5.06641 -13.5596
q-5.06543 -9.3877 -7.87988 -9.3877q-6.75391 0 -20.2627 0.521484t-31.5205 0.521484h-73.1729q-17.4492 0 -30.958 -0.521484t-20.2627 -0.521484q-11.2578 -2.08594 -22.5146 -3.12891q-11.2578 -1.04297 -22.5146 -3.12891q-1.12598 0 -4.22168 -0.521484
t-6.47266 -1.04297q-3.37793 -0.521484 -6.47363 -1.04297t-4.2207 -0.521484q0 9.38672 1.125 22.9463q1.12598 13.5596 6.75488 16.6885z" />
    <glyph glyph-name="lslash" unicode="&#x142;" horiz-adv-x="157" 
d="M-18 367q11 4 26 6l27 3q-4 73 -9 139q-4 69 -8.5 123.5t-5.5 80.5v13q0 23 23 23q2 0 6 -0.5t6 -0.5q6 -87 11 -167t9 -160l4 -48q1 1 2 1q15 1 27 2q1 0 7 0.5t14.5 1t16.5 0.5h22q8 0 16 -0.5t15 -1t10 -0.5q2 -1 4.5 -9t1.5 -12q0 -5 -5 -12.5t-7 -8.5q-6 1 -19 1
h-103l5 -72q7 -79 15 -165q11 -11 12 -25.5t1 -29.5q0 -7 -0.5 -15.5t-3.5 -16t-9.5 -13t-16.5 -5.5q-9 0 -12.5 7t-5.5 17q-1 26 -5 80.5t-8 123.5q-4 55 -8 113h-2q-11 -2 -21 -2.5t-20 -2.5q-1 0 -4 -0.5l-6 -1t-5.5 -1t-4.5 -0.5q0 8 1.5 20t6.5 15z" />
    <glyph glyph-name="Nacute" unicode="&#x143;" horiz-adv-x="574" 
d="M40 461q0 17 -4.5 32.5t-10.5 30t-10.5 29t-4.5 30.5q0 6 3.5 17.5t9 23t11.5 21.5t12 13q3 -1 9.5 -19t13.5 -40.5t13.5 -43t9.5 -24.5q6 -10 20.5 -29.5t32.5 -43.5t38 -50t38.5 -50t33.5 -43t22 -28q3 -4 20 -20t40 -37l45 -40q22 -20 35 -31q1 -2 10 -9.5t18.5 -16.5
t18.5 -16.5t11 -8.5q6 24 3 56t-3 58q0 47 -6 93.5t-12.5 92.5t-12.5 92.5t-6 93.5v11q0 8 0.5 16.5t0.5 15.5v10q7 12 18 12q12 0 16.5 -10.5t5 -23t-2 -24t-2.5 -12.5l59 -499q0 -14 -7 -22t-16 -13.5t-19 -7.5t-17 -3q-1 -1 -2 -1h-4q-6 0 -12.5 5.5t-12 12.5t-9.5 15.5
t-6 13.5q-10 11 -32.5 33.5t-49.5 50.5t-57.5 59.5t-58 60.5t-49 52t-31.5 34q-5 5 -17 19.5t-24.5 31.5t-24 32t-15.5 22v-35q0 -25 -0.5 -52.5t-0.5 -52.5v-35q0 -84 6 -166t6 -166v-4q-2 -3 -10.5 -12t-12.5 -11l-17 12v498zM168 764l-13 -8q-10 5 -7.5 17.5t4.5 20.5
q1 3 3 11t4 12q6 7 14.5 19.5l17 25t17 23.5t13.5 18q5 6 10.5 12.5t13 12.5t15 9t14.5 2l5 -2.5l5 -2.5z" />
    <glyph glyph-name="nacute" unicode="&#x144;" horiz-adv-x="509" 
d="M28 372q0 6 0.5 14t2 15.5t6.5 12.5t14 5q2 0 6.5 -0.5t6.5 -0.5q1 -71 7.5 -146t26.5 -145q1 11 5.5 37.5t10 56t11 55.5t7.5 37q7 21 19 43.5t29.5 41.5t39 31t45.5 12q40 0 71 -18t55.5 -47.5t41.5 -67t28 -76.5t16 -75t5 -64v-12q0 -6 -1.5 -11.5t-5 -9t-12.5 -3.5
q-10 0 -17 12q-1 25 -5.5 58t-12 69.5t-20 72t-31 63.5t-43.5 45.5t-60 17.5q-28 0 -48.5 -10t-34.5 -27.5t-22.5 -41t-12.5 -50.5q-3 -14 -8 -50t-11 -77t-10.5 -77t-5.5 -50q-3 -10 -10.5 -12t-15.5 -2q-1 0 -5 0.5t-4 1.5l-57 347q0 2 -0.5 11t-0.5 14zM210 621l-13 -8
q-10 5 -7.5 17.5t4.5 20.5q1 3 3 11t4 12q6 7 14.5 19.5l17 25t17 23.5t13.5 18q5 6 10.5 12.5t13 12.5t15 9t14.5 2l5 -2.5l5 -2.5z" />
    <glyph glyph-name="Ncommaaccent" unicode="&#x145;" horiz-adv-x="574" 
d="M40 461q0 17 -4.5 32.5t-10.5 30t-10.5 29t-4.5 30.5q0 6 3.5 17.5t9 23t11.5 21.5t12 13q3 -1 9.5 -19t13.5 -40.5t13.5 -43t9.5 -24.5q6 -10 20.5 -29.5t32.5 -43.5t38 -50t38.5 -50t33.5 -43t22 -28q3 -4 20 -20t40 -37l45 -40q22 -20 35 -31q1 -2 10 -9.5t18.5 -16.5
t18.5 -16.5t11 -8.5q6 24 3 56t-3 58q0 47 -6 93.5t-12.5 92.5t-12.5 92.5t-6 93.5v11q0 8 0.5 16.5t0.5 15.5v10q7 12 18 12q12 0 16.5 -10.5t5 -23t-2 -24t-2.5 -12.5l59 -499q0 -14 -7 -22t-16 -13.5t-19 -7.5t-17 -3q-1 -1 -2 -1h-4q-6 0 -12.5 5.5t-12 12.5t-9.5 15.5
t-6 13.5q-10 11 -32.5 33.5t-49.5 50.5t-57.5 59.5t-58 60.5t-49 52t-31.5 34q-5 5 -17 19.5t-24.5 31.5t-24 32t-15.5 22v-35q0 -25 -0.5 -52.5t-0.5 -52.5v-35q0 -84 6 -166t6 -166v-4q-2 -3 -10.5 -12t-12.5 -11l-17 12v498zM308 -241q0 33 -7 53t-17.5 30.5t-22.5 15
t-22.5 8t-17 7.5t-6.5 14q0 18 11 21.5t35 3.5q30 0 49 -15.5t30 -38t14.5 -46.5t3.5 -42t-7 -42.5t-19 -43.5t-29 -26t-39 9q-18 13 -13.5 21.5t17.5 17.5t26.5 20.5t13.5 32.5z" />
    <glyph glyph-name="ncommaaccent" unicode="&#x146;" horiz-adv-x="509" 
d="M28 372q0 6 0.5 14t2 15.5t6.5 12.5t14 5q2 0 6.5 -0.5t6.5 -0.5q1 -71 7.5 -146t26.5 -145q1 11 5.5 37.5t10 56t11 55.5t7.5 37q7 21 19 43.5t29.5 41.5t39 31t45.5 12q40 0 71 -18t55.5 -47.5t41.5 -67t28 -76.5t16 -75t5 -64v-12q0 -6 -1.5 -11.5t-5 -9t-12.5 -3.5
q-10 0 -17 12q-1 25 -5.5 58t-12 69.5t-20 72t-31 63.5t-43.5 45.5t-60 17.5q-28 0 -48.5 -10t-34.5 -27.5t-22.5 -41t-12.5 -50.5q-3 -14 -8 -50t-11 -77t-10.5 -77t-5.5 -50q-3 -10 -10.5 -12t-15.5 -2q-1 0 -5 0.5t-4 1.5l-57 347q0 2 -0.5 11t-0.5 14zM277 -241
q0 33 -7 53t-17.5 30.5t-22.5 15t-22.5 8t-17 7.5t-6.5 14q0 18 11 21.5t35 3.5q30 0 49 -15.5t30 -38t14.5 -46.5t3.5 -42t-7 -42.5t-19 -43.5t-29 -26t-39 9q-18 13 -13.5 21.5t17.5 17.5t26.5 20.5t13.5 32.5z" />
    <glyph glyph-name="Ncaron" unicode="&#x147;" horiz-adv-x="574" 
d="M40 461q0 17 -4.5 32.5t-10.5 30t-10.5 29t-4.5 30.5q0 6 3.5 17.5t9 23t11.5 21.5t12 13q3 -1 9.5 -19t13.5 -40.5t13.5 -43t9.5 -24.5q6 -10 20.5 -29.5t32.5 -43.5t38 -50t38.5 -50t33.5 -43t22 -28q3 -4 20 -20t40 -37l45 -40q22 -20 35 -31q1 -2 10 -9.5t18.5 -16.5
t18.5 -16.5t11 -8.5q6 24 3 56t-3 58q0 47 -6 93.5t-12.5 92.5t-12.5 92.5t-6 93.5v11q0 8 0.5 16.5t0.5 15.5v10q7 12 18 12q12 0 16.5 -10.5t5 -23t-2 -24t-2.5 -12.5l59 -499q0 -14 -7 -22t-16 -13.5t-19 -7.5t-17 -3q-1 -1 -2 -1h-4q-6 0 -12.5 5.5t-12 12.5t-9.5 15.5
t-6 13.5q-10 11 -32.5 33.5t-49.5 50.5t-57.5 59.5t-58 60.5t-49 52t-31.5 34q-5 5 -17 19.5t-24.5 31.5t-24 32t-15.5 22v-35q0 -25 -0.5 -52.5t-0.5 -52.5v-35q0 -84 6 -166t6 -166v-4q-2 -3 -10.5 -12t-12.5 -11l-17 12v498zM119 875q4 6 14 6q4 0 4 -1
q23 -56 46.5 -85.5t47.5 -38t47.5 -0.5t45.5 24.5t41.5 37.5t35.5 40q4 4 6.5 5t6.5 1q13 0 19 -7.5t6 -14.5q-56 -75 -113.5 -102t-103 -17t-74.5 50.5t-29 101.5z" />
    <glyph glyph-name="ncaron" unicode="&#x148;" horiz-adv-x="509" 
d="M28 372q0 6 0.5 14t2 15.5t6.5 12.5t14 5q2 0 6.5 -0.5t6.5 -0.5q1 -71 7.5 -146t26.5 -145q1 11 5.5 37.5t10 56t11 55.5t7.5 37q7 21 19 43.5t29.5 41.5t39 31t45.5 12q40 0 71 -18t55.5 -47.5t41.5 -67t28 -76.5t16 -75t5 -64v-12q0 -6 -1.5 -11.5t-5 -9t-12.5 -3.5
q-10 0 -17 12q-1 25 -5.5 58t-12 69.5t-20 72t-31 63.5t-43.5 45.5t-60 17.5q-28 0 -48.5 -10t-34.5 -27.5t-22.5 -41t-12.5 -50.5q-3 -14 -8 -50t-11 -77t-10.5 -77t-5.5 -50q-3 -10 -10.5 -12t-15.5 -2q-1 0 -5 0.5t-4 1.5l-57 347q0 2 -0.5 11t-0.5 14zM94 773q4 6 14 6
q4 0 4 -1q23 -56 46.5 -85.5t47.5 -38t47.5 -0.5t45.5 24.5t41.5 37.5t35.5 40q4 4 6.5 5t6.5 1q13 0 19 -7.5t6 -14.5q-56 -75 -113.5 -102t-103 -17t-74.5 50.5t-29 101.5z" />
    <glyph glyph-name="Omacron" unicode="&#x14c;" horiz-adv-x="458" 
d="M17 278q5 41 9.5 83.5t11.5 84t19.5 79t35 65t56.5 44.5t84 17q41 0 72.5 -17.5t54 -46.5t36.5 -66.5t22.5 -76.5t12.5 -78t4 -71q0 -53 -17 -105.5t-48.5 -95t-77 -69t-103.5 -26.5q-50 0 -83 27t-53 67.5t-28 87.5t-8 86v11zM50 269q0 -35 7 -76.5t24 -76.5t46.5 -58.5
t74.5 -23.5q53 0 90.5 27t62 67.5t35.5 88.5t11 90q0 39 -6 92.5t-24.5 101.5t-53 81.5t-88.5 33.5q-38 0 -66 -18t-48 -47.5t-32.5 -67t-19.5 -76t-10 -75t-3 -63.5zM72 850q22 4 35 4.5t23.5 0t23 -0.5t36.5 1q2 1 14.5 1.5t27.5 1t31 0.5h45q14 0 30 -0.5t30 -1t19 -1.5
q4 -1 8.5 -9.5t3.5 -12.5q-1 -5 -9.5 -14t-13.5 -10q-18 1 -45 3.5t-55.5 4.5t-55.5 3.5t-45 0.5q-19 -2 -40 -2.5t-41 -3.5q-1 0 -6.5 -0.5t-12 -1t-12 -1t-6.5 -0.5q0 9 1.5 21.5t13.5 16.5z" />
    <glyph glyph-name="omacron" unicode="&#x14d;" horiz-adv-x="324" 
d="M22 151q0 20 0.5 53.5t4.5 72t12 78.5t23 72t38 52t57 20q47 0 75.5 -26t44 -64.5t21 -82t5.5 -78.5q0 -38 -11 -82t-34 -81t-57.5 -61.5t-82.5 -24.5q-31 0 -50 14.5t-28.5 36.5t-13.5 49t-4 52zM56 163q0 -19 1 -39.5t6 -38.5t18 -29t38 -11q44 0 72.5 20t45.5 51.5
t23.5 69.5t6.5 73q0 22 -3.5 57t-14.5 68t-32 56.5t-55 23.5q-24 0 -41.5 -19t-29.5 -49t-18.5 -66t-10.5 -69t-5 -60t-1 -38zM8 666q22 4 35 4.5t23.5 0t23 -0.5t36.5 1q2 1 14.5 1.5t27.5 1t31 0.5h45q14 0 30 -0.5t30 -1t19 -1.5q4 -1 8.5 -9.5t3.5 -12.5q-1 -5 -9.5 -14
t-13.5 -10q-18 1 -45 3.5t-55.5 4.5t-55.5 3.5t-45 0.5q-19 -2 -40 -2.5t-41 -3.5q-1 0 -6.5 -0.5t-12 -1t-12 -1t-6.5 -0.5q0 9 1.5 21.5t13.5 16.5z" />
    <glyph glyph-name="Obreve" unicode="&#x14e;" horiz-adv-x="458" 
d="M17 278q5 41 9.5 83.5t11.5 84t19.5 79t35 65t56.5 44.5t84 17q41 0 72.5 -17.5t54 -46.5t36.5 -66.5t22.5 -76.5t12.5 -78t4 -71q0 -53 -17 -105.5t-48.5 -95t-77 -69t-103.5 -26.5q-50 0 -83 27t-53 67.5t-28 87.5t-8 86v11zM50 269q0 -35 7 -76.5t24 -76.5t46.5 -58.5
t74.5 -23.5q53 0 90.5 27t62 67.5t35.5 88.5t11 90q0 39 -6 92.5t-24.5 101.5t-53 81.5t-88.5 33.5q-38 0 -66 -18t-48 -47.5t-32.5 -67t-19.5 -76t-10 -75t-3 -63.5zM152 861q23 -36 43 -49.5t37 -12t31 14.5t25 29.5t19 32t13.5 23t8.5 2.5t3 -30q0 -17 -6 -33t-20 -28
t-37 -20t-56 -8q-22 0 -38 7.5t-26.5 18.5t-15.5 24t-5 23v16q0 10 2.5 14t7 0t14.5 -24z" />
    <glyph glyph-name="obreve" unicode="&#x14f;" horiz-adv-x="324" 
d="M22 151q0 20 0.5 53.5t4.5 72t12 78.5t23 72t38 52t57 20q47 0 75.5 -26t44 -64.5t21 -82t5.5 -78.5q0 -38 -11 -82t-34 -81t-57.5 -61.5t-82.5 -24.5q-31 0 -50 14.5t-28.5 36.5t-13.5 49t-4 52zM56 163q0 -19 1 -39.5t6 -38.5t18 -29t38 -11q44 0 72.5 20t45.5 51.5
t23.5 69.5t6.5 73q0 22 -3.5 57t-14.5 68t-32 56.5t-55 23.5q-24 0 -41.5 -19t-29.5 -49t-18.5 -66t-10.5 -69t-5 -60t-1 -38zM87 677q23 -36 43 -49.5t37 -12t31 14.5t25 29.5t19 32t13.5 23t8.5 2.5t3 -30q0 -17 -6 -33t-20 -28t-37 -20t-56 -8q-22 0 -38 7.5t-26.5 18.5
t-15.5 24t-5 23v16q0 10 2.5 14t7 0t14.5 -24z" />
    <glyph glyph-name="Ohungarumlaut" unicode="&#x150;" horiz-adv-x="458" 
d="M17 278q5 41 9.5 83.5t11.5 84t19.5 79t35 65t56.5 44.5t84 17q41 0 72.5 -17.5t54 -46.5t36.5 -66.5t22.5 -76.5t12.5 -78t4 -71q0 -53 -17 -105.5t-48.5 -95t-77 -69t-103.5 -26.5q-50 0 -83 27t-53 67.5t-28 87.5t-8 86v11zM50 269q0 -35 7 -76.5t24 -76.5t46.5 -58.5
t74.5 -23.5q53 0 90.5 27t62 67.5t35.5 88.5t11 90q0 39 -6 92.5t-24.5 101.5t-53 81.5t-88.5 33.5q-38 0 -66 -18t-48 -47.5t-32.5 -67t-19.5 -76t-10 -75t-3 -63.5zM137 813l-14 -8q-10 5 -7 18t5 20q1 3 2.5 11.5t3.5 11.5q5 7 13.5 19.5t17.5 25t18 24t14 18.5
q4 5 10 11.5t13 12.5t14.5 9t14.5 2q2 -1 5.5 -2.5t5.5 -2.5zM231 805l-12 -8q-6 3 -7 7.5t-0.5 10t2 11t2.5 9.5q1 3 3 11l3 12q6 7 14.5 19.5t17.5 25t17.5 23.5t13.5 18q4 6 10.5 12.5t13 12.5t14 9t15.5 2q1 -1 4.5 -2.5t4.5 -2.5z" />
    <glyph glyph-name="ohungarumlaut" unicode="&#x151;" horiz-adv-x="324" 
d="M22 151q0 20 0.5 53.5t4.5 72t12 78.5t23 72t38 52t57 20q47 0 75.5 -26t44 -64.5t21 -82t5.5 -78.5q0 -38 -11 -82t-34 -81t-57.5 -61.5t-82.5 -24.5q-31 0 -50 14.5t-28.5 36.5t-13.5 49t-4 52zM56 163q0 -19 1 -39.5t6 -38.5t18 -29t38 -11q44 0 72.5 20t45.5 51.5
t23.5 69.5t6.5 73q0 22 -3.5 57t-14.5 68t-32 56.5t-55 23.5q-24 0 -41.5 -19t-29.5 -49t-18.5 -66t-10.5 -69t-5 -60t-1 -38zM70 629l-14 -8q-10 5 -7 18t5 20q1 3 2.5 11.5t3.5 11.5q5 7 13.5 19.5t17.5 25t18 24t14 18.5q4 5 10 11.5t13 12.5t14.5 9t14.5 2
q2 -1 5.5 -2.5t5.5 -2.5zM164 621l-12 -8q-6 3 -7 7.5t-0.5 10t2 11t2.5 9.5q1 3 3 11l3 12q6 7 14.5 19.5t17.5 25t17.5 23.5t13.5 18q4 6 10.5 12.5t13 12.5t14 9t15.5 2q1 -1 4.5 -2.5t4.5 -2.5z" />
    <glyph glyph-name="OE" unicode="&#x152;" horiz-adv-x="817" 
d="M17 278q5 41 9.5 83.5t11.5 84t19.5 79t35 65t56.5 44.5t84 17q41 0 72.5 -17.5t53.5 -46.5q22 -28 36 -64v109q2 1 8.5 1.5t9.5 0.5q10 0 14 -4.5t6 -9t4 -8.5t9 -4q17 0 41.5 6.5t51.5 14.5t53 15.5t46 10.5h7q13 0 21.5 -5.5t8.5 -17.5q0 -2 -0.5 -5.5t-1.5 -5.5
q-25 -2 -58.5 -6t-66.5 -12.5t-62 -23.5t-45 -39v-66q0 -23 0.5 -50t2 -52t4 -45.5t6.5 -30.5l254 104q22 -1 29 -4.5t6 -8.5t-8 -10t-15 -12q-14 -6 -50 -22t-77 -34.5t-77 -35.5t-51 -24q-7 -1 -9.5 -6t-3 -11t0 -12.5t0.5 -8.5q0 -30 6.5 -58t6.5 -58q0 -12 -8.5 -24
t-30.5 -12l-9 130q-17 -52 -48.5 -94.5t-77 -69t-103.5 -26.5q-50 0 -83 27t-53 67.5t-28 87.5t-8 86v11zM50 269q0 -35 7 -76.5t24 -76.5t46.5 -58.5t74.5 -23.5q53 0 90.5 27t62 67.5t35.5 88.5t11 90q0 39 -6 92.5t-24.5 101.5t-53 81.5t-88.5 33.5q-38 0 -66 -18
t-48 -47.5t-32.5 -67t-19.5 -76t-10 -75t-3 -63.5zM801 111q-9 -3 -28 -8.5t-43 -12t-51 -14.5t-50.5 -14.5t-43 -12t-28.5 -8.5q-23 -7 -33.5 -12.5t-18 -9t-17 -5t-31.5 -1.5q0 25 5 35t26 17l299 83z" />
    <glyph glyph-name="oe" unicode="&#x153;" horiz-adv-x="545" 
d="M22 151q0 20 0.5 53.5t4.5 72t12 78.5t23 72t38 52t57 20q36 2 61.5 -9t41.5 -31.5t24 -48t10 -56.5q4 18 10 36.5t15.5 33.5t24 24t36.5 9q17 0 41.5 -11t47.5 -27.5t40 -34.5t17 -32q0 -7 -1.5 -13t-11.5 -10l-197 -69l-1 -4q0 -5 -1 -11l-1 -13v-10q0 -20 3 -49.5
t12.5 -57t27 -47t45.5 -19.5q11 0 19 4.5t15.5 9.5t15 9.5t17.5 4.5q0 -15 -7 -28t-17.5 -23.5t-24.5 -16t-28 -5.5q-25 0 -43 11t-30.5 29.5t-20.5 42t-14 48.5q-6 -28 -18.5 -52.5t-33 -43.5t-48.5 -30t-65 -10q-31 0 -50 14.5t-28.5 36.5t-13.5 49t-4 52zM56 163
q0 -19 1 -39.5t6 -38.5t18 -29t38 -11q40 0 67.5 17.5t44.5 45t25.5 61t9.5 67.5q-14 -3 -18.5 3t-3 16t7.5 20t13 17q-1 25 -6.5 55t-17.5 56t-31 43.5t-48 17.5q-24 0 -41.5 -19t-29.5 -49t-18.5 -66t-10.5 -69t-5 -60t-1 -38zM391 413q-18 0 -31 -10t-20.5 -24.5
t-11 -32.5t-3.5 -32q16 0 36 2.5t38.5 8t33.5 15t22 24.5q-15 24 -28 36.5t-36 12.5z" />
    <glyph glyph-name="Racute" unicode="&#x154;" horiz-adv-x="520" 
d="M46 568q-7 11 -10 25t-3.5 28t0 27.5t0.5 24.5v14q0 10 0.5 20.5t1 20.5t0.5 14q1 3 10 8t13 4q17 -4 20 -17t2 -27.5t-0.5 -25.5t12.5 -11h139q22 0 36 -13t22 -32t10.5 -39t2.5 -35q0 -45 -14 -89.5t-36 -87.5t-46 -82.5t-44 -74.5v-18q46 0 77.5 4t60 8.5t60 8.5
t78.5 4h20q14 0 30 -0.5t29 -0.5h20q9 -4 11 -10.5t2 -13.5q0 -12 -4.5 -21.5t-19.5 -13.5q-37 16 -73 19t-71.5 0t-69 -11t-67.5 -13.5t-68.5 -8.5t-69.5 4q0 -32 4.5 -62t4.5 -62q0 -10 -1.5 -22t-15.5 -12q-6 0 -11 2.5t-7 10.5q-1 3 -3 15t-3.5 24.5t-3 24t-2.5 17.5
q-1 18 -3 54.5t-4.5 84t-5 99t-5 98.5t-3.5 84t-2 55zM81 580q1 -15 2.5 -44.5t4 -67.5t5 -79.5t5 -79t4 -68t2.5 -44.5q24 37 52 80.5t53 90t41.5 94.5t16.5 94q0 19 -7.5 34.5t-20 26t-29.5 16t-35 5.5q-9 0 -25 -2t-31.5 -7t-26.5 -14t-11 -23v-12zM215 805l-13 -8
q-10 5 -7.5 17.5t4.5 20.5q1 3 3 11t4 12q6 7 14.5 19.5l17 25t17 23.5t13.5 18q5 6 10.5 12.5t13 12.5t15 9t14.5 2l5 -2.5l5 -2.5z" />
    <glyph glyph-name="racute" unicode="&#x155;" horiz-adv-x="365" 
d="M40 382l59 -243h12q3 32 11.5 68t23.5 71.5t35.5 68.5t46.5 58t58.5 40t71.5 15q0 -24 -19.5 -42t-46.5 -35t-55.5 -36t-44.5 -46q-17 -27 -27.5 -62.5t-17 -73t-9.5 -75t-5 -67.5q-6 -9 -12.5 -16.5t-16.5 -7.5q-4 0 -10 2.5t-8 10.5l-72 370h26zM130 494l-13 -8
q-10 5 -7.5 17.5t4.5 20.5q1 3 3 11t4 12q6 7 14.5 19.5l17 25t17 23.5t13.5 18q5 6 10.5 12.5t13 12.5t15 9t14.5 2l5 -2.5l5 -2.5z" />
    <glyph glyph-name="Rcommaaccent" unicode="&#x156;" horiz-adv-x="520" 
d="M46 568q-7 11 -10 25t-3.5 28t0 27.5t0.5 24.5v14q0 10 0.5 20.5t1 20.5t0.5 14q1 3 10 8t13 4q17 -4 20 -17t2 -27.5t-0.5 -25.5t12.5 -11h139q22 0 36 -13t22 -32t10.5 -39t2.5 -35q0 -45 -14 -89.5t-36 -87.5t-46 -82.5t-44 -74.5v-18q46 0 77.5 4t60 8.5t60 8.5
t78.5 4h20q14 0 30 -0.5t29 -0.5h20q9 -4 11 -10.5t2 -13.5q0 -12 -4.5 -21.5t-19.5 -13.5q-37 16 -73 19t-71.5 0t-69 -11t-67.5 -13.5t-68.5 -8.5t-69.5 4q0 -32 4.5 -62t4.5 -62q0 -10 -1.5 -22t-15.5 -12q-6 0 -11 2.5t-7 10.5q-1 3 -3 15t-3.5 24.5t-3 24t-2.5 17.5
q-1 18 -3 54.5t-4.5 84t-5 99t-5 98.5t-3.5 84t-2 55zM81 580q1 -15 2.5 -44.5t4 -67.5t5 -79.5t5 -79t4 -68t2.5 -44.5q24 37 52 80.5t53 90t41.5 94.5t16.5 94q0 19 -7.5 34.5t-20 26t-29.5 16t-35 5.5q-9 0 -25 -2t-31.5 -7t-26.5 -14t-11 -23v-12zM281 -241q0 33 -7 53
t-17.5 30.5t-22.5 15t-22.5 8t-17 7.5t-6.5 14q0 18 11 21.5t35 3.5q30 0 49 -15.5t30 -38t14.5 -46.5t3.5 -42t-7 -42.5t-19 -43.5t-29 -26t-39 9q-18 13 -13.5 21.5t17.5 17.5t26.5 20.5t13.5 32.5z" />
    <glyph glyph-name="rcommaaccent" unicode="&#x157;" horiz-adv-x="365" 
d="M40 382l59 -243h12q3 32 11.5 68t23.5 71.5t35.5 68.5t46.5 58t58.5 40t71.5 15q0 -24 -19.5 -42t-46.5 -35t-55.5 -36t-44.5 -46q-17 -27 -27.5 -62.5t-17 -73t-9.5 -75t-5 -67.5q-6 -9 -12.5 -16.5t-16.5 -7.5q-4 0 -10 2.5t-8 10.5l-72 370h26zM207 -241q0 33 -7 53
t-17.5 30.5t-22.5 15t-22.5 8t-17 7.5t-6.5 14q0 18 11 21.5t35 3.5q30 0 49 -15.5t30 -38t14.5 -46.5t3.5 -42t-7 -42.5t-19 -43.5t-29 -26t-39 9q-18 13 -13.5 21.5t17.5 17.5t26.5 20.5t13.5 32.5z" />
    <glyph glyph-name="Rcaron" unicode="&#x158;" horiz-adv-x="520" 
d="M46 568q-7 11 -10 25t-3.5 28t0 27.5t0.5 24.5v14q0 10 0.5 20.5t1 20.5t0.5 14q1 3 10 8t13 4q17 -4 20 -17t2 -27.5t-0.5 -25.5t12.5 -11h139q22 0 36 -13t22 -32t10.5 -39t2.5 -35q0 -45 -14 -89.5t-36 -87.5t-46 -82.5t-44 -74.5v-18q46 0 77.5 4t60 8.5t60 8.5
t78.5 4h20q14 0 30 -0.5t29 -0.5h20q9 -4 11 -10.5t2 -13.5q0 -12 -4.5 -21.5t-19.5 -13.5q-37 16 -73 19t-71.5 0t-69 -11t-67.5 -13.5t-68.5 -8.5t-69.5 4q0 -32 4.5 -62t4.5 -62q0 -10 -1.5 -22t-15.5 -12q-6 0 -11 2.5t-7 10.5q-1 3 -3 15t-3.5 24.5t-3 24t-2.5 17.5
q-1 18 -3 54.5t-4.5 84t-5 99t-5 98.5t-3.5 84t-2 55zM81 580q1 -15 2.5 -44.5t4 -67.5t5 -79.5t5 -79t4 -68t2.5 -44.5q24 37 52 80.5t53 90t41.5 94.5t16.5 94q0 19 -7.5 34.5t-20 26t-29.5 16t-35 5.5q-9 0 -25 -2t-31.5 -7t-26.5 -14t-11 -23v-12zM100 957q4 6 14 6
q4 0 4 -1q23 -56 46.5 -85.5t47.5 -38t47.5 -0.5t45.5 24.5t41.5 37.5t35.5 40q4 4 6.5 5t6.5 1q13 0 19 -7.5t6 -14.5q-56 -75 -113.5 -102t-103 -17t-74.5 50.5t-29 101.5z" />
    <glyph glyph-name="rcaron" unicode="&#x159;" horiz-adv-x="365" 
d="M40 382l59 -243h12q3 32 11.5 68t23.5 71.5t35.5 68.5t46.5 58t58.5 40t71.5 15q0 -24 -19.5 -42t-46.5 -35t-55.5 -36t-44.5 -46q-17 -27 -27.5 -62.5t-17 -73t-9.5 -75t-5 -67.5q-6 -9 -12.5 -16.5t-16.5 -7.5q-4 0 -10 2.5t-8 10.5l-72 370h26zM27 656q4 6 14 6
q4 0 4 -1q23 -56 46.5 -85.5t47.5 -38t47.5 -0.5t45.5 24.5t41.5 37.5t35.5 40q4 4 6.5 5t6.5 1q13 0 19 -7.5t6 -14.5q-56 -75 -113.5 -102t-103 -17t-74.5 50.5t-29 101.5z" />
    <glyph glyph-name="Sacute" unicode="&#x15a;" horiz-adv-x="469" 
d="M132 64q0 12 8 22.5t17 17.5q2 -28 18 -43.5t44 -15.5q25 0 57 9t59.5 26t46 41.5t18.5 54.5q0 36 -28 58t-71 37.5t-93 29.5t-92.5 34t-71 50t-28.5 78q-10 28 6.5 56.5t47 53.5t70.5 47t77.5 36t67.5 21t41 3t-2.5 -20t-62.5 -46q-7 0 -14 1t-9 10q-22 -8 -52 -25
t-57.5 -39.5t-46.5 -49t-19 -52.5q0 -41 28.5 -64.5t71 -40t92.5 -30t93 -32t71 -48t28 -77.5q0 -27 -13 -49.5t-34 -41t-48 -32.5t-55.5 -24t-56 -15t-48.5 -5q-10 0 -20.5 6.5t-19 16.5t-14.5 21t-6 20zM128 687l-13 -8q-10 5 -7.5 17.5t4.5 20.5q1 3 3 11t4 12
q6 7 14.5 19.5l17 25t17 23.5t13.5 18q5 6 10.5 12.5t13 12.5t15 9t14.5 2l5 -2.5l5 -2.5z" />
    <glyph glyph-name="sacute" unicode="&#x15b;" horiz-adv-x="406" 
d="M69 34q0 12 2 20.5t6.5 12t11 0t16.5 -16.5q18 0 42 2t50 7t51.5 13t45 21.5t31.5 32t12 43.5t-23 37t-58.5 18.5t-76 13t-75.5 20t-58.5 39t-23.5 71.5q0 32 11 54t37 41q11 9 39 28.5t59.5 42t59.5 42t39 27.5q2 0 5.5 0.5t5.5 0.5q25 0 25 -24q0 -11 -18 -23.5
t-45.5 -27.5t-59 -32t-59 -37.5t-45.5 -44t-18 -50.5q0 -29 14.5 -42t43.5 -22q12 -3 41.5 -11.5t63 -18t63 -17.5t41.5 -11q26 -14 42.5 -30.5t16.5 -45.5q0 -28 -14.5 -51t-38 -41.5t-54 -33t-61.5 -24t-60.5 -14t-52.5 -4.5q-22 0 -28 6.5t-6 28.5zM157 621l-13 -8
q-10 5 -7.5 17.5t4.5 20.5q1 3 3 11t4 12q6 7 14.5 19.5l17 25t17 23.5t13.5 18q5 6 10.5 12.5t13 12.5t15 9t14.5 2l5 -2.5l5 -2.5z" />
    <glyph glyph-name="Scircumflex" unicode="&#x15c;" horiz-adv-x="469" 
d="M132 64q0 12 8 22.5t17 17.5q2 -28 18 -43.5t44 -15.5q25 0 57 9t59.5 26t46 41.5t18.5 54.5q0 36 -28 58t-71 37.5t-93 29.5t-92.5 34t-71 50t-28.5 78q-10 28 6.5 56.5t47 53.5t70.5 47t77.5 36t67.5 21t41 3t-2.5 -20t-62.5 -46q-7 0 -14 1t-9 10q-22 -8 -52 -25
t-57.5 -39.5t-46.5 -49t-19 -52.5q0 -41 28.5 -64.5t71 -40t92.5 -30t93 -32t71 -48t28 -77.5q0 -27 -13 -49.5t-34 -41t-48 -32.5t-55.5 -24t-56 -15t-48.5 -5q-10 0 -20.5 6.5t-19 16.5t-14.5 21t-6 20zM81 751q7 13 17.5 38.5t22 53t22 52.5t16.5 40q3 9 4.5 19t4.5 18.5
t8 14.5t18 6h6q4 0 5 -1l128 -157q24 6 30.5 -4t6.5 -24q0 -13 -7 -28t-24 -15q-22 14 -38.5 32.5t-30 38.5t-24 40t-19.5 36q-2 3 -11 7.5t-11 4.5t-6.5 -4.5t-5.5 -7.5l-89 -173q0 -1 -2 -1h-3q-12 0 -18 14z" />
    <glyph glyph-name="scircumflex" unicode="&#x15d;" horiz-adv-x="406" 
d="M69 34q0 12 2 20.5t6.5 12t11 0t16.5 -16.5q18 0 42 2t50 7t51.5 13t45 21.5t31.5 32t12 43.5t-23 37t-58.5 18.5t-76 13t-75.5 20t-58.5 39t-23.5 71.5q0 32 11 54t37 41q11 9 39 28.5t59.5 42t59.5 42t39 27.5q2 0 5.5 0.5t5.5 0.5q25 0 25 -24q0 -11 -18 -23.5
t-45.5 -27.5t-59 -32t-59 -37.5t-45.5 -44t-18 -50.5q0 -29 14.5 -42t43.5 -22q12 -3 41.5 -11.5t63 -18t63 -17.5t41.5 -11q26 -14 42.5 -30.5t16.5 -45.5q0 -28 -14.5 -51t-38 -41.5t-54 -33t-61.5 -24t-60.5 -14t-52.5 -4.5q-22 0 -28 6.5t-6 28.5zM58 720
q7 13 17.5 38.5t22 53t22 52.5t16.5 40q3 9 4.5 19t4.5 18.5t8 14.5t18 6h6q4 0 5 -1l128 -157q24 6 30.5 -4t6.5 -24q0 -13 -7 -28t-24 -15q-22 14 -38.5 32.5t-30 38.5t-24 40t-19.5 36q-2 3 -11 7.5t-11 4.5t-6.5 -4.5t-5.5 -7.5l-89 -173q0 -1 -2 -1h-3q-12 0 -18 14z
" />
    <glyph glyph-name="Scedilla" unicode="&#x15e;" horiz-adv-x="469" 
d="M272 -275q0 9 1 16.5t3 10t5.5 0.5t8.5 -13q13 0 32.5 3.5t38 13.5t31.5 29t13 49q0 22 -11.5 31.5t-29 15.5t-38 10.5t-37.5 15.5t-29 31.5t-12 58.5q-1 5 -1 9l-7 -2q-27 -4 -48 -4q-10 0 -20.5 6.5t-19 16.5t-14.5 21t-6 20q0 12 8 22.5t17 17.5q2 -28 18 -43.5
t44 -15.5q25 0 57 9t59.5 26t46 41.5t18.5 54.5q0 36 -28 58t-71 37.5t-93 29.5t-92.5 34t-71 50t-28.5 78q-10 28 6.5 56.5t47 53.5t70.5 47t77.5 36t67.5 21t41 3t-2.5 -20t-62.5 -46q-7 0 -14 1t-9 10q-22 -8 -52 -25t-57.5 -39.5t-46.5 -49t-19 -52.5q0 -41 28.5 -64.5
t71 -40t92.5 -30t93 -32t71 -48t28 -77.5q0 -27 -13 -49.5t-34 -41t-48 -32.5t-56 -24q-13 -5 -26 -9q0 -9 -5 -16q0 -24 8 -34.5t21 -17.5q7 -3 22 -10.5t31.5 -14.5t31.5 -14t21 -8q12 -12 20.5 -25.5t8.5 -37.5q0 -34 -15.5 -59.5t-38 -42.5t-46.5 -25.5t-41 -8.5
q-11 0 -13.5 5t-2.5 23z" />
    <glyph glyph-name="scedilla" unicode="&#x15f;" horiz-adv-x="406" 
d="M185 -287q0 9 1 16t3.5 10t6 0.5t7.5 -13.5q14 0 33.5 4t37.5 13.5t31.5 28.5t13.5 50q0 21 -12 30.5t-29 15.5t-37.5 10.5t-38 15.5t-29 32t-11.5 59q-1 12 -1 19h-5q-30 -5 -53 -5q-22 0 -28 6.5t-6 28.5q0 12 2 20.5t6.5 12t11 0t16.5 -16.5q18 0 42 2t50 7t51.5 13
t45 21.5t31.5 32t12 43.5t-23 37t-58.5 18.5t-76 13t-75.5 20t-58.5 39t-23.5 71.5q0 32 11 54t37 41q11 9 39 28.5t59.5 42t59.5 42t39 27.5q2 0 5.5 0.5t5.5 0.5q25 0 25 -24q0 -11 -18 -23.5t-45.5 -27.5t-59 -32t-59 -37.5t-45.5 -44t-18 -50.5q0 -29 14.5 -42t43.5 -22
q12 -3 41.5 -11.5t63 -18t63 -17.5t41.5 -11q26 -14 42.5 -30.5t16.5 -45.5q0 -28 -14.5 -51t-38 -41.5t-54 -33t-61.5 -24.5q-17 -5 -34 -9q0 -2 1 -3q2 -13 -4 -22q0 -24 7.5 -34.5t21.5 -17.5q6 -4 21.5 -11t32 -14.5t31.5 -14t20 -8.5q13 -12 21.5 -25.5t8.5 -36.5
q0 -34 -16 -60t-38.5 -43t-46 -25.5t-40.5 -8.5q-11 0 -14 5.5t-3 23.5z" />
    <glyph glyph-name="Scaron" unicode="&#x160;" horiz-adv-x="469" 
d="M132 64q0 12 8 22.5t17 17.5q2 -28 18 -43.5t44 -15.5q25 0 57 9t59.5 26t46 41.5t18.5 54.5q0 36 -28 58t-71 37.5t-93 29.5t-92.5 34t-71 50t-28.5 78q-10 28 6.5 56.5t47 53.5t70.5 47t77.5 36t67.5 21t41 3t-2.5 -20t-62.5 -46q-7 0 -14 1t-9 10q-22 -8 -52 -25
t-57.5 -39.5t-46.5 -49t-19 -52.5q0 -41 28.5 -64.5t71 -40t92.5 -30t93 -32t71 -48t28 -77.5q0 -27 -13 -49.5t-34 -41t-48 -32.5t-55.5 -24t-56 -15t-48.5 -5q-10 0 -20.5 6.5t-19 16.5t-14.5 21t-6 20zM77 957q4 6 14 6q4 0 4 -1q23 -56 46.5 -85.5t47.5 -38t47.5 -0.5
t45.5 24.5t41.5 37.5t35.5 40q4 4 6.5 5t6.5 1q13 0 19 -7.5t6 -14.5q-56 -75 -113.5 -102t-103 -17t-74.5 50.5t-29 101.5z" />
    <glyph glyph-name="scaron" unicode="&#x161;" horiz-adv-x="406" 
d="M69 34q0 12 2 20.5t6.5 12t11 0t16.5 -16.5q18 0 42 2t50 7t51.5 13t45 21.5t31.5 32t12 43.5t-23 37t-58.5 18.5t-76 13t-75.5 20t-58.5 39t-23.5 71.5q0 32 11 54t37 41q11 9 39 28.5t59.5 42t59.5 42t39 27.5q2 0 5.5 0.5t5.5 0.5q25 0 25 -24q0 -11 -18 -23.5
t-45.5 -27.5t-59 -32t-59 -37.5t-45.5 -44t-18 -50.5q0 -29 14.5 -42t43.5 -22q12 -3 41.5 -11.5t63 -18t63 -17.5t41.5 -11q26 -14 42.5 -30.5t16.5 -45.5q0 -28 -14.5 -51t-38 -41.5t-54 -33t-61.5 -24t-60.5 -14t-52.5 -4.5q-22 0 -28 6.5t-6 28.5zM45 773q4 6 14 6
q4 0 4 -1q23 -56 46.5 -85.5t47.5 -38t47.5 -0.5t45.5 24.5t41.5 37.5t35.5 40q4 4 6.5 5t6.5 1q13 0 19 -7.5t6 -14.5q-56 -75 -113.5 -102t-103 -17t-74.5 50.5t-29 101.5z" />
    <glyph glyph-name="Tcommaaccent" unicode="&#x162;" horiz-adv-x="501" 
d="M290 9q-3 70 -5 145t-6.5 151.5t-13 152t-21.5 145.5q-4 16 -7 20t-15 4q-24 0 -46 -7.5t-44.5 -16.5t-44.5 -16.5t-47 -7.5q-13 0 -21 4.5t-8 19.5q0 7 1.5 14t11.5 8l196 48q-2 22 3.5 28.5t18.5 6.5q17 0 29 -6.5t30 -6.5q45 0 89 7.5t88 17t87.5 17t87.5 7.5v-10
q0 -7 -0.5 -15t-4.5 -15t-10 -8q-11 -1 -32.5 -3.5t-49 -6t-57.5 -7t-58 -7t-49.5 -7t-32.5 -4.5q-9 -2 -22.5 -5.5t-26.5 -7t-22.5 -6.5t-9.5 -4v-13l58 -603v-13q-1 -2 -4.5 -4.5t-9.5 -4t-14 0t-18 8.5zM365 -231q0 33 -7 53t-17.5 30.5t-22.5 15t-22.5 8t-17 7.5
t-6.5 14q0 18 11 21.5t35 3.5q30 0 49 -15.5t30 -38t14.5 -46.5t3.5 -42t-7 -42.5t-19 -43.5t-29 -26t-39 9q-18 13 -13.5 21.5t17.5 17.5t26.5 20.5t13.5 32.5z" />
    <glyph glyph-name="tcommaaccent" unicode="&#x163;" horiz-adv-x="486" 
d="M215 313q-22 0 -44 -6t-43.5 -12.5t-43 -12t-44.5 -5.5q-13 0 -21 5t-8 20q0 12 6.5 16.5t16 5t20 -0.5t16.5 1q8 2 29.5 7t45.5 10t45.5 10t29.5 8q0 3 0.5 10.5t1 16t0.5 15.5v11q0 30 -4 58.5t-8.5 57.5t-8.5 58t-4 58q0 10 2.5 19.5t15.5 9.5q5 0 10.5 -2.5t6.5 -9.5
l35 -289q1 -1 2 -1h3q10 0 31 5t47 12t55.5 15t56.5 14.5t49 10t34 0.5q4 -1 13 -9.5t11 -12.5q2 -10 -17 -19.5t-49.5 -18t-67.5 -15.5t-70.5 -12.5t-57.5 -10t-29 -6.5v-20q0 -13 -0.5 -28.5t-0.5 -29.5v-20q0 -51 7 -99.5t7 -97.5q0 -7 -4 -11.5t-10 -8t-12 -6t-9 -3.5
q-8 43 -11.5 78.5t-5 70.5t-3 74.5t-4.5 89.5h-17zM264 -241q0 33 -7 53t-17.5 30.5t-22.5 15t-22.5 8t-17 7.5t-6.5 14q0 18 11 21.5t35 3.5q30 0 49 -15.5t30 -38t14.5 -46.5t3.5 -42t-7 -42.5t-19 -43.5t-29 -26t-39 9q-18 13 -13.5 21.5t17.5 17.5t26.5 20.5t13.5 32.5z
" />
    <glyph glyph-name="Tcaron" unicode="&#x164;" horiz-adv-x="501" 
d="M290 9q-3 70 -5 145t-6.5 151.5t-13 152t-21.5 145.5q-4 16 -7 20t-15 4q-24 0 -46 -7.5t-44.5 -16.5t-44.5 -16.5t-47 -7.5q-13 0 -21 4.5t-8 19.5q0 7 1.5 14t11.5 8l196 48q-2 22 3.5 28.5t18.5 6.5q17 0 29 -6.5t30 -6.5q45 0 89 7.5t88 17t87.5 17t87.5 7.5v-10
q0 -7 -0.5 -15t-4.5 -15t-10 -8q-11 -1 -32.5 -3.5t-49 -6t-57.5 -7t-58 -7t-49.5 -7t-32.5 -4.5q-9 -2 -22.5 -5.5t-26.5 -7t-22.5 -6.5t-9.5 -4v-13l58 -603v-13q-1 -2 -4.5 -4.5t-9.5 -4t-14 0t-18 8.5zM91 957q4 6 14 6q4 0 4 -1q23 -56 46.5 -85.5t47.5 -38t47.5 -0.5
t45.5 24.5t41.5 37.5t35.5 40q4 4 6.5 5t6.5 1q13 0 19 -7.5t6 -14.5q-56 -75 -113.5 -102t-103 -17t-74.5 50.5t-29 101.5z" />
    <glyph glyph-name="Utilde" unicode="&#x168;" 
d="M58 185q-1 16 -4 47.5t-6.5 71.5t-7 84t-7 84t-6.5 72t-4 47q0 2 -0.5 11.5t-0.5 12.5h36q1 -13 2.5 -40.5t4 -61.5t4.5 -72.5t4.5 -72.5t4.5 -61.5t3 -40.5q3 -30 9.5 -69t22.5 -72.5t41 -56.5t64 -23q33 0 57.5 21t41.5 54.5t27.5 74.5t17 80.5t9 73t2.5 52.5
q0 50 -7.5 94.5t-7.5 90.5q0 11 7.5 14.5t16.5 3.5q2 0 6 -0.5t6 -0.5q6 -22 8 -39.5t3.5 -33.5t1.5 -33v-37q0 -29 -1.5 -74.5t-7.5 -96.5t-18.5 -102.5t-34 -93.5t-55 -68t-80.5 -26q-35 0 -62 17.5t-45.5 44.5t-30 60t-14.5 64zM25 730q-3 27 4 53t22 46.5t38 32t53 9.5
q26 0 46 -16.5t39.5 -35.5t40.5 -35t50 -16q24 0 39 11.5t26 25t19.5 25t19.5 11.5q0 -58 -31 -82t-78 -24q-34 0 -56.5 14.5t-41 32t-36.5 32t-42 14.5q-20 0 -33 -11.5t-21 -28.5t-12 -37.5t-6 -36.5q-5 -4 -11.5 -8.5t-13.5 -4.5q-9 0 -12 10.5t-3 18.5z" />
    <glyph glyph-name="utilde" unicode="&#x169;" horiz-adv-x="448" 
d="M132 0q-19 -7 -34.5 3.5t-27.5 32t-21 49t-14 54.5t-6.5 49t0.5 32q0 10 1 31t2 47.5t2.5 55t2.5 55.5t2 47.5t1 30.5q2 0 3 1l3 1q10 0 17 -9t12 -17q0 -14 -0.5 -50t-0.5 -77t0.5 -77.5t0.5 -50.5q1 -12 4.5 -37.5t9.5 -52t16.5 -48t26.5 -24.5q42 0 70.5 31t47.5 78
t30.5 101.5t19.5 102.5t14.5 80.5t15.5 35.5l24 -5l56 -387q6 -3 10 -9t7.5 -13t5 -14t1.5 -10q-2 -7 -12 -15t-17 -9h-4h-2q-2 3 -5.5 9.5t-7.5 13.5t-6.5 14.5t-3.5 9.5q-3 10 -6.5 31t-6.5 46.5t-5.5 54t-5 55t-5 47t-5.5 30.5q-5 -23 -14 -54.5t-22.5 -66.5t-30.5 -68.5
t-38.5 -62t-47.5 -48t-57 -24.5zM31 546q-3 27 4 53t22 46.5t38 32t53 9.5q26 0 46 -16.5t39.5 -35.5t40.5 -35t50 -16q24 0 39 11.5t26 25t19.5 25t19.5 11.5q0 -58 -31 -82t-78 -24q-34 0 -56.5 14.5t-41 32t-36.5 32t-42 14.5q-20 0 -33 -11.5t-21 -28.5t-12 -37.5
t-6 -36.5q-5 -4 -11.5 -8.5t-13.5 -4.5q-9 0 -12 10.5t-3 18.5z" />
    <glyph glyph-name="Umacron" unicode="&#x16a;" 
d="M58 185q-1 16 -4 47.5t-6.5 71.5t-7 84t-7 84t-6.5 72t-4 47q0 2 -0.5 11.5t-0.5 12.5h36q1 -13 2.5 -40.5t4 -61.5t4.5 -72.5t4.5 -72.5t4.5 -61.5t3 -40.5q3 -30 9.5 -69t22.5 -72.5t41 -56.5t64 -23q33 0 57.5 21t41.5 54.5t27.5 74.5t17 80.5t9 73t2.5 52.5
q0 50 -7.5 94.5t-7.5 90.5q0 11 7.5 14.5t16.5 3.5q2 0 6 -0.5t6 -0.5q6 -22 8 -39.5t3.5 -33.5t1.5 -33v-37q0 -29 -1.5 -74.5t-7.5 -96.5t-18.5 -102.5t-34 -93.5t-55 -68t-80.5 -26q-35 0 -62 17.5t-45.5 44.5t-30 60t-14.5 64zM63 850q22 4 35 4.5t23.5 0t23 -0.5
t36.5 1q2 1 14.5 1.5t27.5 1t31 0.5h45q14 0 30 -0.5t30 -1t19 -1.5q4 -1 8.5 -9.5t3.5 -12.5q-1 -5 -9.5 -14t-13.5 -10q-18 1 -45 3.5t-55.5 4.5t-55.5 3.5t-45 0.5q-19 -2 -40 -2.5t-41 -3.5q-1 0 -6.5 -0.5t-12 -1t-12 -1t-6.5 -0.5q0 9 1.5 21.5t13.5 16.5z" />
    <glyph glyph-name="umacron" unicode="&#x16b;" horiz-adv-x="448" 
d="M132 0q-19 -7 -34.5 3.5t-27.5 32t-21 49t-14 54.5t-6.5 49t0.5 32q0 10 1 31t2 47.5t2.5 55t2.5 55.5t2 47.5t1 30.5q2 0 3 1l3 1q10 0 17 -9t12 -17q0 -14 -0.5 -50t-0.5 -77t0.5 -77.5t0.5 -50.5q1 -12 4.5 -37.5t9.5 -52t16.5 -48t26.5 -24.5q42 0 70.5 31t47.5 78
t30.5 101.5t19.5 102.5t14.5 80.5t15.5 35.5l24 -5l56 -387q6 -3 10 -9t7.5 -13t5 -14t1.5 -10q-2 -7 -12 -15t-17 -9h-4h-2q-2 3 -5.5 9.5t-7.5 13.5t-6.5 14.5t-3.5 9.5q-3 10 -6.5 31t-6.5 46.5t-5.5 54t-5 55t-5 47t-5.5 30.5q-5 -23 -14 -54.5t-22.5 -66.5t-30.5 -68.5
t-38.5 -62t-47.5 -48t-57 -24.5zM67 666q22 4 35 4.5t23.5 0t23 -0.5t36.5 1q2 1 14.5 1.5t27.5 1t31 0.5h45q14 0 30 -0.5t30 -1t19 -1.5q4 -1 8.5 -9.5t3.5 -12.5q-1 -5 -9.5 -14t-13.5 -10q-18 1 -45 3.5t-55.5 4.5t-55.5 3.5t-45 0.5q-19 -2 -40 -2.5t-41 -3.5
q-1 0 -6.5 -0.5t-12 -1t-12 -1t-6.5 -0.5q0 9 1.5 21.5t13.5 16.5z" />
    <glyph glyph-name="Ubreve" unicode="&#x16c;" 
d="M58 185q-1 16 -4 47.5t-6.5 71.5t-7 84t-7 84t-6.5 72t-4 47q0 2 -0.5 11.5t-0.5 12.5h36q1 -13 2.5 -40.5t4 -61.5t4.5 -72.5t4.5 -72.5t4.5 -61.5t3 -40.5q3 -30 9.5 -69t22.5 -72.5t41 -56.5t64 -23q33 0 57.5 21t41.5 54.5t27.5 74.5t17 80.5t9 73t2.5 52.5
q0 50 -7.5 94.5t-7.5 90.5q0 11 7.5 14.5t16.5 3.5q2 0 6 -0.5t6 -0.5q6 -22 8 -39.5t3.5 -33.5t1.5 -33v-37q0 -29 -1.5 -74.5t-7.5 -96.5t-18.5 -102.5t-34 -93.5t-55 -68t-80.5 -26q-35 0 -62 17.5t-45.5 44.5t-30 60t-14.5 64zM141 861q23 -36 43 -49.5t37 -12t31 14.5
t25 29.5t19 32t13.5 23t8.5 2.5t3 -30q0 -17 -6 -33t-20 -28t-37 -20t-56 -8q-22 0 -38 7.5t-26.5 18.5t-15.5 24t-5 23v16q0 10 2.5 14t7 0t14.5 -24z" />
    <glyph glyph-name="ubreve" unicode="&#x16d;" horiz-adv-x="448" 
d="M132 0q-19 -7 -34.5 3.5t-27.5 32t-21 49t-14 54.5t-6.5 49t0.5 32q0 10 1 31t2 47.5t2.5 55t2.5 55.5t2 47.5t1 30.5q2 0 3 1l3 1q10 0 17 -9t12 -17q0 -14 -0.5 -50t-0.5 -77t0.5 -77.5t0.5 -50.5q1 -12 4.5 -37.5t9.5 -52t16.5 -48t26.5 -24.5q42 0 70.5 31t47.5 78
t30.5 101.5t19.5 102.5t14.5 80.5t15.5 35.5l24 -5l56 -387q6 -3 10 -9t7.5 -13t5 -14t1.5 -10q-2 -7 -12 -15t-17 -9h-4h-2q-2 3 -5.5 9.5t-7.5 13.5t-6.5 14.5t-3.5 9.5q-3 10 -6.5 31t-6.5 46.5t-5.5 54t-5 55t-5 47t-5.5 30.5q-5 -23 -14 -54.5t-22.5 -66.5t-30.5 -68.5
t-38.5 -62t-47.5 -48t-57 -24.5zM147 677q23 -36 43 -49.5t37 -12t31 14.5t25 29.5t19 32t13.5 23t8.5 2.5t3 -30q0 -17 -6 -33t-20 -28t-37 -20t-56 -8q-22 0 -38 7.5t-26.5 18.5t-15.5 24t-5 23v16q0 10 2.5 14t7 0t14.5 -24z" />
    <glyph glyph-name="Uring" unicode="&#x16e;" 
d="M58 185q-1 16 -4 47.5t-6.5 71.5t-7 84t-7 84t-6.5 72t-4 47q0 2 -0.5 11.5t-0.5 12.5h36q1 -13 2.5 -40.5t4 -61.5t4.5 -72.5t4.5 -72.5t4.5 -61.5t3 -40.5q3 -30 9.5 -69t22.5 -72.5t41 -56.5t64 -23q33 0 57.5 21t41.5 54.5t27.5 74.5t17 80.5t9 73t2.5 52.5
q0 50 -7.5 94.5t-7.5 90.5q0 11 7.5 14.5t16.5 3.5q2 0 6 -0.5t6 -0.5q6 -22 8 -39.5t3.5 -33.5t1.5 -33v-37q0 -29 -1.5 -74.5t-7.5 -96.5t-18.5 -102.5t-34 -93.5t-55 -68t-80.5 -26q-35 0 -62 17.5t-45.5 44.5t-30 60t-14.5 64zM75 855q0 14 1.5 39t10 51t28.5 44.5
t56 18.5q34 0 54 -11t31.5 -27.5t15 -36t3.5 -34.5q0 -18 -5.5 -38t-18.5 -37.5t-35.5 -29.5t-55.5 -12q-22 0 -38 7.5t-26.5 18.5t-15.5 24t-5 23zM99 861q17 -38 43 -46.5t50 2t42 34.5t20.5 50.5t-15.5 49.5t-67 32q-26 0 -40.5 -16t-22 -37.5t-9 -41.5t-1.5 -27z" />
    <glyph glyph-name="uring" unicode="&#x16f;" horiz-adv-x="448" 
d="M132 0q-19 -7 -34.5 3.5t-27.5 32t-21 49t-14 54.5t-6.5 49t0.5 32q0 10 1 31t2 47.5t2.5 55t2.5 55.5t2 47.5t1 30.5q2 0 3 1l3 1q10 0 17 -9t12 -17q0 -14 -0.5 -50t-0.5 -77t0.5 -77.5t0.5 -50.5q1 -12 4.5 -37.5t9.5 -52t16.5 -48t26.5 -24.5q42 0 70.5 31t47.5 78
t30.5 101.5t19.5 102.5t14.5 80.5t15.5 35.5l24 -5l56 -387q6 -3 10 -9t7.5 -13t5 -14t1.5 -10q-2 -7 -12 -15t-17 -9h-4h-2q-2 3 -5.5 9.5t-7.5 13.5t-6.5 14.5t-3.5 9.5q-3 10 -6.5 31t-6.5 46.5t-5.5 54t-5 55t-5 47t-5.5 30.5q-5 -23 -14 -54.5t-22.5 -66.5t-30.5 -68.5
t-38.5 -62t-47.5 -48t-57 -24.5zM82 671q0 14 1.5 39t10 51t28.5 44.5t56 18.5q34 0 54 -11t31.5 -27.5t15 -36t3.5 -34.5q0 -18 -5.5 -38t-18.5 -37.5t-35.5 -29.5t-55.5 -12q-22 0 -38 7.5t-26.5 18.5t-15.5 24t-5 23zM106 677q17 -38 43 -46.5t50 2t42 34.5t20.5 50.5
t-15.5 49.5t-67 32q-26 0 -40.5 -16t-22 -37.5t-9 -41.5t-1.5 -27z" />
    <glyph glyph-name="Uhungarumlaut" unicode="&#x170;" 
d="M58 185q-1 16 -4 47.5t-6.5 71.5t-7 84t-7 84t-6.5 72t-4 47q0 2 -0.5 11.5t-0.5 12.5h36q1 -13 2.5 -40.5t4 -61.5t4.5 -72.5t4.5 -72.5t4.5 -61.5t3 -40.5q3 -30 9.5 -69t22.5 -72.5t41 -56.5t64 -23q33 0 57.5 21t41.5 54.5t27.5 74.5t17 80.5t9 73t2.5 52.5
q0 50 -7.5 94.5t-7.5 90.5q0 11 7.5 14.5t16.5 3.5q2 0 6 -0.5t6 -0.5q6 -22 8 -39.5t3.5 -33.5t1.5 -33v-37q0 -29 -1.5 -74.5t-7.5 -96.5t-18.5 -102.5t-34 -93.5t-55 -68t-80.5 -26q-35 0 -62 17.5t-45.5 44.5t-30 60t-14.5 64zM126 707l-14 -8q-10 5 -7 18t5 20
q1 3 2.5 11.5t3.5 11.5q5 7 13.5 19.5t17.5 25t18 24t14 18.5q4 5 10 11.5t13 12.5t14.5 9t14.5 2q2 -1 5.5 -2.5t5.5 -2.5zM220 699l-12 -8q-6 3 -7 7.5t-0.5 10t2 11t2.5 9.5q1 3 3 11l3 12q6 7 14.5 19.5t17.5 25t17.5 23.5t13.5 18q4 6 10.5 12.5t13 12.5t14 9t15.5 2
q1 -1 4.5 -2.5t4.5 -2.5z" />
    <glyph glyph-name="uhungarumlaut" unicode="&#x171;" horiz-adv-x="448" 
d="M132 0q-19 -7 -34.5 3.5t-27.5 32t-21 49t-14 54.5t-6.5 49t0.5 32q0 10 1 31t2 47.5t2.5 55t2.5 55.5t2 47.5t1 30.5q2 0 3 1l3 1q10 0 17 -9t12 -17q0 -14 -0.5 -50t-0.5 -77t0.5 -77.5t0.5 -50.5q1 -12 4.5 -37.5t9.5 -52t16.5 -48t26.5 -24.5q42 0 70.5 31t47.5 78
t30.5 101.5t19.5 102.5t14.5 80.5t15.5 35.5l24 -5l56 -387q6 -3 10 -9t7.5 -13t5 -14t1.5 -10q-2 -7 -12 -15t-17 -9h-4h-2q-2 3 -5.5 9.5t-7.5 13.5t-6.5 14.5t-3.5 9.5q-3 10 -6.5 31t-6.5 46.5t-5.5 54t-5 55t-5 47t-5.5 30.5q-5 -23 -14 -54.5t-22.5 -66.5t-30.5 -68.5
t-38.5 -62t-47.5 -48t-57 -24.5zM132 629l-14 -8q-10 5 -7 18t5 20q1 3 2.5 11.5t3.5 11.5q5 7 13.5 19.5t17.5 25t18 24t14 18.5q4 5 10 11.5t13 12.5t14.5 9t14.5 2q2 -1 5.5 -2.5t5.5 -2.5zM226 621l-12 -8q-6 3 -7 7.5t-0.5 10t2 11t2.5 9.5q1 3 3 11l3 12
q6 7 14.5 19.5t17.5 25t17.5 23.5t13.5 18q4 6 10.5 12.5t13 12.5t14 9t15.5 2q1 -1 4.5 -2.5t4.5 -2.5z" />
    <glyph glyph-name="Uogonek" unicode="&#x172;" 
d="M182 -72q0 -14 6.5 -25.5t15 -22.5t15.5 -22t7 -23q-32 0 -50.5 11.5t-28.5 27t-13.5 32.5t-3.5 28q0 12 4 28.5t14 31.5q6 8 15 14q-8 4 -15 8q-27 18 -45.5 45t-30 60t-14.5 64q-1 16 -4 47.5t-6.5 71.5t-7 84t-7 84t-6.5 72t-4 47q0 2 -0.5 11.5t-0.5 12.5h36
q1 -13 2.5 -40.5t4 -61.5t4.5 -72.5t4.5 -72.5t4.5 -61.5t3 -40.5q3 -30 9.5 -69t22.5 -72.5t41 -56.5t64 -23q33 0 57.5 21t41.5 54.5t27.5 74.5t17 80.5t9 73t2.5 52.5q0 50 -7.5 94.5t-7.5 90.5q0 11 7.5 14.5t16.5 3.5q2 0 6 -0.5t6 -0.5q6 -22 8 -39.5t3.5 -33.5
t1.5 -33v-37q0 -29 -1.5 -74.5t-7.5 -96.5t-18.5 -102.5t-34 -93.5t-54.5 -68q-8 -5 -15 -10v-2q0 -11 -14.5 -13t-32.5 -7t-32.5 -18.5t-14.5 -46.5z" />
    <glyph glyph-name="uogonek" unicode="&#x173;" horiz-adv-x="448" 
d="M336 -39q0 -13 6.5 -25t15 -23t15.5 -22t7 -22q-32 0 -51 11t-28.5 27t-13 32.5t-3.5 28.5q0 11 4 28t14.5 31t29.5 24t48 11v1q-3 7 -4 10q-3 10 -6.5 30.5t-6.5 46t-5.5 54.5t-5 55t-5 47t-5.5 31q-5 -24 -14 -55.5t-22.5 -66t-30.5 -68.5t-38.5 -62t-47.5 -47.5
t-57 -24.5q-19 -8 -34.5 3t-27.5 32t-21 48.5t-14 54.5t-6.5 49t0.5 33q0 10 1 30.5t2 47t2.5 55.5t2.5 55.5t2 47.5t1 30q2 0 3 1l3 1q10 0 17 -9t12 -16q0 -14 -0.5 -50t-0.5 -77t0.5 -77.5t0.5 -51.5q1 -11 4.5 -37t9.5 -52.5t16.5 -47.5t26.5 -25q42 0 70.5 31.5
t47.5 78t30.5 101.5t19.5 102.5t14.5 80.5t15.5 36l24 -6l56 -387q6 -2 10 -8t7.5 -13t5 -14t1.5 -11q-1 -4 -5 -8q-2 -4 -7 -7q-10 -7 -17 -9h-4q-1 0 -2 1l-3 4q-6 -2 -14 -4q-17 -4 -31.5 -17.5t-14.5 -47.5z" />
    <glyph glyph-name="Wcircumflex" unicode="&#x174;" horiz-adv-x="912" 
d="M24 499l277 -406h12l3 20q3 22 7 51.5t7.5 61t6.5 52.5v12q1 11 6 41t11 63t11 63l7 42q2 10 11 11t17 1q10 0 16 -2t9.5 -7t6.5 -12t8 -15q27 -40 55.5 -86.5t59 -93.5t63 -92.5t67.5 -86.5q1 -2 4 -5t6.5 -7t7 -7t4.5 -4l12 23q3 14 10.5 42t18 63.5t21.5 75t21.5 74.5
t19.5 63t13 41q4 10 15.5 33.5t24 49t24.5 48.5t18 32q2 3 10.5 7t12.5 4q18 0 21.5 -7.5t3.5 -20.5q0 -19 -16 -43.5t-36.5 -51t-40 -54t-25.5 -54.5l-93 -383q-2 -10 -9 -11t-14 -1q-10 0 -13.5 1t-9.5 11l-287 408l-15 -15q-2 -1 -5 -14.5t-6 -31.5t-6.5 -37.5
t-4.5 -31.5q-2 -11 -4 -34t-4.5 -51t-5 -59.5t-4.5 -60.5t-4 -51.5t-2 -33.5q-6 -9 -12.5 -16.5t-16.5 -7.5q-7 0 -10 2.5t-8 10.5l-254 382q-14 21 -26 49.5t-12 55.5h15zM311 662q7 13 17.5 38.5t22 53t22 52.5t16.5 40q3 9 4.5 19t4.5 18.5t8 14.5t18 6h6q4 0 5 -1
l128 -157q24 6 30.5 -4t6.5 -24q0 -13 -7 -28t-24 -15q-22 14 -38.5 32.5t-30 38.5t-24 40t-19.5 36q-2 3 -11 7.5t-11 4.5t-6.5 -4.5t-5.5 -7.5l-89 -173q0 -1 -2 -1h-3q-12 0 -18 14z" />
    <glyph glyph-name="wcircumflex" unicode="&#x175;" horiz-adv-x="736" 
d="M250 12q-7 15 -21.5 47t-32.5 71l-39 84q-19 45 -37.5 84.5t-33.5 71.5t-22 48q-6 10 -14 22t-15.5 24.5t-13 25t-5.5 26.5q0 5 2.5 11.5t11.5 6.5q1 0 6.5 -2.5t11 -6t10 -8t6.5 -8.5l195 -415l60 359q-3 7 -1 15.5t7.5 15t13 11t15.5 4.5q7 0 13.5 -1t9.5 -11
q4 -9 13 -28.5t20 -43.5t23.5 -50.5t24.5 -50.5t21 -43l14 -28q6 -14 15 -30t19.5 -31.5t22.5 -30t24 -24.5l92 417q3 11 5.5 18.5t12.5 7.5q13 0 15.5 -10.5t2.5 -19.5q-21 -60 -30 -124l-18 -127q-9 -63 -23.5 -124.5t-45.5 -118.5h-5q-10 0 -18 12l-208 370
q-8 -22 -14.5 -62.5t-12.5 -88.5t-12 -97.5t-13 -89.5t-16 -65.5t-20 -25.5q-10 0 -16 13zM223 720q7 13 17.5 38.5t22 53t22 52.5t16.5 40q3 9 4.5 19t4.5 18.5t8 14.5t18 6h6q4 0 5 -1l128 -157q24 6 30.5 -4t6.5 -24q0 -13 -7 -28t-24 -15q-22 14 -38.5 32.5t-30 38.5
t-24 40t-19.5 36q-2 3 -11 7.5t-11 4.5t-6.5 -4.5t-5.5 -7.5l-89 -173q0 -1 -2 -1h-3q-12 0 -18 14z" />
    <glyph glyph-name="Ycircumflex" unicode="&#x176;" horiz-adv-x="588" 
d="M537 752q-11 22 2 33t31 11v-55l-72 -843l-37 19zM-4 674q-1 0 -1 2v3q0 7 4.5 12.5t12.5 5.5l1 -1h4l439 -238q20 -4 31.5 -10.5t11.5 -28.5q0 -8 -2 -17.5t-15 -9.5h-5q-3 2 -9 6.5t-13 10t-13 10t-7 7.5zM149 904q7 13 17.5 38.5t22 53t22 52.5t16.5 40q3 9 4.5 19
t4.5 18.5t8 14.5t18 6h6q4 0 5 -1l128 -157q24 6 30.5 -4t6.5 -24q0 -13 -7 -28t-24 -15q-22 14 -38.5 32.5t-30 38.5t-24 40t-19.5 36q-2 3 -11 7.5t-11 4.5t-6.5 -4.5t-5.5 -7.5l-89 -173q0 -1 -2 -1h-3q-12 0 -18 14z" />
    <glyph glyph-name="ycircumflex" unicode="&#x177;" horiz-adv-x="504" 
d="M423 -164q0 57 6 112.5t6 111.5q0 24 -13.5 41.5t-32.5 30.5q-52 38 -100.5 71t-94.5 66.5t-90.5 70.5t-86.5 83l23 23q10 -8 31 -24.5t47 -37t55 -43.5t55.5 -43.5t47.5 -37t31 -23.5q11 -8 29.5 -19.5t37 -22.5t33 -19.5t16.5 -8.5h12v13q1 13 1.5 39t1.5 58.5
t2.5 69.5t3 70t2 59t0.5 39q4 11 15.5 13.5t20.5 2.5q0 -87 -2 -175l-6 -174q-2 -88 -4 -175.5t0 -174.5q-5 -8 -12 -16.5t-18 -8.5q-10 0 -13.5 10t-3.5 19zM107 720q7 13 17.5 38.5t22 53t22 52.5t16.5 40q3 9 4.5 19t4.5 18.5t8 14.5t18 6h6q4 0 5 -1l128 -157
q24 6 30.5 -4t6.5 -24q0 -13 -7 -28t-24 -15q-22 14 -38.5 32.5t-30 38.5t-24 40t-19.5 36q-2 3 -11 7.5t-11 4.5t-6.5 -4.5t-5.5 -7.5l-89 -173q0 -1 -2 -1h-3q-12 0 -18 14z" />
    <glyph glyph-name="Ydieresis" unicode="&#x178;" horiz-adv-x="588" 
d="M537 752q-11 22 2 33t31 11v-55l-72 -843l-37 19zM-4 674q-1 0 -1 2v3q0 7 4.5 12.5t12.5 5.5l1 -1h4l439 -238q20 -4 31.5 -10.5t11.5 -28.5q0 -8 -2 -17.5t-15 -9.5h-5q-3 2 -9 6.5t-13 10t-13 10t-7 7.5zM197 839q0 16 9 28.5t26 12.5q16 0 26.5 -6t10.5 -24
q0 -20 -13.5 -37t-34.5 -17q-9 0 -13.5 4.5t-7 11t-3 14t-0.5 13.5zM320 839q0 16 8.5 28.5t25.5 12.5q16 0 26.5 -6t10.5 -24q0 -20 -13.5 -37t-34.5 -17q-8 0 -13 4.5t-7.5 11t-2.5 14v13.5z" />
    <glyph glyph-name="Zacute" unicode="&#x179;" horiz-adv-x="649" 
d="M202 -5q0 17 4 37t8 35q3 10 10 32t16 49t19.5 57.5t19.5 58t16 48.5l11 33v10q-19 0 -38 -5.5t-37.5 -12t-37 -12t-38.5 -5.5q-8 0 -16 4t-8 14v4q0 1 1 3q2 1 5.5 5.5t7.5 7.5l6 6q4 4 5 4l174 46l58 251q-27 0 -45 2t-34 2.5t-32.5 -2t-39.5 -10.5q-11 -4 -37.5 -13.5
t-56.5 -20.5t-56 -21t-36 -14q-2 -1 -6 -1.5t-5 -0.5q-13 0 -19 9.5t-6 21.5q0 9 6.5 11t18.5 6l106 36q47 16 92 26.5t91 16.5t105 6l-58 -283v-15q9 0 19.5 2.5t19 2t14.5 -5.5t6 -19q0 -12 -6 -16.5t-14.5 -5t-18.5 1t-19 2t-15.5 -2.5t-8.5 -12q-6 -15 -19 -53
t-27.5 -80.5t-28 -80.5t-18.5 -53q-2 -19 -7 -35t-3 -35q18 0 58.5 9.5t87.5 22.5t92 26.5t74 22.5q3 1 8.5 5t11 8.5t11 8t9.5 3.5q14 0 22 -11.5t8 -23.5q0 -8 -2 -14.5t-11 -10.5q-96 -15 -193.5 -43.5t-188.5 -60.5q-25 -4 -30 2t-5 20zM242 769l-13 -8q-10 5 -7.5 17.5
t4.5 20.5q1 3 3 11t4 12q6 7 14.5 19.5l17 25t17 23.5t13.5 18q5 6 10.5 12.5t13 12.5t15 9t14.5 2l5 -2.5l5 -2.5z" />
    <glyph glyph-name="zacute" unicode="&#x17a;" horiz-adv-x="527" 
d="M64 35l246 456l-258 -85h-6q-11 0 -20.5 9t-9.5 20q0 10 7.5 12t16.5 6l302 91q1 0 5.5 0.5t6.5 0.5q24 0 24 -24q0 -19 -10 -30.5t-26 -27.5l-221 -394h36l313 93q11 -15 15.5 -28t1.5 -21t-13 -10.5t-28 1.5l-335 -92q-2 -1 -8.5 -1.5t-9.5 -0.5q-10 0 -19.5 3t-9.5 16
v6zM218 621l-13 -8q-10 5 -7.5 17.5t4.5 20.5q1 3 3 11t4 12q6 7 14.5 19.5l17 25t17 23.5t13.5 18q5 6 10.5 12.5t13 12.5t15 9t14.5 2l5 -2.5l5 -2.5z" />
    </font>
</defs>
</svg>
