<svg width="16" height="13" viewBox="0 0 16 13" fill="none" xmlns="http://www.w3.org/2000/svg">
<path d="M13.8248 3.11713C14.4108 2.67767 14.9381 2.15033 15.3483 1.5351C14.8209 1.76947 14.2057 1.94525 13.5905 2.00385C14.235 1.62299 14.7037 1.03705 14.9381 0.304626C14.3522 0.656189 13.6783 0.919861 13.0045 1.06635C12.4186 0.451111 11.6276 0.0995483 10.7487 0.0995483C9.04944 0.0995483 7.67249 1.4765 7.67249 3.17572C7.67249 3.4101 7.70178 3.64447 7.76038 3.87885C5.21155 3.73236 2.92639 2.50189 1.40295 0.656189C1.13928 1.09564 0.992798 1.62299 0.992798 2.20892C0.992798 3.26361 1.52014 4.20111 2.36975 4.75775C1.8717 4.72845 1.37366 4.61127 0.963501 4.37689V4.40619C0.963501 5.90033 2.01819 7.1308 3.42444 7.42377C3.19006 7.48236 2.89709 7.54095 2.63342 7.54095C2.42834 7.54095 2.25256 7.51166 2.04749 7.48236C2.42834 8.71283 3.57092 9.59174 4.91858 9.62103C3.86389 10.4413 2.54553 10.9394 1.10999 10.9394C0.846313 10.9394 0.611938 10.9101 0.377563 10.8808C1.72522 11.7597 3.33655 12.2578 5.09436 12.2578C10.7487 12.2578 13.8248 7.59955 13.8248 3.52728C13.8248 3.3808 13.8248 3.26361 13.8248 3.11713Z" fill="black"/>
</svg>
